<svg xmlns="http://www.w3.org/2000/svg" viewBox="0 0 1610 565">
    <g>
      <rect x="5" y="5" width="1600" height="555" rx="40.78" style="fill: none;stroke: #000;stroke-linejoin: round;stroke-width: 10px"/>
      <line x1="5" y1="72" x2="1605" y2="70" style="fill: none;stroke: #000;stroke-linejoin: round;stroke-width: 5px"/>
      <g>
        <path d="M555.62,22.16c-2.06,9.92-1.56,20.68-1.73,30.78-.06,3.58,5.53,3.59,5.56,0,.12-10.09.91-20.81-.87-30.78a1.55,1.55,0,0,0-3,0Z"/>
        <path d="M556.55,26.23c1.82-.63,3.21-2.16,5-2.69,3.37-1,4.47,2.4,4.67,5.12.34,4.82-1.52,8.55-6.74,7.36-3.1-.7-5.13,3.58-2.22,5.25a9.92,9.92,0,0,0,11.62-1.8c3.24-3.25,3.57-8.32,2.93-12.6-.6-4-2.86-8.08-7.15-9-4.13-.86-8.83,2.71-9.88,6.59a1.42,1.42,0,0,0,1.74,1.74Z"/>
        <path d="M577.9,54.48c1.7-3.53-1.14-7.77.68-11.51,1.44-2.95,4.68-2.08,6.1.33,1.63,2.77,6.09,1,5.21-2.2-1.56-5.64-9.14-7.78-13.74-4.42-2.68,2-3.8,5.27-4,8.47s.19,8.48,3.32,10a1.79,1.79,0,0,0,2.43-.64Z"/>
        <path d="M600.8,53.54c-2.83-2.15-6.06-10.49-.67-12,2.81-.78,4.71,2,5,4.43.2,2.06-1.62,7.3-4.57,4.93-2.67-2.15-6.45,1.38-3.85,3.85,4.53,4.3,11.29,1.86,13.44-3.66s0-12.4-5.58-14.7c-5.37-2.19-10.82,1.08-12.06,6.59s2.18,10.58,6.69,13.38c1.84,1.15,3.29-1.59,1.65-2.83Z"/>
        <path d="M615.19,23.06A143,143,0,0,0,615,38c.1,4.46,0,9.29,1.34,13.57.66,2.08,4.2,2.48,4.64,0,1.54-8.85-.72-20.24-2.61-28.93-.41-1.87-3-1.28-3.16.43Z"/>
        <path d="M621.11,42.3c2.9-.69,10.32-1.15,9.76,3.86-.2,1.81-1.92,3.07-3.53,3.58A6.14,6.14,0,0,1,625,50a3.36,3.36,0,0,1-1.17-.21c-.82-.59-1.34-.28-1.55.93,2.83-1.59.81-5.51-2.1-5a4.15,4.15,0,0,0-3.36,4.56c.25,2.41,2.19,4,4.31,4.83a12,12,0,0,0,13.18-2.94A9,9,0,0,0,634,39.44c-3.92-3.83-9.93-3.28-14.34-.64a1.92,1.92,0,0,0,1.48,3.5Z"/>
        <path d="M640.88,22.56c-.74,7.11-2.39,15.78-.67,22.84,1.11,4.55,5,9,10.08,7.6a2.62,2.62,0,0,0,0-5c-5.54-1.5-4.71-6.73-5-11.4s-.72-9.37-1.28-14a1.58,1.58,0,0,0-3.16,0Z"/>
        <path d="M659.73,43.48c2.46.11,4.93.08,7.39.17,1.77.07,3.69.22,5.23-.87,2.41-1.72,2.66-5.15,1.45-7.68-2.73-5.7-11-6.87-15.66-3C653,36.4,653,44.9,657.54,49.59a13.6,13.6,0,0,0,17.22,1.6c2.62-1.87.09-6.25-2.54-4.35a8.48,8.48,0,0,1-9.19.67,7,7,0,0,1-2.91-9.37c1.44-2.52,5.41-3.66,7.72-1.54,2,1.8.36,1.66-1.41,1.95-2.4.4-4.82.67-7.22,1.09s-1.58,3.74.52,3.84Z"/>
        <path d="M688.23,52.45c-.19-3.3-1.09-6.76-.69-10.07.5-4.08,5.26-5.7,6.73-1a20.06,20.06,0,0,1,.39,5.74c0,3.1,4,3.27,5.08.68.78-1.93,3.28-13.73,8.06-5.67,1.53,2.58.48,8,0,10.68-.6,3.36,4.61,4.73,5.1,1.4.91-6.07,1.68-16.13-5-19.44-8-3.94-10.5,6-12.87,11l4.82,1.31c.37-6.48-2.81-17.62-11.74-14.28-8.07,3-5.88,14.54-3.05,20.43a1.72,1.72,0,0,0,3.19-.86Z"/>
        <path d="M730.73,25.21c-1.45,8.69-1.74,19.44.83,27.94.86,2.84,5.81,2.48,5.43-.74-.49-4.06-1.53-8-2.23-12-.85-4.92-.8-9.79-1.1-14.75-.09-1.58-2.64-2.16-2.93-.4Z"/>
        <path d="M732,27.18c3.07-1.1,10.27-3.26,11.63,1.88,1.47,5.57-6.44,6.13-9.87,5.75v5.62c4.9-.63,10.81-1.39,13.66,3.63,1.92,3.38,2.42,7.28,4.65,10.56,2,3,6.93.15,4.87-2.85-3.1-4.5-3.32-10.52-7.7-14.19s-10.21-3.34-15.48-2.77c-2.86.31-4.13,4.9-.74,5.52,7.51,1.37,18.22-2.62,16.13-12.16-1.76-8.08-13.84-9.69-18.79-3.8-1,1.16-.09,3.43,1.64,2.81Z"/>
        <path d="M763.5,46.82c4.55-.55,9.15-.86,13.68-1.49,2.49-.34,4.77-1.62,4.8-4.44.08-7.51-11.92-6.38-16-3.73-5.38,3.46-7,11.07-2.48,15.92s13,4.55,17.27-.62a2.49,2.49,0,0,0-3.52-3.52c-2.69,2.29-6.45,3.85-9.53,1.2s-2-7,1.22-8.94A9.19,9.19,0,0,1,774.1,40s2.83.26,2.8.66c0,.22-1.57.47-1.86.53-4,1-7.94,1.86-11.93,2.73-1.58.34-1.27,3.07.39,2.88Z"/>
        <path d="M787.52,40.3c.69,3.58,2.11,7.06,3,10.6.85,3.27,1.14,6.78,2.68,9.81,1.08,2.13,4.09.95,4.22-1.15.21-3.59-1.35-7.27-2.52-10.63s-2.38-7-4.35-9.92a1.68,1.68,0,0,0-3.06,1.29Z"/>
        <path d="M790.74,40.38c3-.9,9.35-3.25,10.61,1.4a4.28,4.28,0,0,1-1.7,4.65c-1.86,1.33-3.75.8-5.83,1-2.31.2-3.48,3.27-1.24,4.56,3.21,1.86,7.84.66,10.59-1.54a9.48,9.48,0,0,0,3.43-9.09c-1.58-8.64-11.39-7.66-17.11-4-1.51,1-.59,3.53,1.25,3Z"/>
        <path d="M821.53,51.22c-2.11-1.52-4.15-3.67-3.94-6.49.18-2.51,2.28-4.89,4.91-4.72,6.86.43,4.22,12.55-.69,9.4-2.73-1.74-5,2.43-2.5,4.27,5.11,3.72,11.36-.39,12.7-5.86s-1.24-11.36-6.87-13A10.19,10.19,0,0,0,812.69,42c-1.46,5.27,1.88,11.54,7.5,12.37a1.75,1.75,0,0,0,1.34-3.18Z"/>
        <path d="M843.33,53c.14-3.07-1.67-6-1.29-9a3.57,3.57,0,0,1,2.83-3.33c1.72-.25,2.7,1,3.69,2.16,2,2.42,5.47-.66,4.17-3.22-2.37-4.68-9.12-5.36-12.74-1.79-4.49,4.43-1.14,10.62.23,15.63a1.59,1.59,0,0,0,3.11-.42Z"/>
        <path d="M861.29,20.12a66.91,66.91,0,0,0-.91,15.09c.2,4.21.22,9.28,1.87,13.23,1.83,4.37,8.92,7.83,11.49,2.12a2.29,2.29,0,0,0-3.57-2.76c-3.32,2.58-4.41-11.51-4.52-12.59-.5-4.88-.79-9.79-1.27-14.67-.16-1.62-2.76-2.31-3.09-.42Z"/>
        <path d="M857.16,40.88a130.69,130.69,0,0,0,16.2.14c3.54-.1,3.54-5.69,0-5.51A137.35,137.35,0,0,0,856.64,37c-2.36.42-1.54,3.7.52,3.89Z"/>
        <path d="M919.25,27.65a12.93,12.93,0,0,0-5.1-11.14c-3.25-2.3-8-2.29-9.93,1.66-2.47,5.07-1,12.36-.35,17.66.85,7.4,1.64,14.8,2.56,22.18.43,3.39,5.77,3.5,5.41,0-.79-7.71-1.72-15.4-2.59-23.1-.36-3.2-1.69-8.61-.53-11.71-.28-1.66.56-2.45,2.52-2.38a6,6,0,0,1,2.36,2,10.33,10.33,0,0,1,2.26,5.32c.32,2,3.33,1.41,3.39-.46Z"/>
        <path d="M897.7,44.18c2.42.85,5.26.24,7.79.13,2.72-.13,5.43-.34,8.12-.74,3.16-.48,2.45-5.91-.76-5.62a78.21,78.21,0,0,0-8.05,1.23c-2.48.49-5.35.57-7.5,2a1.68,1.68,0,0,0,.4,3Z"/>
        <path d="M927.25,51.83c-3-1.2-5.4-3.15-5.07-6.68a4.49,4.49,0,0,1,4.68-4.32,4,4,0,0,1,4.2,4c.05,3-2.21,4.5-5.07,4.38-3-.13-3.86,5-.74,5.43,6,.84,11.26-3,11.62-9.17a9.89,9.89,0,0,0-19.69-1.68c-.53,6.25,4,9.23,9.25,11,1.91.64,2.6-2.24.82-3Z"/>
        <path d="M940.7,41.87c-1.69,1.38.14,6.49.54,8.17.51,2.12,1.29,7.08,4.69,5.88,2.62-.92,2.36-5.09-.68-5,1.52,0,2.82,2.71,1.74.43-.2-.42-.39-.74-.57-1.18-.52-1.34-.91-2.74-1.38-4.1s-1.92-6.13-4.34-4.16Z"/>
        <path d="M943.74,42.85c2.93-3.64,6-3,8.52.48a3.07,3.07,0,0,0,5.29-3.1c-3.21-6.79-13.72-5.19-16.34,1.15-.56,1.38,1.61,2.62,2.53,1.47Z"/>
        <path d="M979.16,25.68c-6.28,8.65-3.26,27.14,8.86,28.92,5.48.8,10-2.74,11.4-7.91,2.11-7.5-1.66-15-5-21.51-1-1.94-4.21-.6-3.53,1.49,1.41,4.36,7.56,24.3-3.28,22-8.71-1.84-7.8-15.54-5.61-21.79.63-1.78-1.87-2.52-2.83-1.2Z"/>
        <path d="M1010.25,51.24c-1.52-3.4-2.27-11.4,3.64-10.81,4.81.48,3.32,9.6,3,12.57-.22,2.37,3,2.32,3.8.51a28.66,28.66,0,0,0,1.6-7.41,12,12,0,0,0-.72-6.41,8.06,8.06,0,0,0-9.08-4.68c-8.87,1.64-9.89,12.1-4.5,17.94,1.17,1.27,2.84-.34,2.22-1.71Z"/>
        <path d="M1030,39.54c-1.22,2.11-1.19,4.42-1.26,6.81a28.07,28.07,0,0,0,.46,7.77c.62,2.37,4.5,2.57,5,0a27,27,0,0,0,0-7.77c-.22-2.37-.29-4.78-1.64-6.81a1.5,1.5,0,0,0-2.56,0Z"/>
        <path d="M1032.08,34a7,7,0,0,0,.56-.75L1031,34.46l.13,0a3.15,3.15,0,0,0,2.24-2.24l0-.16a3.24,3.24,0,1,0-6.25,0l0,.16a3.14,3.14,0,0,0,2.23,2.24l.14,0L1028,33.21a5.85,5.85,0,0,0,.56.75,2.5,2.5,0,0,0,3.56,0Z"/>
        <path d="M1042.23,35.55c1.32,6.16,3.73,12,6.12,17.81a2.66,2.66,0,0,0,5.07,0,134.83,134.83,0,0,0,6.06-19c.82-3.43-4.31-4.86-5.29-1.46-1.86,6.42-3.33,12.83-5.84,19.05h5.07c-2.38-6-4.74-12.15-8.16-17.69a1.67,1.67,0,0,0-3,1.28Z"/>
        <path d="M1069.87,43.84a35.66,35.66,0,0,0,14.92-1,2.58,2.58,0,0,0,1.8-3.16c-1.69-4.26-5.38-8.27-10.29-8.36s-8.13,3.8-9.27,8.23-.83,9.48,3.27,12.39c4.56,3.24,10.11,2.94,15,.7,2.9-1.33.25-6.09-2.53-4.34a9,9,0,0,1-8.15.68c-3.43-1.37-4.15-4-3.48-7.4.48-2.47,1.83-5.32,4.77-5.26,2.6.05,4.84,2.48,5.73,4.73l1.8-3.16a55.23,55.23,0,0,1-13.14,2.83c-1.58.19-2.31,2.72-.42,3.07Z"/>
        <path d="M1102.07,51.92c.09-4.06-2.19-8.33-.79-12.31s6.37-5.29,8.33-1c1.32,2.89,6.25.84,5.17-2.18a9.67,9.67,0,0,0-15.1-4.17c-7,5.58-3.45,13.31-1,20.15a1.76,1.76,0,0,0,3.44-.47Z"/>
        <path d="M1133.27,33.86c-3.14-1.38-7.08-2.88-10.32-.94a6.31,6.31,0,0,0-2.75,7.43c1.38,3.52,4.75,3.26,7.87,3.6,2.47.27,6.35,3.09,3.18,5.59-2.42,1.91-5.27-.39-7.07-1.88-2-1.61-5.69.58-3.85,3,2.34,3,6,5.15,10,4.58,3.64-.53,6.83-3.22,7.15-7a9,9,0,0,0-5.21-8.5c-1.75-.86-3.45-.55-5.27-.89-1.32-.24-2.44-.29-1.37-1.75,1.43-2,4.66-.89,6.51-.5,1.53.33,2.76-2,1.14-2.69Z"/>
        <path d="M1146.12,43.31c4.89-.66,9.83-1.13,14.73-1.75a2.44,2.44,0,0,0,2.36-2.35c.54-5.46-4.86-7.68-9.4-8-6.19-.43-9,2.5-9.9,8.41-.86,5.58,1,10.06,6.29,12.4,4.84,2.13,11.18,3.33,14.91-1.39,2-2.57-1.61-6.21-3.62-3.62-3.28,4.24-12.53.75-12.85-4.31-.15-2.41.27-6.05,3-6.61,2.28-.48,7,.07,6.86,3.12l1.73-2.27c-5,1.21-9.88,2.59-14.83,3.77-1.73.41-.94,2.82.72,2.6Z"/>
        <path d="M498.67,19.08a244,244,0,0,0,.85,36c.33,3,4.74,3.18,4.82,0a244.52,244.52,0,0,0-2.11-36c-.28-2.21-3.46-2.35-3.56,0Z"/>
        <path d="M501.42,20.19c7.22-.58,14.5.68,21.71.08a2.81,2.81,0,0,0,0-5.62c-7.44-.59-14.81,1.54-22.11,2.59-1.66.23-1.29,3.09.4,3Z"/>
        <path d="M523.15,18.49c1.9,2.23,4,4.22,5.82,6.55,1.54,2,2.95,4.68,5.23,5.88a2.63,2.63,0,0,0,3.57-3.57c-1.19-2.37-4-3.91-6-5.54-2.2-1.77-4.06-3.88-6.17-5.74a1.71,1.71,0,0,0-2.42,2.42Z"/>
        <path d="M523.12,17.8c-1.12,4.73-1.28,9.84-1.85,14.67-.22,1.8,1.84,2.85,3.32,2.53,3.63-.78,7.16-.7,10.82-1.07,2.62-.27,3.8-4.63.68-5.07-4.24-.59-8.73.18-12.89,1.07l3.32,2.54c0-4.69.3-9.6-.28-14.24-.2-1.64-2.68-2.33-3.12-.43Z"/>
        <path d="M534.11,29.92a164.23,164.23,0,0,0,.22,27.7c.34,3.17,5.13,3.34,5.08,0-.12-9.22-1-18.53-1.92-27.7a1.69,1.69,0,0,0-3.38,0Z"/>
      </g>
      <path d="M501.68,54.13c-3.43,4.3,3.05,5.56,6.08,5.85a155.61,155.61,0,0,0,27.64-.33c4.15-.36,4.2-6.85,0-6.53-5.71.45-11.42.81-17.15,1-2,0-13.8,1.25-14.37.32a1.41,1.41,0,0,0-2.2-.28Z"/>
      <g>
        <path d="M101.59,309.26c6.18-7.94,10.22-16.08,9.9-26.44-.53-16.95-22.75-23.11-31.75-8.6-1.18,1.9-2.4,3.7-3.73,5.49L105,296.63c26-52.16,57.46-100.91,91.7-148H166.5c23.61,32.27,40.87,69.31,57.14,105.68,4.23,9.45,8.37,18.94,12.49,28.44.48,1.11,1,2.22,1.45,3.34-.3-.72-.89-2.77.13.41a26.45,26.45,0,0,1,.89,3.13v-2.45a7.05,7.05,0,0,1,2.7-6.81c.66-.59,3.25-1.57.58-.51.59-.23,3.68-1.07.62-.32-1,.26-2,.57-3.06.81-.41.1-4.94.91-3.08.65s-1.78.14-2.19.17c-1.23.08-2.46.14-3.69.17-2.17.06-4.33,0-6.5,0-5.62-.21-11.23-.79-16.83-1.36a228.7,228.7,0,0,0-31.07-1.34c-11.71.41-23.38,1.58-35.09,2.06-5.65.23-11.31.29-17,.05-3.13-.14-6.26-.35-9.37-.74.85.11,2.84.53-.81-.17l-1.86-.34q-4.52-1.2,3.46,2.24l4.62,7.92c.32,1.16.37,9-1.65,9.55.67-.18,1.92-1.87,2.39-2.36,1.4-1.47-2.33,1.1-.44.39a20.46,20.46,0,0,0,2.28-1.36c1-.53,3.71-1.31,0-.15.87-.27,1.71-.62,2.58-.89,1.78-.55,3.58-.94,5.4-1.33,3.39-.74-2,.08.21-.06,1-.06,1.91-.18,2.87-.25,1.93-.14,3.87-.22,5.8-.26,4.4-.09,8.79,0,13.19.18a503.37,503.37,0,0,0,68-2.26c11.6-1.2,22.28-11.2,18.24-23.95A36.67,36.67,0,0,0,218.87,244c-10.33-4.51-20.78-4.86-31.86-3.9a172.36,172.36,0,0,1-27.64.32c-2.22-.16-4.43-.43-6.65-.63-3.14-.27,2.57,1,.45,0a12,12,0,0,0-1.84-.4c.2.05-2.45-.65-2.43-.72l1.13.49c1.49.69,1.5.66,0-.06.1.22-2.5-2.68,0,.17,1.68,1.9,3,2.9,3.63,5.63a11.36,11.36,0,0,1-1.73,9.34c-.12.16-2.54,2.9-2.76,2.6.08.1,2-1.38,2.17-1.22.26.31-3.79,1.05-1.58.73a22.6,22.6,0,0,0,2.45-.71c2.12-.54,4.31-.87,6.47-1.22.46-.08,4.33-.62,2.16-.34-2,.24,1.14-.12,1.24-.13,2.2-.2,4.39-.39,6.6-.52,4.72-.28,9.46-.36,14.19-.23,11.26.32,23.75,3.51,32.22-6.38s7.89-25.09.89-35.72a39.88,39.88,0,0,0-31.45-18.28c-12.86-.7-24.26,4.94-33.93,12.88L183,219.16c.57-5.22-.67,2,.16-.91.4-1.36.57-2.82.92-4.2.7-2.8,1.67-5.47,2.6-8.19-.62,1.79-.59,1.23.11-.21.62-1.29,1.26-2.57,2-3.83a74.14,74.14,0,0,1,5.11-7.95H161.2l13,23.81c4.73,8.65,17.39,12.16,25.76,6.76a19.23,19.23,0,0,0,6.76-25.76l-12.86-23.91c-3.13-5.81-9.86-9.37-16.34-9.37-7.22,0-12.26,3.83-16.34,9.37-9.64,13.1-14.41,28.37-16.12,44.39-.79,7.36,5.42,14.71,11.66,17.35,7.48,3.16,14.66,1.05,20.73-3.93-3.26,2.68,1.45-.59,2.12-1.09q1.84-.93-.87.26A20.83,20.83,0,0,1,181,231a18.57,18.57,0,0,1,2.32-.54q-3.65.44-.32.26l1.57.08c-2.36-.35-2.54-.28-.54.18-4.35-1.81-.25.11.58.58-4.2-2.37,1.51,1-1.72-1.87,1.45,1.28,1.87,3.59.59.44.5,2.1.51,1.78,0-.94.64-2.6.62-2.87-.07-.79l4.87-8.36q14.48-3.5,7.81-3.81c-1.25-.14-2.51-.26-3.76-.37q-2.84-.24-5.67-.38-6.62-.34-13.24-.14a186.29,186.29,0,0,0-29.51,3.21c-7.82,1.51-16.11,5.18-21.28,11.44-7.66,9.26-9.32,21.69-2.82,32.14,10.32,16.58,33.65,17,51,17,9,0,17.84-1.58,26.78-1.54.51,0,5.76.76,2.54,0,.93.19,1.85.43,2.75.71,2,.72,1.8.63-.59-.25.55-.18,5.2,3.52.75.29,1.42,1.53,1.31,1.31-.31-.67q1.5,2.75-.21-.74l18.24-24q-26.49,3.22-53.22,3.93c-15.5.39-31-.66-46.31,2.34-16,3.14-36.77,15-36.77,33.71,0,14.34,12.35,20.51,24.51,22.23a168,168,0,0,0,28.26,1.68c17.08-.47,34.09-2.78,51.19-2.34,16.82.42,33.52,4.23,50.36,2.12,9.9-1.24,20-3.24,27.48-10.44,8.3-8,9.58-20.42,5.5-30.78-6.34-16.07-13.75-31.83-20.92-47.54C235.36,194,217.74,161.71,196.65,131c-3.56-5.19-8.57-8.65-15.08-8.65-6.73,0-11.22,3.57-15.07,8.65C131.39,177.21,101.83,227.8,76,279.71c-3.9,7.84-2.36,18.51,6,22.93,8.76,4.63,17.34,1.54,22.93-6,3.16-4.26-1.93,2.19,1.55-1.76L78,278.29c-.31,2.3-1.26,4.42-1.61,6.67s1.25-1.75.07.11c-.69,1.09-1.27,2.2-2,3.27-4.88,7.08-1.9,17.37,4.45,22.27,6.11,4.73,17.38,5.45,22.67-1.35Z" style="fill: #e7e000"/>
        <path d="M89,312.42c-7.17,2.43-13.55-4.66-14.44-11.25C73.16,291.11,78.27,280,82.08,271c7.91-18.86,18.77-36.4,30.07-53.39,11.84-17.79,23.92-35.49,36.59-52.7,6.19-8.4,12.61-16.63,19.38-24.57,4.63-5.43,11.17-16.48,19.45-11.52,7.58,4.53,11.86,16,15.74,23.51,4.87,9.38,9.37,18.95,13.82,28.54,8.63,18.61,17.08,37.37,27.62,55,9.45,15.82,23.45,32.74,23.93,52,.23,9-3.4,15.09-12.14,17.81-9.82,3.06-20.19,2.87-30.37,2.57a272,272,0,0,0-36.22,1c-12.38,1.29-24.71,2.75-37.16,3.35-25.35,1.21-50.08-1.22-75.28-3.47-7.91-.71-9.65,12.26-1.87,13.89,25,5.24,51.68,5.72,77.15,4.51,12.76-.61,25.4-2.14,38.1-3.44a280.34,280.34,0,0,1,36.2-.9c20.63.57,50.68-.71,55.71-26,4.41-22.15-9-43.06-20.21-60.92C250,216.21,240,194.81,230,173.31c-5.09-11-10.25-21.89-15.95-32.54-5.06-9.45-10.38-20.43-20.37-25.55-10.39-5.33-20.71-2-28.4,6.08-8.11,8.54-15.41,18-22.52,27.32-14.77,19.47-28.41,39.86-41.87,60.25-14.55,22-28.25,45-36.66,70.18-3.85,11.51-6.39,25.64,1.3,36.19,6.25,8.59,18,13.05,27.43,6.64,4.57-3.11,1.9-11.46-4-9.46Z"/>
        <path d="M177.5,243.18c-2.69-12.57-4.9-25.32-6.39-38.09-1-8.29-5.39-29.26,7.36-31.32,5-.81,8,4.68,8.72,8.8,1.08,6-.28,12.65-1,18.64q-1.27,10.54-3,21c-.57,3.47-1.48,15-6.61,15.47-4.63.39-4.73,7.59,0,7.3,7.88-.47,12.87-4.41,15.14-12.09,2.67-9,3.46-19,4.71-28.33,1.83-13.53,5-35.64-12.56-40.66-6.93-2-14,1.15-18.54,6.46-5.4,6.33-6.32,14.79-5.78,22.81,1.2,17.66,3.3,36.93,12.52,52.27,1.78,3,6.13,1,5.43-2.28Z"/>
        <path d="M173.31,287.17c-3-2.33-3-9.37-2.19-12.84,1.38-5.9,7.85-5.13,10.78-.88,2.33,3.39,2.57,8.61.07,12-2.62,3.54-7.85,3.35-9.15-1.19-1.54-5.4-9.1-3.05-8.24,2.28,1.45,9,13.22,12.62,20.61,8.52,9.18-5.09,10.24-18.22,5-26.43s-17.26-10.86-24.21-3.14c-6.6,7.34-3.55,20.74,4,26,2.54,1.76,5.8-2.39,3.34-4.33Z"/>
      </g>
      <g>
        <path d="M348.22,393.66c-.81,11.77.83,24.13,2.28,35.81.3,2.37,2.8,4.63,5.22,3A286.1,286.1,0,0,0,382.46,412c1.72-1.49,1.14-4.46-.71-5.52l-29-16.57c-3.19-1.82-6.52,1.77-4.88,4.88a62.29,62.29,0,0,1,7.21,29.9c-.06,4.54,6.45,4.33,6.91,0a195.22,195.22,0,0,0,1-24.06l-6.35,1.72a28.35,28.35,0,0,1,2.19,15.87c-.46,3.13,3.06,5.92,5.67,3.3a22.6,22.6,0,0,1,8.46-5.51c3.39-1.24,3.16-6.82-.91-6.66a6.78,6.78,0,0,1-5.43-2l-.69,5.34c2.06-1,3.58-.68,5.4.5v-5.89a4.69,4.69,0,0,1-5-.42v5.93c1.63-1.22,3.26-1.83,5.26-.86l2.67-6.33c-2.62-.77-5.45-2.24-8.05-.78a3.48,3.48,0,0,0-1.22,4.67l.18.35a3.47,3.47,0,0,0,4.65,1.21l.26-.12c3.38-1.67,1-7.56-2.61-6.18l-.27.1,3.83,1.56-.15-.36-1.23,4.66.43-.19-2.64.35c1.68.33,3.34.93,5,1.4,3.67,1.06,6.29-4.61,2.67-6.32-4.15-2-8.48-1.94-12.22.91-2,1.49-2.47,4.55,0,5.93a12.33,12.33,0,0,0,11.92.38c2.47-1.11,1.95-4.63,0-5.89a11.85,11.85,0,0,0-12.27-.48,3.43,3.43,0,0,0-.69,5.34,13.37,13.37,0,0,0,10.24,4l-.9-6.66a30.45,30.45,0,0,0-11.45,7.25l5.67,3.3A36.91,36.91,0,0,0,362.59,399c-1.41-3.2-6.41-1.47-6.36,1.72a195.28,195.28,0,0,1-1.13,24.06H362a68.24,68.24,0,0,0-8-33.5l-4.88,4.88,29,16.48-.72-5.52a271.16,271.16,0,0,1-25.26,19.4l5.1,2.08c-1.87-11.61-2.28-23.27-3.83-34.89-.43-3.29-5-3.47-5.27,0Z"/>
        <text transform="translate(408.38 425.41)" style="opacity: 0.11;font-size: 48px;font-family: LucidaGrande, Lucida Grande;letter-spacing: 0.025004069010416668em">Comments</text>
        <path d="M437.3,420.62c-3.27,1.69-8.18,3.73-12,2.95-6.19-1.27-8.89-9.16-8.52-14.8.32-4.92,2.9-9.49,7.5-11.57,2.08-.95,4.8-1.51,6.94-.39,1.66.87,2.37,2.67,4,3.69a3,3,0,0,0,3.65-.47l.16-.19c2.54-2.89-1.6-7.11-4.25-4.25l-.17.18,3.65-.47c-.95-.57-1.68-2-2.68-2.69a12,12,0,0,0-4.4-1.8,15.27,15.27,0,0,0-9.45,1.26c-7,3.3-10.94,10.71-10.67,18.3.25,7,3.74,16.2,11.05,18.41,5.3,1.61,16,.18,17.52-6.36a1.62,1.62,0,0,0-2.34-1.8Z"/>
        <path d="M459.82,422.77c-4.4.26-6.91-2.95-7.94-6.9-1.13-4.34-.71-8.64,3.91-10.48,13.68-5.44,9.5,17.86,3.63,16.91-3.67-.59-5.23,5-1.54,5.61,17,2.67,17.28-32.6-.69-28.83-8.42,1.77-12.36,7.59-11,16,1.13,7,6.72,14.6,14.49,10.83a1.71,1.71,0,0,0-.86-3.16Z"/>
        <path d="M484.8,424c-2.08-4.24-4.91-14.92,1.82-17.07s6.23,13.35,6.13,16.94,5.29,3.52,5.53,0c.52-7.81-.87-26.62-13.44-22.08-9.85,3.55-9,18.11-3.27,24.69,1.62,1.85,4.19-.5,3.23-2.48Z"/>
        <path d="M496.36,413.85a8.13,8.13,0,0,1,4.42-7c4-1.84,6.36,1.21,7.36,4.71,1.38,4.84.73,9.56,1,14.46.13,2.76,4.18,3.49,4.93.67,1.93-7.27.87-21.3-7.14-24.9-7-3.15-16.53,5.13-13.6,12.47a1.57,1.57,0,0,0,3.07-.42Z"/>
        <path d="M527.61,426c-.34-5.57-2.62-14.56,3.57-17.62,9.19-4.54,7.89,10.33,7.65,15.45-.17,3.55,5,3.38,5.41,0,.93-8.21,0-24.19-12.26-21.07-3.91,1-7.67,3.82-8.82,7.81-1.44,4.95.57,10.95,1.46,15.84.31,1.68,3.1,1.3,3-.41Z"/>
        <path d="M543.32,408.52c3.18-5.22,9.17-2.71,10.26,2.43.91,4.3.82,8.57,1,12.92.13,3.59,5.1,3.44,5.47,0,.68-6.19.26-17-5.41-21.08-5.35-3.83-11.64-1.1-13.88,4.64-.6,1.54,1.78,2.42,2.59,1.09Z"/>
        <path d="M573.39,414.16c4.89.18,9.78-.45,14.68-.38,1.8,0,2.65-1.62,2.42-3.19-.74-5.2-6.46-9.16-11.51-9.48-5.81-.37-9,5-9.46,10.12s1.3,11,5.94,13.82c4.21,2.59,10.17,2.15,13.51-1.62,2.09-2.37-1.3-5.83-3.49-3.5-5,5.31-11.09-.92-11.27-6.5-.11-3.24,1-8,5.26-7.26,2.92.54,5.76,2.78,6.17,5.76l1.76-3.1c-4.81.79-9.7.89-14.49,1.8-2.06.39-1.47,3.45.48,3.53Z"/>
        <path d="M601.26,420.83l-.88.51,2.83,1.62c-.16-4.13-2.42-20.39,5.45-18.49,6.36,1.54,4.59,15.12,4.89,19.94.15,2.36,3.77,3.15,4.34.59,1.7-7.67,1.54-25.31-9.66-25.71-12.28-.45-10.32,16.54-8.72,24.17a1.9,1.9,0,0,0,3.63,0l.24-1a1.47,1.47,0,0,0-2.12-1.64Z"/>
        <path d="M628.87,388.71c-1.26,5-.73,10.52-.73,15.68s-.82,11,.48,15.92c1.42,5.41,9,8.07,11,1.61.84-2.68-3.06-3.56-4.08-1.13l-2.21-.36-.71-3a43.6,43.6,0,0,1,0-4.43c0-2.86,0-5.73-.06-8.6,0-5.16.44-10.66-.86-15.68a1.46,1.46,0,0,0-2.79,0Z"/>
        <path d="M624.29,401.81l-.21.56a1.83,1.83,0,0,0,.84,2.05c1.93,1,4.18.49,6.29.33,2.4-.18,5-.19,7.2-1.19,1.74-.78,1.4-4-.56-4.26a17.9,17.9,0,0,0-6,.6c-1,.19-2,.42-3,.64-.61.14-2.13.75-2.7.49a1.33,1.33,0,0,0-1.91.78Z"/>
        <path d="M661.73,402.05c-3.08-2.08-7.35-3.24-10.6-.8-2.4,1.81-3.62,5.22-2.1,8,2,3.68,5.67,2.58,9,2.82,4,.29,4,5.06,1.39,7.14s-5.4.47-7.49-1.53a2.29,2.29,0,0,0-3.58,2.76c4.08,7.91,15.83,4.46,17.19-3.51.56-3.31-.67-7.43-3.91-9-2.27-1.07-4,.28-6.29-.2-1.86-.39-3.25-1.7-1.16-3.12,1.8-1.22,4.6-.37,6.49-.05a1.38,1.38,0,0,0,1.06-2.52Z"/>
        <path d="M364.44,407.47c3.21,0,3.21-5,0-5s-3.21,5,0,5Z"/>
      </g>
      <g>
        <path d="M85,511.66c-9.53-3.34-14.23-12.21-17-21.44-2.41-8.08-4.37-18.38-.76-26.4,6.19-13.72,29.12-17.7,42.18-14,8.77,2.48,12.79,10.26,15,18.5,2,7.37,3.24,15.34,2.31,23-1.09,8.93-6,15.31-14.65,18.09s-19.8,4.2-28.17-.19c-4.25-2.23-8,4.21-3.76,6.44,8.16,4.29,17,4.18,25.93,2.75,8.59-1.39,17.19-4.31,22.58-11.54,9.31-12.5,6.42-32.52,1.16-46.12-2.88-7.46-7.67-13.83-15.21-17-7.76-3.24-16.66-2.75-24.8-1.46C74.6,444.68,60,453.1,58.42,469.81c-.91,9.73,1.51,20.54,5.63,29.34,3.76,8,10.6,17.09,20.33,17.19,2.79,0,3.1-3.82.63-4.68Z"/>
        <path d="M85.21,469.53c.91,1.33-.87,2.2.83.5.84-.84,1.47-1.84,2.38-2.63a9.49,9.49,0,0,1,7.45-2.54c2,.3,4.71,1.6,5.33,3.76.88,3.1-1.57,4-3.85,5.24-6.43,3.41-10.2,9.63-7.71,17,1.54,4.53,8.77,2.59,7.21-2-2.73-8,7.26-8.23,10.63-13.36s.9-11.53-3.52-15a15.3,15.3,0,0,0-16.32-1.33c-4.15,2.12-10,7.33-9,12.51A3.43,3.43,0,0,0,82,474.2h.57c2.2,0,4-2.66,2.67-4.66Z"/>
      </g>
      <path d="M90.42,505.62a4.23,4.23,0,0,0,2.65,2.1,4.13,4.13,0,0,0,4.32-1.5,4.31,4.31,0,0,0,.87-3.29,4.09,4.09,0,0,0-1.09-2.29,3.93,3.93,0,0,0-2.73-1.16,3.45,3.45,0,0,0-2.85,1.43,3.61,3.61,0,0,0-.65,3.16,6.56,6.56,0,0,0,.49,1.12l-.37-.88,0,.09-.13-1a.67.67,0,0,1,0,.2l.13-1a.59.59,0,0,1,0,.19l.37-.88a.48.48,0,0,1-.1.17l.58-.74-.07.07.75-.58a.56.56,0,0,1-.17.09l.88-.37-.1,0,1-.13h-.1l1,.13-.1,0,.88.37-.09-.05.74.58a.67.67,0,0,1-.15-.14l.58.74a.72.72,0,0,1-.11-.19,3.67,3.67,0,0,0-2.2-1.69,3.68,3.68,0,0,0-4.54,2.57,4.15,4.15,0,0,0,.37,2.85Z"/>
      <g>
        <path d="M343.5,116.26c-6.93,10.9-7.68,37.34,10.85,35.79,17.36-1.45,20.17-27.26,13-39.27-2-3.35-7.09-.37-5.23,3.06,4.6,8.48,4.83,29.06-8.15,30.42-14.17,1.48-8.69-21.1-7.3-28.67a1.74,1.74,0,0,0-3.16-1.33Z"/>
        <path d="M385.19,147.54a1.33,1.33,0,0,0,0-2.66,1.33,1.33,0,0,0,0,2.66Z"/>
        <path d="M386.37,148.17c-1-4.26-2.21-8.9-1.29-13.27.71-3.41,4.13-8.45,8.45-6.92,7,2.46,3.28,16.51,2.62,21.27-.46,3.24,3.92,4.65,5,1.38,2.65-8,4.36-26.87-8.11-27.86-4.53-.37-8.92,2.77-11.08,6.58-3.55,6.27-1.14,13.52,1.33,19.66a1.59,1.59,0,0,0,3.07-.84Z"/>
        <path d="M408.86,127.76a113.19,113.19,0,0,0,1,20.57c.42,2.93,5.16,2.19,5.1-.69a112.63,112.63,0,0,0-2.41-20.37c-.44-2.14-3.57-1.53-3.66.49Z"/>
        <path d="M409.57,120.37a3,3,0,1,0-3-3,3,3,0,0,0,3,3Z"/>
        <path d="M420.14,127.42A185.49,185.49,0,0,1,428.93,148c.78,2.27,4.86,2.91,5.28,0a59,59,0,0,1,7.42-21.77c1.75-3-3-5.79-4.69-2.74a67.1,67.1,0,0,0-8,23.06h5.28A88.45,88.45,0,0,0,424,125.2a2.21,2.21,0,0,0-3.81,2.22Z"/>
        <path d="M452.15,135.28c5-.82,10.05-1.2,15.13-1.54a2.49,2.49,0,0,0,2.11-3.68c-2.06-4.56-6-9.87-11.74-8.34-5.13,1.35-7.24,7.24-7.53,12-.34,5.41,1.43,11.7,6.42,14.55,4.23,2.42,9.88,2,13.08-1.81,2-2.37-1.31-5.81-3.45-3.45a5.59,5.59,0,0,1-7.69.55c-2.63-1.93-3.45-5.51-3.43-8.61,0-2.49.45-5.81,2.45-7.56,3.58-3.12,6.47,2.58,7.67,5.14l2.11-3.67a85.29,85.29,0,0,0-16.07,3c-2.24.63-1.26,3.77.94,3.41Z"/>
        <path d="M480.94,147c-.1-4.37-1-8.76-.86-13.12.19-5.07,4.35-8.86,9.13-5.65,3.1,2.07,6.12-3,2.93-5-4.9-3-11.88-2.13-15.24,2.82-4.16,6.14-1.58,15,.26,21.47.59,2.05,3.83,1.69,3.78-.51Z"/>
        <path d="M513.66,124.94c-4.86-5.88-15.08-3.18-14.43,5.13.29,3.75,2.91,6,6.44,6.79,2.71.61,7.17,1.54,4.81,5.32-1,1.64-7.9,4-8.39,1-.58-3.55-5.92-2-5.39,1.49,1.35,8.9,16.36,5.31,18.92-1.08,1.36-3.39.64-7.54-2.39-9.76-1.93-1.42-4-1.22-6.18-1.93-2.71-.89-3.56-2.71-1.37-4.59,1.81-1.55,4.16-.93,6.11.1a1.55,1.55,0,0,0,1.87-2.43Z"/>
        <path d="M526.66,136.55c4.5.61,20.71,2.57,19.28-5.81-1.28-7.48-11.38-8.55-16.52-4.78-6,4.42-8.16,14.5-3.13,20.38,5.33,6.22,14.35,4.68,18.64-1.76,1.78-2.68-2.6-5.26-4.32-2.53-2.93,4.69-10.05,4.57-11.9-1.14a10.79,10.79,0,0,1,2.94-10.59,6.54,6.54,0,0,1,6.14-1.65c1.28.35,3.93,1.58,3.14,3.43-.45,1-6.48,1.24-7.42,1.32-2.15.17-4.29.13-6.44.1-1.69,0-2.17,2.79-.41,3Z"/>
        <path d="M585.5,140.57c.13,3.72-4,7.11-7.61,6.05-2.92-.87-4.64-4-4.58-6.85.13-5.59,9-13,11.84-5.2,1.49,4.12.35,10.13.31,14.42-.05,5.94-.12,11.88-.15,17.82,0,2.12,3.09,3.8,4.58,1.9,3.18-4.09,6.72-7.89,9.84-12,1.73-2.29-1.87-4.68-3.81-2.93a89.94,89.94,0,0,0-9.82,11.16l4.57,1.89c.06-6.93.07-13.86.09-20.79,0-4.91.73-10.61-1.43-15.21-3.71-8-13.38-5.09-18,.46-5,6-4.07,15.94,3.44,19.56s14.73-3,13.34-10.61c-.27-1.47-2.64-1.13-2.59.35Z"/>
        <path d="M601.36,125.91c-6.58,6.48-6.71,22.72,4.92,23.69a12.65,12.65,0,0,0,11.33-6c3.15-5,2.66-11.24,1.26-16.69-.88-3.45-6.37-2-5.35,1.48,1.59,5.3,2,16-6.2,16.1-3.78,0-5.77-3.78-5.9-7.14-.15-3.58,1.7-6.69,2.25-10.13a1.39,1.39,0,0,0-2.31-1.34Z"/>
        <path d="M630.07,126.47c-3.16,1.41-2.89,6.85-2.68,9.79A24.51,24.51,0,0,0,631.24,148,2.73,2.73,0,0,0,636,145.2a28.71,28.71,0,0,1-3-10.76c-.16-2.71.93-5.54-.95-7.72a1.59,1.59,0,0,0-1.89-.25Z"/>
        <path d="M634.28,118.4l.33-1a2.69,2.69,0,0,0-1.57-3.2,2.75,2.75,0,0,0-3.39,1.11l-.63.91a2.87,2.87,0,1,0,5.26,2.21Z"/>
        <path d="M646.11,115.17a99.69,99.69,0,0,0-.62,17.27c.22,3.83,0,9,2,12.41,3.85,6.57,9.83,1.32,11.19-3.9.78-3-3.8-4.25-4.61-1.28a2.92,2.92,0,0,1-2.37,2.72,12.15,12.15,0,0,1-.89-4.21c-.3-2.54-.5-5.1-.7-7.65-.4-5.12-.82-10.23-1.15-15.36a1.43,1.43,0,0,0-2.85,0Z"/>
        <path d="M641.43,127.34c1.86,1.56,4,1,6.33.83,2.88-.17,5.76-.39,8.64-.63,3.36-.27,3.26-5.61,0-5.19-2.73.35-5.47.7-8.19,1.09-2.25.32-5.29.13-6.78,2a1.33,1.33,0,0,0,0,1.87Z"/>
        <path d="M683.13,124.78c-.94,7.57-3.11,23.74,8.56,23.78,10.25,0,13.6-13.59,11.08-21.53a2.71,2.71,0,0,0-5.29.72c-.27,4.73,2.11,16.79-6.56,15.95-6.23-.6-4.88-14.37-5-18.92a1.4,1.4,0,0,0-2.79,0Z"/>
        <path d="M719.25,147.12c-1.18-3.94-2.71-8.09-2.35-12.27.32-3.61,3.06-8.65,7.45-8.35,7.51.52,5.46,15.81,5.36,20.45-.06,2.9,4.75,3.71,5.2.7,1.22-8.09,1.2-27.72-11.65-26.1a12.78,12.78,0,0,0-10,8.38c-2.08,6.14.53,12.84,3.05,18.41.75,1.64,3.4.47,2.89-1.22Z"/>
        <path d="M743.25,136.88c4.11,1.23,9.81,0,14-.51,3.1-.39,4.78-2.23,4.57-5.43-.46-7.07-9-10.32-14.6-6.9-6.51,3.93-7,12.55-3,18.46,3.47,5.12,11.84,8.54,16.63,3.21a2.49,2.49,0,0,0-3.52-3.52c-6.91,5.67-15.65-9.34-7.63-14a4.93,4.93,0,0,1,5.18,0c2.45,1.59,2,3.07-.27,3.71-3.81,1.05-8.18.37-11.68,2.37a1.42,1.42,0,0,0,.33,2.56Z"/>
        <path d="M771.37,125.18c2.23,4.32,6.32,7.79,9,11.86a90.79,90.79,0,0,1,7.09,13.31c1.25,2.75,5.93.8,4.91-2.07a58.4,58.4,0,0,0-7.85-14.59c-2.85-3.91-6.4-8.83-11-10.76a1.66,1.66,0,0,0-2.24,2.25Z"/>
        <path d="M774,148.61c5-7.33,10-14.42,16.54-20.49,2.68-2.5-1.58-6.73-4-4-6.11,6.86-12,14.16-15.94,22.51a2,2,0,0,0,3.4,2Z"/>
        <path d="M806.37,136.24a6.64,6.64,0,0,1,5.57-8.73c4.23-.44,8.13,2.68,9.23,6.64,2.86,10.33-12.57,14.6-13.54,3.28-.19-2.14-3.55-3-4-.54-1.4,7,5.2,13,12,12.09,7.14-1,11.44-7.94,10.17-14.81s-8.45-12.56-15.62-10.71a10.32,10.32,0,0,0-6.8,14c.72,1.69,3.53.48,3-1.25Z"/>
        <path d="M801.6,124c-1.23,12.85-.22,26.45,1.93,39.16.49,2.88,5.36,2.24,5.12-.69-1-12.78-2-25.76-3.69-38.47a1.68,1.68,0,0,0-3.36,0Z"/>
        <path d="M836.33,135.74a25.3,25.3,0,0,0,6.68.12,40.39,40.39,0,0,0,6.6-.47,4.09,4.09,0,0,0,2.65-6.25c-3-5.45-11.23-5.91-15.86-2.46-5.1,3.81-5.59,11.55-2,16.53,4,5.57,11.92,6.36,17.67,3.15,2.62-1.47.26-5.53-2.36-4-3.39,1.93-8.1,2-11-1a7.88,7.88,0,0,1-.78-9.92c2.15-2.83,6.21-3.05,9.08-1.26,1.22.76,1.9.79,0,1.08-.95.14-1.9.25-2.85.38-2.6.35-5.42.47-7.84,1.49-1.1.46-1.47,2.31,0,2.62Z"/>
        <path d="M877.43,127.14A8.48,8.48,0,0,0,866.35,124a12.27,12.27,0,0,0-6.31,12.4c1.53,8.79,11.78,16.77,19.58,9.23,1.56-1.51-.52-4.4-2.38-3.09-4.4,3.1-11,1.11-11.29-4.84-.14-3.26,2.85-12.46,7-7.08,2,2.6,6-.72,4.47-3.44Z"/>
        <path d="M887.44,112.5c-.82,5.75-.67,11.68-.69,17.48,0,4.25-.62,9.46,1.3,13.44,2.48,5.13,11.58,6.55,12.82-.25.52-2.91-3.88-4.19-4.49-1.24l-3,.62-1.16-2.27a14.66,14.66,0,0,1-.42-4c-.08-2.75-.06-5.49-.11-8.23a114.16,114.16,0,0,0-.9-15.59c-.25-1.63-3.07-1.65-3.31,0Z"/>
        <path d="M884,127.41c2.34-.2,4.65-.6,7-.83s4.67,0,7-.25c3.07-.29,3.16-5,0-4.87a59.36,59.36,0,0,0-7,1.15,75,75,0,0,0-7.43,1.45c-1.79.5-1.52,3.53.45,3.35Z"/>
        <path d="M908.43,136.56c4.74-.63,9.92-1.08,14.5-2.4,2.74-.78,3.88-3,3-5.79-1.92-6.09-11.09-7.28-16.16-5-6.31,2.79-6.17,10.94-3.72,16.36,3,6.57,10,10.18,16.73,7,2.65-1.25.34-5.25-2.3-3.95-9,4.44-16.56-13.34-7.47-15.66a10.45,10.45,0,0,1,5.09.13,6.5,6.5,0,0,1,2.39,1,1.59,1.59,0,0,1,.93,1.09c.64.65.52.94-.38.88-1.07.93-4.76,1-6.17,1.25-2.32.45-4.63.91-6.93,1.47-2,.48-1.59,3.88.49,3.61Z"/>
        <path d="M954.15,130.92a9.12,9.12,0,0,0-9.24-6.55c-4.93.1-8.72,4-9.92,8.61-1.15,4.41-.24,10.57,3.91,13.19,5.14,3.24,10.71-1.35,13.79-5.32,1.51-1.95-1-4.66-2.79-2.79s-5.16,5.73-8.16,4.13c-2.63-1.41-2.7-5.93-2-8.36,1.53-5.07,8.92-7.18,11.56-1.72.77,1.59,3.3.47,2.82-1.19Z"/>
        <path d="M949.68,114.45a132,132,0,0,0,3.84,31.78c.83,3.35,5.5,1.84,5-1.38-1.5-10.3-3-20.69-4.78-30.95-.4-2.36-4.07-1.73-4.09.55Z"/>
        <path d="M964.4,114.68c-.72,4.68-3.08,41.83,9.35,33.72a2.4,2.4,0,0,0-1.84-4.36c-3.34.54-3.89-26.07-3.9-28.87,0-2-3.28-2.59-3.61-.49Z"/>
        <path d="M976.47,126.28c0,8.68,5.42,16.24,12.61,20.69,2.81,1.75,5.41-2.71,2.59-4.43-6.24-3.81-9.62-9.86-11.44-16.77a1.92,1.92,0,0,0-3.76.51Z"/>
        <path d="M995.17,125c-2.5,6-4.49,12.26-6.39,18.49-.75,2.44-1.37,4.95-2.27,7.34a15.48,15.48,0,0,1-2.5,4.71c-1.27,1.47-5.42,4.56-6.86,1.05a2.44,2.44,0,0,0-4.77.64c-.33,3.24,2.15,5.68,5.25,6.32,4,.84,8-1.4,10.54-4.35,3.19-3.68,4.32-8.77,5.59-13.33,1.82-6.57,3.59-13.22,4.76-20a1.74,1.74,0,0,0-3.35-.92Z"/>
        <path d="M365.76,253.46c-5.69,6.52-16,3.21-18.15-4.7s6.69-20.65,14.21-11.8l-.85-3.22-.38,1.58c-1,4.1,5.12,5.79,6.31,1.74l.46-1.56a3.34,3.34,0,0,0-.86-3.22c-11.42-11.76-27.28,2.38-25,16,2.12,12.83,19.45,20.16,26.5,6.9.72-1.34-1.11-2.95-2.21-1.7Z"/>
        <path d="M375.18,227.11c-.44,7.35-1.36,14.76-1.46,22.11-.07,5.1,1.55,9.43,5.77,12.42,3.06,2.17,6.3-3.44,2.92-5-5.33-2.44-3.37-10.25-3.23-14.95a90.63,90.63,0,0,0-.93-15c-.25-1.83-3-1.24-3.07.41Z"/>
        <path d="M391.34,239.05c.07,6.76.1,13.49.56,20.24l6.12-.82-.25-1.48c-.6-3.46-5.43-2.25-5.72.77l-.15,1.53c-.37,3.94,6.16,4.07,6.24,0a62.53,62.53,0,0,0-3.29-20.71c-.6-1.87-3.53-1.61-3.51.47Z"/>
        <path d="M393.83,231.54l.56,0a3.31,3.31,0,0,0,0-6.62l-.56,0a3.29,3.29,0,1,0,0,6.58Z"/>
        <path d="M422.78,256.11c-1.4,1.48-4.12,1.72-6.08,1.43a5.8,5.8,0,0,1-5.09-4.78c-.67-2.62-.37-5.85,1.59-7.88a5.25,5.25,0,0,1,6.69-.8l-1.15-1.5.22.58a2.92,2.92,0,0,0,4.83,1.27c1.41-1.4.94-4.48-1.28-4.83s-3.7-1.43-6-1.29a10.49,10.49,0,0,0-5.77,2.19c-3.81,2.95-5,8.13-4.09,12.71.83,4.31,3.67,7.84,8,8.85s7.46-.74,10-4c1.06-1.36-.69-3.27-1.94-1.95Z"/>
        <path d="M432.12,226.59c-.27,10.56,1.3,21.15,1.2,31.74,0,3.33,5.15,3.34,5.18,0,.1-10.53.16-22.06-3.08-32.18a1.69,1.69,0,0,0-3.3.44Z"/>
        <path d="M438,250.81c3.28-3.18,6.5-6.26,10.6-8.37l-2.92-3.79a21.51,21.51,0,0,1-8,6.5c-2.23,1.06-1,4.38,1.2,4.43,6.11.12,8.43,6.91,10.18,11.66,1.19,3.23,6.41,1.78,5.16-1.42-2.87-7.36-6.79-14.14-15.34-15l.63,4.67a20.72,20.72,0,0,0,10-7.92c1.62-2.4-1.81-4.58-3.78-2.92-3.72,3.16-7.37,6.21-10.28,10.16-1.13,1.55,1.29,3.27,2.6,2Z"/>
        <path d="M476.92,227.11c.08,5.19.45,10.38.81,15.55.3,4.34.1,9.52,1.77,13.61,2.06,5,8.86,7.64,12.19,2.34,1.73-2.75-2.56-5.21-4.33-2.53q-4.12-1.65-3.76-5.64l-.33-3.89c-.22-2.27-.49-4.53-.74-6.8-.49-4.4-1-8.8-1.71-13.16-.37-2.23-3.93-1.67-3.9.52Z"/>
        <path d="M473.88,240.78c4.53-.08,9.07-.41,13.6-.35,3.7,0,3.13-6-.69-5.12-4.41,1-8.9,1.56-13.33,2.39-1.75.33-1.33,3.12.42,3.08Z"/>
        <path d="M506.42,257.75c-5.41-3-11.32-14.17-3.3-18,8.28-3.95,13.15,15.34,3.15,16.35-3.25.33-3.37,5.36,0,5.18,15.5-.85,13.07-27.88-1.31-27.14-14.84.75-13.15,26.13.71,26.4a1.51,1.51,0,0,0,.75-2.79Z"/>
        <path d="M554.86,258.84c-6-1.63-11.27-15.2-2.55-16.81,9.62-1.76,11.09,15.23.54,13.51-3.18-.52-4.53,3.88-1.35,4.9,6.57,2.1,13.26-2.82,14.06-9.49s-4.28-13.63-11.26-14.12c-15.82-1.09-14,24.33.18,24.79a1.42,1.42,0,0,0,.38-2.78Z"/>
        <path d="M573.81,238.39c-.62,6.2,1.61,13,2.34,19.17q.52,4.37.88,8.73a18.06,18.06,0,0,0,.32,3.68c.42,1.42.32,1.87.7,0l3.51-2-.32-.1,2,3.51.08-.24c1.12-3.52-4.34-5-5.5-1.52l-.08.24a2.91,2.91,0,0,0,2,3.51l.32.11a2.89,2.89,0,0,0,3.52-2c.35-1.63-.39-2.69-.79-4.23-.77-3-.7-6.4-1.16-9.45-1-6.47-1.57-14.55-5.11-20.15a1.46,1.46,0,0,0-2.69.73Z"/>
        <path d="M577.52,243.36c4.08-4.9,12.34-5.54,15.49.84,1.44,2.93,1.12,5.8-1.74,7.64s-7.61,4-9.87.63c-1.57-2.37-5.86-.94-4.83,2,2.12,6.16,8.94,6.14,14.06,3.87,5.32-2.36,9.35-6,8.45-12.31-1.74-12.1-17.94-15.17-23.79-4.43-.73,1.35,1.16,3,2.23,1.72Z"/>
        <path d="M609.48,249.71a118.69,118.69,0,0,0,12.89-1.29,2.74,2.74,0,0,0,2.48-1.89c1.92-4.84-1.38-10.5-6.39-11.62-5.8-1.31-11.35,3-12.77,8.52s.45,12.57,5.4,15.69c4.14,2.61,10.95,2.58,14.21-1.47,1.58-2-.39-5.18-2.86-3.71-2.21,1.31-4.22,2.37-6.85,1.66-3.26-.87-4.9-4.29-5.2-7.44s1.06-7,4.49-8c3.24-.91,6.08,1.68,5,5l1.79-1.79A114.19,114.19,0,0,0,609,246.12a1.84,1.84,0,0,0,.48,3.59Z"/>
        <path d="M639.4,257.46c-.59-3.45-2.16-6.64-1.87-10.23.25-3,2.19-6.63,5.58-6.54,6.8.2,6.46,12.72,7.54,17.33.62,2.65,5.09,2.15,4.83-.65-.7-7.61-2.7-23.74-14.08-21.49-10.56,2.1-9.49,15.91-5.2,22.92a1.76,1.76,0,0,0,3.2-1.34Z"/>
        <path d="M682.59,221.41c-.58,7.13.3,14.51.69,21.64.29,5.41-.37,12.23,1.49,17.37,2.7,7.47,14,3.75,11-3.75a2.41,2.41,0,0,0-4.65,1.28c-1.3,1.05-1.89,1-1.79-.28a22.08,22.08,0,0,1-.27-2.81c-.12-1.31-.22-2.63-.34-3.94-.32-3.61-.65-7.21-1-10.82-.63-6.32-.87-12.87-2.34-19.06-.39-1.65-2.67-1.15-2.8.37Z"/>
        <path d="M678,241.87c2.21,1.19,4.95,1,7.39.8a24.35,24.35,0,0,0,7.71-1.62c2.73-1.21.73-5.3-2-4.66-2.15.51-4.14,1.4-6.35,1.77s-4.39.1-6.4.86a1.58,1.58,0,0,0-.38,2.85Z"/>
        <path d="M701.58,221.55c-1.2,7.23-1,14.69-.87,22,0,3.91.11,7.84.32,11.75.1,1.75-.1,3.52,1.38,4.72a2.68,2.68,0,0,0,4.13-.53l.24-.33c.88-1.21.11-2.8-.94-3.56l-.24-.17c-2.37-1.72-5.31,2.11-3.13,4.06l.22.2V256l-.28.3h3.72c-.68-.68-.09-6.53-.14-7.86-.13-2.94-.22-5.88-.31-8.81-.19-5.88,0-11.8-.74-17.64-.22-1.7-3-2.54-3.36-.45Z"/>
        <path d="M704.38,244.79c3.42-3.26,10-8.37,12.68-1.68,2,5,2.43,10.18,2.35,15.51,0,3.55,5.23,3.48,5.47,0,.46-6.73-.87-18-6.87-22.39-5.43-3.94-12.63,2.19-15.87,6.33-1.22,1.56.72,3.68,2.24,2.23Z"/>
        <path d="M734.59,249.55c3.62.59,9.48.57,12.79-1.2,2.72-1.44,2.87-5.35,2-7.93-2.49-7.21-11.82-7.16-16.46-2.21-4.87,5.2-5.07,15.08.16,20.12,3.57,3.43,14.6,6.51,16.23-.45.76-3.26-4.28-4.66-5-1.38-.35,1.54-6.25-1-6.81-1.37-2.48-1.79-3.2-5-3-7.9.24-2.62,1.48-5.54,4-6.77,3.91-2,7.11,1.19,5.72,5.07l1.67-1.66c-3.67,1.48-7.42,2-11.24,2.84-1.36.31-1.46,2.61,0,2.84Z"/>
        <path d="M1143.24,258.37c-6-5.52-.63-14.7-5.28-21.16-3.91-5.43-11-3.54-15.33.19-2.47,2.14.86,6.58,3.54,4.59,2.92-2.17,7.35-4.2,9.16.53,1.21,3.14.32,6.79.73,10.07.46,3.73,2,7,5.61,8.49,1.52.64,2.71-1.68,1.57-2.71Z"/>
        <path d="M1139.81,248a10.89,10.89,0,0,0-10.49-2c-3.93,1.13-7.9,3.89-8.57,8.18-.63,4.12,2.09,7.34,6.06,8.1a13.41,13.41,0,0,0,11.58-3.54c2.41-2.22-1.17-5.76-3.59-3.59a8.6,8.6,0,0,1-5.62,2.38c-2.52.07-4.69-1.47-3.06-4.06,1.94-3,8.72-5.12,11.82-3,1.43,1,3.25-1.33,1.87-2.42Z"/>
        <path d="M1149.63,239.75a103.83,103.83,0,0,0-.5,20.48c.24,3.87,6,3.95,6.07,0l0-1.25c0-3.22-5.21-4.12-5.78-.78l-.21,1.23,6,.8c-.38-6.78-.81-13.76-1.8-20.48-.28-1.86-3.51-1.88-3.77,0Z"/>
        <path d="M1152.23,232.33l.13-.08.54-.42-1,.56-.54.07-1.11-.32.08,0a1.93,1.93,0,0,0,1,.31,1.23,1.23,0,0,0,.71,0c.46-.06.47-.06,0,0s-.41.05,0,0a1.25,1.25,0,0,0,.63-.18,2.76,2.76,0,0,0,1.26-1.08,2.71,2.71,0,0,0-.42-3.23,3.08,3.08,0,0,0-3.09-.77,3.72,3.72,0,0,0-1.37.8,2.92,2.92,0,0,0-.85,2,2.63,2.63,0,0,0,3.93,2.26Z"/>
        <path d="M1170,260.47c-.27-3.18-1.94-6-2.2-9.19-.28-3.36.91-8.37,5.15-8.26,7.34.21,4.86,13.23,5.66,17.93.42,2.49,4.65,2.51,5.06,0,1.27-7.87.2-25.32-12-23.29-11.11,1.86-10.46,17.33-4.29,23.89a1.54,1.54,0,0,0,2.6-1.08Z"/>
        <path d="M1201.17,256.05a4.63,4.63,0,0,0-2.86-1.09,2.7,2.7,0,0,0-2.59,3.4c.09.21.17.43.26.64a4.72,4.72,0,0,0,.81,1.37,2.5,2.5,0,0,0,4.17-1.1,5.24,5.24,0,0,0,0-1.63l-5,1.36a3.62,3.62,0,0,0,2.14,1.52,3.12,3.12,0,0,0,3-.76,2.65,2.65,0,0,0,0-3.71Z"/>
        <path d="M1228,230.14c3.35,1.74,7.33.88,11,.65,4.15-.25,8.73,0,12.7-1.31,2.39-.77,2.91-4.91,0-5.38-4.43-.72-9.13.23-13.55.79-3.63.46-7.57.47-10.46,2.87a1.53,1.53,0,0,0,.31,2.38Z"/>
        <path d="M1235.75,227.32c-.47,10.71,1.13,21.83,2.63,32.42.48,3.36,5.48,2.85,6.3,0l.42-1.46c1.16-4-4.85-5.59-6.21-1.71l-.51,1.43h6.3c-1.68-10.37-2.63-21-4.75-31.24-.5-2.44-4.08-1.75-4.18.56Z"/>
        <path d="M1260.09,227.35c.52,9.94,0,20.21,1.14,30.07a2.5,2.5,0,0,0,5,0c1-9.89-1-20.8-3-30.5-.37-1.78-3.28-1.39-3.18.43Z"/>
        <path d="M1264.17,245.43a12.16,12.16,0,0,1,5.75-4.53c3.65-1.32,3.7-.13,4.57,3.09a50.54,50.54,0,0,1,1.59,14.64c-.09,3.38,5.07,3.35,5.23,0a47.47,47.47,0,0,0-1-12.41c-.61-2.84-1.39-7.83-4-9.64-4.92-3.44-12.25,3.64-14.52,7.45-.93,1.56,1.38,2.83,2.39,1.4Z"/>
        <path d="M1289.59,240.56a91,91,0,0,0,2,18.18c.66,3,5.06,2.19,5.14-.69a44.57,44.57,0,0,0-3.8-18.39c-.76-1.67-3.35-.76-3.34.9Z"/>
        <path d="M1292.75,228.23a2.09,2.09,0,0,0-.5-.64l.45.77,0-.16a2,2,0,0,0-1.38-1.38,2.91,2.91,0,0,0-3.48,4.08,3.14,3.14,0,0,0,5.34.14,2.14,2.14,0,0,0-3.36-2.58q-.24.25.27-.12a.92.92,0,0,1,.69-.23c.52,0,.72.24,1,.65a.78.78,0,0,1,.36.87,1,1,0,0,1-.12.7l-.19.25c-.71.31-.89.43-.53.37a2.08,2.08,0,0,0,1.27-1,2.14,2.14,0,0,0,.25-1.36,2.1,2.1,0,0,0-2.09-1.84,2.89,2.89,0,0,0-2.42,1.39,2.83,2.83,0,0,0,0,2.83,2.88,2.88,0,0,0,4.54.49l-3.35-2.59a1.52,1.52,0,0,1,.51-.5c.37-.13.46-.17.25-.11.41,0,.51-.06.28-.06l.38.05c-.21-.06-.13,0,.23.11-.18-.11-.11,0,.2.17a1.39,1.39,0,0,1,.38,1.19,1.08,1.08,0,0,1-.18.52c-.25.3-.3.37-.15.22-.47.44-.22.22-.07.1s0,0-.28.11c.21-.05.12-.05-.25,0a2.45,2.45,0,0,0,1.49-.66l-2.11.27c.28.13-.26-.28-.05,0a1.69,1.69,0,0,0,2.22.14,1.71,1.71,0,0,0,.44-2.18Z"/>
        <path d="M1319.08,238.1c-5.26-6.11-16.76-2.67-15.15,6.24.77,4.31,4.45,4.87,8.08,5.42,2.51.38,4.76,1.76,3.52,4.65-1.51,3.48-5.91,2-7.9,0-2.32-2.33-5.88,1.24-3.61,3.6,5,5.23,15.5,4.75,16.7-3.67a8.39,8.39,0,0,0-3.39-8.26,10.81,10.81,0,0,0-4.75-1.32c-2.23-.27-3.9-.91-2.88-3.43,1.18-2.91,5.19-2.81,7.31-1.14a1.46,1.46,0,0,0,2.07-2.07Z"/>
        <path d="M1351.26,258c.28.11-.45-3.89-.52-4.39a20.2,20.2,0,0,1,.13-7.19c1-4.36,4.36-7,8.64-4.86,2.83,1.41,5.91-2.12,3.49-4.53-5.27-5.23-13.66-1.44-16.4,4.53a16.53,16.53,0,0,0-1.08,9.77c.47,2.71,1.09,8.28,4,9.64a1.73,1.73,0,0,0,1.73,0l.39-.27a1.5,1.5,0,0,0-.35-2.7Z"/>
        <path d="M1372.41,248.66c4.52,0,9.08,0,13.59-.44a2.27,2.27,0,0,0,2.14-2.8,9.33,9.33,0,0,0-9.12-8c-5.13,0-8.56,4-9.37,8.8s-.11,10.3,4.16,13.19,10.27,2.31,14.31-.69c1.79-1.32.81-5-1.68-4-5.41,2.23-12,3.18-12.35-4.73-.12-2.88.36-6.61,3.52-7.72s5.7,1.29,6.26,4.26l1.54-2.72a105.31,105.31,0,0,1-13,1.69c-2,.1-2,3.12,0,3.1Z"/>
        <path d="M1396.87,237.89c.26,5.69.52,11.36.69,17.06s-.45,11.51.12,17.13c.23,2.29,3.8,3.23,4.35.59,2.31-11,.46-24.31-2.11-35.19a1.56,1.56,0,0,0-3.05.41Z"/>
        <path d="M1401.19,241.66c3.82-4.76,12.21-3.87,13.41,2.71,1.22,6.74-5.83,9.91-11.14,7-2.87-1.57-5,2.39-2.5,4.26,3.76,2.84,9.41,2.56,13.3.16a11.64,11.64,0,0,0,5.11-12.33c-2.06-10.42-15.16-12.34-21.08-4-1.2,1.69,1.59,3.87,2.9,2.23Z"/>
        <path d="M1439.75,257.92c-3.75-.64-7.15-3.22-7.94-7.09-.63-3.06.88-7.66,3.79-9.22,7-3.74,15.48,15.14,2,14.55-2.58-.11-2.61,3.32-.56,4.16,6.5,2.66,13.58-2.58,13.57-9.48,0-6.2-6.38-14.18-13-13.83a12.47,12.47,0,0,0-11.51,12.36c.15,6.87,6.72,11.83,13.26,11.16,1.36-.14,2-2.34.36-2.61Z"/>
        <path d="M1463.84,259c1.35-3-.59-5.25-1.27-8.24a11.93,11.93,0,0,1-.12-6c.11-.38,3-5.55,3.57-4.12,1.37,3.73,7.37,2.16,6-1.66-2.69-7.62-11.41-4.48-14.18,1.36A16.07,16.07,0,0,0,1457,250c.62,3.3,1.78,8.5,5.34,9.59a1.31,1.31,0,0,0,1.48-.6Z"/>
        <path d="M1480.4,224.2c-.08,6.31.24,12.59-.27,18.9-.37,4.5-1.62,9.46.34,13.78a9.39,9.39,0,0,0,7.29,5.39c4.11.59,6.72-.88,8.14-4.61,1.29-3.38-4.2-4.9-5.44-1.5-.89,2.43-4.15-.32-4.75-1-1.41-1.58-1.46-3.21-1.52-5.21-.09-2.9.27-5.86.34-8.76a90.81,90.81,0,0,0-.91-17.44c-.32-1.87-3.2-1.36-3.22.43Z"/>
        <path d="M1477.54,244c4.69-.85,9.36-2,14.16-1.74,4.44.2,3.6-7.35-.81-6-4.77,1.42-9.72,2.29-14.34,4.2a1.86,1.86,0,0,0,1,3.58Z"/>
        <path d="M341,293.76c-5.58,5.31-9.6,16.37-3.12,22.66a8.21,8.21,0,0,0,9.08,1.77c4.13-1.86,5.56-6.29,6.46-10.37l-5.13.67c4.09,6,14.51,14.83,21.15,7,5.64-6.66,2.58-17.48-3.23-22.84-1.78-1.65-5.1-.57-5,2.07l.05,1.5c.14,3.69,5.32,3.58,5.66,0l.15-1.5-5,2.07c3,2.84,5.64,7.72,4.21,12-2.77,8.33-10.56.59-13.15-3.13-1.26-1.82-4.59-1.88-5.12.67-.3,1.42-.6,3.71-1.44,4.89-3.91,5.46-6.75-.93-7-3.81a15.36,15.36,0,0,1,4-11.07c1.5-1.77-.86-4.23-2.58-2.58Z"/>
        <path d="M381.41,295.28c-.1,4.47.35,8.94.53,13.41.11,2.62-.64,6.92,2.32,8.28a3.08,3.08,0,0,0,4.1-1.07l.12-.19a3,3,0,0,0,0-3l-.11-.22a2.89,2.89,0,0,0-3.23-1.31l-.15.06a2.83,2.83,0,0,0,0,5.4l.15,0-2-3.51,0,.24,1.35-1.75-.21.09,3.63.47-.27-.34.91,2.19c-.76-6.42-1.53-13.08-2.9-19.4-.53-2.43-4.17-1.8-4.22.57Z"/>
        <path d="M385,283l.28.21.62,1.08a3.68,3.68,0,0,0-1.06-1.85,2.9,2.9,0,0,0-4.81,1.27c-.08.37-.18.73-.24,1.09a5.38,5.38,0,0,0,.07,2.26,2.77,2.77,0,0,0,5,.65,5,5,0,0,0,.7-2.12c0-.37.07-.74.11-1.11l-4.92,2a3.59,3.59,0,0,0,2,1,1.37,1.37,0,0,0,.75,0,2.13,2.13,0,0,0,1.05-.33l-.25.05.68-.28a2.25,2.25,0,0,0,1.13-2,2.44,2.44,0,0,0-1.13-2Z"/>
        <path d="M396.76,281.67c-2.17,7.45-1.13,17.06-1,24.8.1,5.2,1.58,10.79,7.75,11,3,.09,3.67-4.55.72-5.29-4.52-1.14-3.07-12.61-3.19-16-.16-4.73.18-9.94-1.26-14.48a1.59,1.59,0,0,0-3,0Z"/>
        <path d="M411.55,282.09c-1.06,8.51-.68,17.42,0,26,.41,5.28,1.2,11.8,7.91,11.68,3.8-.07,3.81-5.86,0-5.92s-3.89-28.23-4.22-31.71a1.85,1.85,0,0,0-3.69,0Z"/>
        <path d="M442.35,281.67c-1.52,5.23-.48,11.37-.24,16.75l.81,18.23c.21,4.69,7.41,3.82,6.4-.87l-.34-1.54c-.63-2.91-4.51-2.39-5.38,0l-.56,1.54,6.39.87q-.8-9.6-1.59-19.19c-.44-5.3-.28-11.26-2.42-16.19-.6-1.4-2.7-.87-3.07.4Z"/>
        <path d="M448.19,302.25c1.14-2.21,4.22-5,7-3.61,2.06,1,3.17,4.68,3.4,6.72.6,5.32-4.31,9.91-8.42,5.09-1.8-2.12-5.8.13-4.78,2.78a9.3,9.3,0,0,0,12.47,4.95c5.14-2.17,7.49-7.92,6.85-13.23-.56-4.58-3.34-10.55-8.37-11.6-4.79-1-10.16,3-11.36,7.54-.5,1.88,2.28,3.18,3.21,1.36Z"/>
        <path d="M475,309.13c4.48-.25,9.69.48,14-.48,3.11-.69,4.53-3.24,4.06-6.33a10.66,10.66,0,0,0-15.82-7.56c-6.29,3.6-7.81,13.74-3.62,19.4,3.83,5.18,13.87,8.32,19.6,5,3.05-1.74.37-6.16-2.72-4.66-2.88,1.41-8.15-.21-10.67-2-3.46-2.4-3.92-7.5-1.66-11a5,5,0,0,1,6.48-1.9c.91.46,3.11,2.4,2.44,3.67-.33.61-4.52.87-5.25,1-2.29.38-4.59.68-6.89,1s-2.49,3.93,0,3.79Z"/>
        <path d="M529.35,297.66c-3.42-7.22-14-3.11-13,4.46.59,4.16,3.73,5.88,7.51,6.62,3.14.62,5.4,2.83,3.88,6.15s-5.29,2.68-6.76-.29c-1.25-2.51-5-.71-4.4,1.85,1.95,8.17,13.36,7.25,16.11.16,1.35-3.48.92-8.15-2-10.81-1.57-1.46-3.48-1.68-5.47-2.2-1.67-.43-4-.73-3.37-3.11.58-2.15,3.16-1.78,4.56-.63a1.83,1.83,0,0,0,2.86-2.2Z"/>
        <path d="M547.48,307c4.65.21,8.89-.69,13.44-1.44a2.36,2.36,0,0,0,1.62-2.85c-2.14-10.86-20.77-8.84-22.36,1.42s10.16,17.54,19.29,14.33c2.9-1,1.62-5.71-1.28-4.63-5.12,1.89-11.89-.35-13.33-6.1-.84-3.34.5-6,3.83-7s8.51-1.06,9.38,3.19l1.06-2.62c-3.58,1.57-7.8,2.07-11.65,2.52a1.58,1.58,0,0,0,0,3.16Z"/>
        <path d="M574.82,316.24c-1.07-4.83-3.54-16.72,4.4-17.6,7.7-.87,5.51,14.27,5,18.61-.37,3.15,4.66,3.69,5.45.74,2.11-8,1.22-25.78-10.8-24.59-12.21,1.21-10.41,15.78-7.48,23.79a1.78,1.78,0,0,0,3.43-.95Z"/>
        <path d="M603.1,282.51c.24,10.12-3.11,20.81.56,30.62,1,2.77,2.75,5.9,5.74,6.94s6-.14,7.09-3.15c.68-1.84-1.66-3.38-3.2-2.46-5.95,3.52-6.42-13-6.41-15.85,0-5.56.27-11-.86-16.5-.35-1.64-3-1.26-2.92.4Z"/>
        <path d="M599.2,299.38c2.15,0,4.29-.07,6.44-.17s4.33.12,6.44-.06c3.3-.29,3.35-5.45,0-5.2-2.31.17-4.6.76-6.93,1q-3.23.36-6.43.87c-2,.32-1.5,3.54.48,3.53Z"/>
        <path d="M638.86,283c-1.56,5.69-1.43,12-1.77,17.89-.26,4.59-1,9.76,1.11,14.06,3,6.16,12.66,8.35,15,.57.77-2.49-3-4.11-4.23-1.78l-4,1.59a5,5,0,0,1-2.07-2.72,11.58,11.58,0,0,1-.76-4c-.15-2.88.18-5.83.31-8.7.23-5.57.87-11.4-.05-16.92-.32-1.85-3.09-1.63-3.55,0Z"/>
        <path d="M633.33,297.56c1.94,1.71,4.56,1.51,7,1.52a36.44,36.44,0,0,0,8.73-.62c3-.73,2.3-5.25-.71-5.28-2.66,0-5.35.52-8,.66-2.25.13-4.84-.26-6.72,1.14a1.66,1.66,0,0,0-.33,2.58Z"/>
        <path d="M666.75,315c-7.73-2.57-9-20.18,1.42-17a8.44,8.44,0,0,1,5.8,8.47c-.07,5-3.16,6.52-7.67,7-3,.3-3.14,4.82,0,4.79,7.23-.06,12.39-3.39,12.89-11.09.47-7-4.29-13.58-11.39-14.48-16-2-15.69,25.62-1.49,25.64a1.68,1.68,0,0,0,.44-3.28Z"/>
        <g>
          <path d="M859.15,299.48a6.85,6.85,0,0,1,9.31-.8c2.07,1.77,2.36,4.72,2.53,7.25.28,4.2.28,8.39,2.9,11.92,1.91,2.56,6.25.19,4.39-2.57-4.2-6.2.1-14.76-6-20.36-5.21-4.74-12-2.8-15.76,2.49-1.12,1.59,1.38,3.48,2.68,2.07Z"/>
          <path d="M873.2,305.87c-3.81-2.18-8.25-3.95-12.52-1.89a7.69,7.69,0,0,0-4.44,8.93c2.46,9,14.06,7.77,19,1.77a2.38,2.38,0,0,0-3.37-3.37c-2.49,2.07-8.68,5.84-10.41.58s8.32-3.52,10.55-3.08c1.72.34,2.91-2,1.24-2.94Z"/>
          <path d="M888.32,293.55c-2,5.9-4,13-1.3,19a9.73,9.73,0,0,0,10.41,6.07c12.89-1.91,11-18.75,3.56-25.58a1.87,1.87,0,0,0-2.92,2.25c1.63,3.09,3.75,6,3.87,9.66s-1.67,7.82-5.55,8.61c-9.41,1.92-6.37-14.46-5.58-19.35a1.29,1.29,0,0,0-2.49-.69Z"/>
          <path d="M917.64,282.56c-1,5.3-1,10.73-1.16,16.1-.17,4.81-1.2,10.46.41,15.11,1.94,5.59,8.92,7.84,12.73,2.79,1.81-2.41-2.24-4.73-4-2.36-1.4,1.85-4-1.26-4.48-2.35a11.26,11.26,0,0,1-.42-3.85c-.09-2.77.15-5.59.23-8.36.16-5.52.6-11.14-.06-16.64-.19-1.66-2.85-2.43-3.22-.44Z"/>
          <path d="M913.64,296.43c2.05-.09,4.1-.2,6.15-.16s4,.69,5.9.1c2.33-.72,2-3.59,0-4.43s-4.32-.17-6.34,0a53.72,53.72,0,0,0-6.2.85c-2,.42-1.59,3.74.49,3.65Z"/>
          <path d="M945.83,315.69c-3.88-.43-4.65-7-4.76-10.17-.14-3.72,1.52-8.76,6.12-5.53,2.41,1.69,4.5,5.76,4.9,8.62.66,4.77-3.7,5.45-7.37,6.06-3.41.56-2,5.75,1.44,5.19,7-1.14,12.91-5,11-12.93-1.47-6.13-6.58-14.12-13.84-13.18-6.91.89-8,8.85-7.22,14.43.61,4.62,4.45,16.43,11.06,10.77,1.4-1.19.12-3.1-1.35-3.26Z"/>
          <path d="M973.79,317c-1.71-4.47-4-16.15,3.06-16.68,2.48-.18,2.61.16,3.57,2.25a14.73,14.73,0,0,1,1,3.49,46.65,46.65,0,0,1,.16,10.23h5.56c-.39-4.25-2.75-19.65,5.67-17.05,7.31,2.26,5.21,12.46,4.36,17.84-.54,3.41,4.5,5,5.31,1.46,2-8.68,2.18-23.16-9.61-24.63-12.89-1.61-11.14,14.25-11.29,22.38-.06,3.08,4.78,3.85,5.46.74,1.59-7.34.32-24.5-11.18-22.58-10.69,1.79-9.4,17.19-5.67,24.06,1,1.9,4.37.6,3.57-1.51Z"/>
          <path d="M1015.85,298.22c2.07-1.86,5.07-3.08,7.51-1,1.94,1.7,2,4.43,2.06,6.8.09,4.15-.25,8.4.49,12.49.47,2.6,4.92,2.67,5.33,0a64.81,64.81,0,0,0,.17-13.14c-.18-3.3-.72-6.84-3.1-9.34a9.85,9.85,0,0,0-15.58,1.74,2,2,0,0,0,3.12,2.4Z"/>
          <path d="M1026.57,303.86c-4.46-1.2-9.57-2-13.64.79a9.15,9.15,0,0,0-3.49,11.17c3.25,7.44,17.93,6.74,20.07-1.27.94-3.53-4.21-4.86-5.41-1.49-1,2.9-9,2.83-9.63-.21-1.25-5.67,7.85-6.21,11.17-5.62,2.17.38,3.14-2.78.93-3.37Z"/>
          <path d="M1041.46,283c-.64,5.38-1,10.77-1.27,16.18-.18,4.4-1,10,1.1,14.08,2.71,5.25,10.43,6.12,12.28-.24.92-3.18-3.93-4.48-4.93-1.36q-3.87.32-3.12-4c0-1.25,0-2.49,0-3.74,0-2.22,0-4.44-.1-6.66-.14-4.77-.43-9.53-.91-14.28a1.54,1.54,0,0,0-3.07,0Z"/>
          <path d="M1036.93,296.69a36.13,36.13,0,0,0,10.93,1.38c3.36-.21,3.43-5.2,0-5.27-1.73,0-3.48.25-5.23.25s-3.46-.09-5.2-.1a1.91,1.91,0,0,0-.5,3.74Z"/>
          <path d="M1060.14,296.43a174.94,174.94,0,0,0-.22,17.89c.08,3.68,5.23,3.52,5.61,0a51,51,0,0,0-1.25-18.46c-.67-2.38-3.94-1.74-4.14.57Z"/>
          <path d="M1062.28,289.2a3.22,3.22,0,1,0-3.22-3.22,3.26,3.26,0,0,0,3.22,3.22Z"/>
          <path d="M1092.1,295c-2.18-4-7.44-4.62-11.15-2.35-4.59,2.8-6.22,9.48-6.36,14.5s2.08,10.12,7.14,11.66c4.25,1.3,9.45-.1,11.73-4.08a2.79,2.79,0,0,0-4.37-3.37c-4.08,4-8.64,1.23-8.47-4.21.09-3,3.25-14.92,8.09-9.54,1.68,1.87,4.55-.51,3.39-2.61Z"/>
          <path d="M1104.87,297.58c1.77-3.17,7.65,0,8.79,2,1.45,2.55,1.32,5.81,1.39,8.63s-.45,8.83,2.9,10.26a2.75,2.75,0,0,0,3.65-.95l.24-.41a2.6,2.6,0,0,0-.4-3.1l-.3-.23a2.48,2.48,0,0,0-3.88,3l.16.34.92-3.5-.39.26,3.23.41c.92.87-.29-2.07-.35-2.87-.12-1.33-.08-2.67-.11-4a34.62,34.62,0,0,0-.5-5.84c-.65-3.26-2.22-6.65-5.06-8.58-4-2.7-15.6-3.21-14.3,4.05.33,1.89,3.14,2.08,4,.52Z"/>
          <path d="M1118.19,305.11c-6.29-4.09-19.13-.95-18.66,8.09s14.54,7.14,18.77,2.5c1.58-1.74.07-5.13-2.46-4.23-2.13.75-4,2-6.24,2.42-.94.16-4.08.47-4.39-1-.45-2.13,3.79-3.79,5.15-4.21a14.15,14.15,0,0,1,6.47-.3,1.78,1.78,0,0,0,1.36-3.25Z"/>
          <path d="M1127.33,282.5a118.17,118.17,0,0,0,.72,29.47c.88,5.24,6,10.52,11,6.14,2-1.73-.13-5-2.53-4.34-4,1.14-3.84-13.52-4-15.68-.4-5.2-.53-10.42-1.14-15.59a2.05,2.05,0,0,0-4.1,0Z"/>
          <path d="M1142.57,281.52c-1.59,4.12-1.11,9.16-1.13,13.53a120.26,120.26,0,0,0,.84,15.76c.65,5.11,4.64,12.39,10.39,7.34,2.49-2.2-.69-5.32-3.26-4.22-1,.4-2.14-15.4-2.21-17-.21-5,.59-10.69-1.07-15.39a1.86,1.86,0,0,0-3.56,0Z"/>
          <path d="M1157.24,295.39c-.88,6.23-.91,13.78,3.89,18.53a10.56,10.56,0,0,0,14.91.17c2.55-2.61-1.47-6.63-4-4-2.88,3-6.84.74-8.76-2.15-2.44-3.67-2.36-7.89-2.79-12.1-.17-1.68-3-2.43-3.24-.44Z"/>
          <path d="M1172.7,295.93c-2.22,6-2,12.82-1.49,19.09.23,2.61,1.11,5.69.29,8.27-1.49,4.65-6.25,5.33-10.24,3.67-3.08-1.28-5.17,3.83-2.27,5.37,6.63,3.51,15.15,1.22,17.91-6.17,1.42-3.82.5-7.63-.05-11.52-.85-6.1-.21-12.13-.64-18.24a1.8,1.8,0,0,0-3.51-.47Z"/>
          <path d="M1188.79,317.54c-.43,1.19.16-.5.13-.26,0-.36-.26.49-.06.18a1.86,1.86,0,0,1-2.45.65,1.81,1.81,0,0,1-.8-1.92l3.67-1.49c-.38-.19-.19,0,.57.61a1.53,1.53,0,0,1,.24.84,2.47,2.47,0,0,0-.09-1,2.43,2.43,0,0,0-3-1.7,3.19,3.19,0,0,0-1.64,1.27,2.92,2.92,0,0,0-.26,2.24,3.29,3.29,0,0,0,2.25,2.27,2.51,2.51,0,0,0,3.07-1.74,3.31,3.31,0,0,0-.82-3.12,3.19,3.19,0,0,0-3.14-.84,3,3,0,0,0-2.13,2.45,2.62,2.62,0,0,0,1.32,2.8,2.17,2.17,0,0,0,3.13-1.27Z"/>
        </g>
        <path d="M778.43,241.31c4-2.53,8.55-1.66,11,2.57s1.81,9.75,1.47,14.51c-.26,3.72,5.33,3.6,5.72,0,.83-7.47.88-16.19-5.47-21.45-4.46-3.69-12.46-4.05-15.14,1.93-.67,1.5.79,3.49,2.45,2.44Z"/>
        <path d="M793.53,247.72c-4-1.61-9.19-2.57-13.14-.36a9.47,9.47,0,0,0-5,8.36c.45,9.21,12.57,8.83,18.36,5.53,2.51-1.44.77-5.08-1.91-4.52-2.24.47-4.37,1.65-6.73,1.54-1.76-.08-4.37-1.12-4-3.34.91-4.89,8.63-3.58,11.92-3.51,2.28.05,2.36-3,.5-3.7Z"/>
        <path d="M803.37,237.48c1.14,10.68.75,21.77,2.38,32.35.36,2.28,4.34,2.32,4.66,0,1.46-10.65-.76-22.48-3-32.89-.48-2.22-4.27-1.78-4,.54Z"/>
        <path d="M806.91,241.45c3.29-1.55,7.63-2.91,11.28-1.66,3.35,1.14,4.11,5.53,3.72,8.61-.79,6.31-7.52,9.3-11.84,4.19-1.84-2.18-5,.59-3.79,2.92,2.15,4.11,7.34,5.53,11.65,4.5,5-1.19,8.22-5.66,8.92-10.6.66-4.56-.63-10.61-4.84-13.19-5-3.08-12.46-1.1-16.9,2.14a1.79,1.79,0,0,0,1.8,3.09Z"/>
        <path d="M837,237.44c-.77,10.61.3,21.6,1.3,32.17.34,3.52,5.5,3.66,5.59,0l.06-2.75c.08-3.51-5-3.37-5.37,0l-.28,2.75h5.59c-1.09-10.86-1.45-21.9-2.94-32.7-.33-2.37-3.8-1.58-3.95.53Z"/>
        <path d="M841.71,242.44c3.83-4.28,9-1.19,10.2,3.64a11.33,11.33,0,0,1-.5,7.38c-1.14,2.46-4.58,4.79-6.67,1.74-1.83-2.66-5.92-.35-4.37,2.55,2.14,4,7.53,5.09,11.43,3,5-2.66,6.34-9,5.58-14.19-.69-4.7-3.47-9.57-8.4-10.74-4.07-.95-8.79.78-10,5.05-.41,1.49,1.6,2.79,2.69,1.57Z"/>
        <path d="M865.12,224.55c-1.41,9.1-2,19.32.3,28.34,1.43,5.76,7,10.07,12.32,5.73,2.42-2-.71-5.89-3.32-4.29-4.2,2.57-4.86-12.38-5-13.77-.43-5.16-.56-10.32-.56-15.5,0-2.08-3.42-2.7-3.76-.51Z"/>
        <path d="M881.93,239.72a89.85,89.85,0,0,0-.11,11.13c.13,3,.08,5.77,1.43,8.51v-2.92l-.14.24,2.39-1.37-.31,0,2.24,3.91.07-.11a2.55,2.55,0,0,0-2.18-3.79h-.13c-2.06-.13-3.1,2.28-2.24,3.91l.16.29a2.84,2.84,0,0,0,3.13,1.28l.28-.06a2.92,2.92,0,0,0,2-3.56c-1.32-5.88-1.51-12-3-17.91-.53-2.13-3.49-1.5-3.65.5Z"/>
        <path d="M885.56,231.5l.13-.2a2.93,2.93,0,0,0-1.05-4l-.15-.09a2.93,2.93,0,0,0-3.47.45,3,3,0,0,0-.45,3.47l.09.15a2.93,2.93,0,0,0,4,1,2.77,2.77,0,0,0,.92-.85Z"/>
        <path d="M916.05,237.48c-1.81-4-6.71-5.07-10.55-3.48-4.42,1.84-6.81,6.7-7.43,11.21-.69,5.06.68,10.58,4.83,13.85a11.4,11.4,0,0,0,13.3.9c2.87-1.91.36-6.3-2.71-4.64-5.8,3.14-10.31-2.72-10.09-8.21.18-4.69,4.46-11.8,9.7-7.36a1.89,1.89,0,0,0,2.95-2.27Z"/>
        <path d="M925.67,239c4.74-2.35,9.34-.67,11.61,4.19s1.36,10.23.6,15.22c-.55,3.56,4.91,5.08,5.44,1.5,1.16-7.93,2.19-17.37-4.13-23.54-4.4-4.3-12.09-5.14-16.09.07-1.24,1.62,1.08,3.3,2.57,2.56Z"/>
        <path d="M940.57,246.69c-3.28-2.76-7.25-4.32-11.43-2.44a10.24,10.24,0,0,0-5.8,10c.55,9,12.1,12.54,17.5,5.29,1.73-2.32-2.11-5.27-4-3.1-2.86,3.26-8.31,1.91-8.26-2.8s6.51-7.16,10.19-4.55c1.38,1,3.13-1.26,1.82-2.36Z"/>
        <path d="M950.84,226.6a86.08,86.08,0,0,0-.38,15.89c.24,4.31.16,9.6,1.89,13.66,2.12,5,9.15,7.32,12.26,1.88,1.67-2.93-2.85-5.57-4.52-2.64-2.18,3.78-3.84-5.82-3.91-6.38-.3-2.48-.51-5-.7-7.46-.37-5-.47-10-.83-15a1.91,1.91,0,0,0-3.81,0Z"/>
        <path d="M946.81,238.53a48.91,48.91,0,0,1,13.67.13,2.75,2.75,0,1,0,.74-5.43,29.38,29.38,0,0,0-15.52,2.67c-1.62.7-.35,2.84,1.11,2.63Z"/>
        <path d="M971.22,236.21c-1.37,6.95-2.68,16.7.23,23.33.8,1.83,3.87,1.31,4.27-.56.72-3.46-.08-7.09-.32-10.61-.26-3.9-.38-7.8-.73-11.69-.16-1.83-3-2.56-3.45-.47Z"/>
        <path d="M968.83,226.87l-.29.45a3.21,3.21,0,0,0,.5,3.87,3.25,3.25,0,0,0,3.87.5l.44-.29a3.36,3.36,0,0,0,.67-5.19,3.41,3.41,0,0,0-2.34-1,3.36,3.36,0,0,0-2.85,1.63Z"/>
        <path d="M995.47,257.51c-2.75-2-3.8-4.8-4.35-8.12-.5-3-.91-9.34,4.16-7.67,7.43,2.44,5.67,12.65-.64,15-3.34,1.24-2,6.45,1.49,5.43A13.49,13.49,0,0,0,1006,249c-.14-6.14-4.84-12-11.19-12.43-13-.79-10.91,22.85-.22,24.13,1.91.23,2-2.34.87-3.22Z"/>
        <path d="M1019.06,257.88c-1.65-4.06-5.47-19.37,3.93-17.4,8.65,1.81,5.77,13.57,5.08,19.44-.33,2.81,4,3.11,4.74.65,2.92-9.1,2-25.87-11.33-25.37-4.68.18-8.23,4-9.32,8.32-1.46,5.89,1.6,10.57,4.31,15.45.76,1.36,3.2.43,2.59-1.09Z"/>
        <path d="M704.53,318.92c4.78-11,7.21-22.88,13.2-33.29l-5-.65c4.4,11,7.45,22.54,11.63,33.65,1.12,3,5.76,1.83,4.85-1.34-3.25-11.4-7.82-22.41-11.17-33.78a2.78,2.78,0,0,0-4.6-1.21c-3.73,3.83-5.32,9.14-6.91,14.13-2.19,6.9-4.37,13.76-5.88,20.84-.48,2.23,2.9,4,3.92,1.65Z"/>
        <path d="M706.1,309.39c2.71.75,5.65-.22,8.34-.76,3.2-.65,6.45-1.24,9.59-2.13,3.56-1,2.07-6.46-1.54-5.56-3.16.8-6.27,1.83-9.43,2.67-2.71.72-5.51,1.07-7.73,2.86a1.76,1.76,0,0,0,.77,2.92Z"/>
        <path d="M739.22,296.81c-1.67,5.15-.13,11.54.28,16.86.44,5.73.77,11.51,1.65,17.19.45,2.88,5.17,2.19,5.07-.68-.23-6.16-1.13-12.33-1.83-18.46-.56-4.89-.37-10.84-2.8-15.22a1.31,1.31,0,0,0-2.37.31Z"/>
        <path d="M742.87,300.52c4.77-4.06,14.08-3.68,15.23,3.71,1,6.6-6,10.21-11.32,7-3.06-1.86-5.73,2.82-2.79,4.77,9.08,6,21.31-1.72,19.57-12.47-1.88-11.69-15.76-12.91-23-5.32-1.5,1.56.74,3.72,2.35,2.34Z"/>
        <path d="M769.45,297.17c-.29,6,.44,11.9,1.1,17.83.61,5.51,1,11.13,2.12,16.55.61,2.9,5.23,2.24,5.14-.69-.17-5.95-1.23-11.94-2-17.84a105,105,0,0,0-2.94-16.32,1.76,1.76,0,0,0-3.45.47Z"/>
        <path d="M772.58,302.27c2.31-2.4,4.5-4.8,7.85-5.63,1.92-.47,4.2-.58,5.67,1.17.94,1.14,1.16,3.41,1.35,4.82.43,3.21.29,7.22-2.07,9.76a6.13,6.13,0,0,1-8.45.82c-2.43-1.81-5.53,2.22-3.25,4.22,4.09,3.61,10,3.25,14.17,0,4.76-3.71,5.69-10.2,4.8-15.83-.91-5.82-3.82-10.86-10.44-10.07-5.21.62-10.55,4.22-11.88,9.47a1.36,1.36,0,0,0,2.25,1.31Z"/>
        <path d="M801.57,284.4c-1.35,8.72.21,18.31,1.12,27,.46,4.46,2.49,11.95,8.58,8.39a2.54,2.54,0,0,0-1.27-4.7c-2.3,0-4.08-27.13-5.23-30.73-.45-1.41-2.93-1.73-3.2,0Z"/>
        <path d="M818.62,307.21c5.39.07,11-.74,16.36-1.08a2.49,2.49,0,0,0,2.36-3.1c-1.9-10.28-16.47-15.6-21.81-4.74-4.67,9.51,3.26,24.91,15,20a2.56,2.56,0,1,0-2-4.69c-7.26,3.14-10.84-7.34-8.8-12.63a6.19,6.19,0,0,1,8.41-3.17c2.58,1.21,3.88,3.84,4.45,6.48l1.71-3c-5.3,1-10.9,1.62-16.1,3a1.46,1.46,0,0,0,.39,2.86Z"/>
        <path d="M1065.53,240.27c4-.81,7.87-.49,9.43,3.81,1.09,3,.61,6.37,1,9.51.49,4.1,2.63,8.07,7.27,7.3,2.43-.41,1.74-4.11-.56-4.17-3.5-.09-2.89-8.6-3.11-10.9a15.54,15.54,0,0,0-1.88-6.64c-2.82-4.68-8.63-4.93-13.32-3.23a2.24,2.24,0,0,0,1.19,4.32Z"/>
        <path d="M1078.34,247.31a9.41,9.41,0,0,0-9.54-1.87c-2.93,1.16-6,4.28-6.29,7.55-.65,8.45,11.41,8.83,15.77,4a1.78,1.78,0,0,0-1.71-2.94c-1.92.29-3.51,1.47-5.43,1.79-2.1.34-5.77-.8-4-3.59a6.67,6.67,0,0,1,4.57-3c1.83-.17,3.69.66,5.55.62a1.56,1.56,0,0,0,1.09-2.63Z"/>
        <path d="M1094.09,253.46c-2.27,1.77-5.37,2.56-5.41,6,0,3.1,2.76,4.18,5.39,3.86,3.13-.39,13.65-4.5,14.15.73.35,3.68-4.65,4.72-7.34,4.81a12.44,12.44,0,0,1-7.69-1.93c-2.39-1.61-4.49,2.17-2.23,3.81,6.39,4.65,23.1,3.48,21.76-7.47-.54-4.35-4.16-6.36-8.24-6a58.75,58.75,0,0,0-8.32,1.5c-1.1.26-3.32,1.57-3.39,0,0-.5,2.81-2.9,3.26-3.41a1.37,1.37,0,0,0-1.94-1.93Z"/>
        <path d="M1107.87,239.52a5.15,5.15,0,0,1,2.37-.8,3.07,3.07,0,0,1,1,.15,1.07,1.07,0,0,1,.41.21q.28.19,0,.09l.56-2.1-.27.31c-1.57,1.79-.34,4.83,2.22,4.45s2.89-3.45,1-4.87a8,8,0,0,0-2-1.41,5.45,5.45,0,0,0-2.5-.28,6.37,6.37,0,0,0-4.6,2.42c-.85,1.2.74,2.33,1.83,1.83Z"/>
        <path d="M1099.91,252.37c-3.13-.88-5.82-2.46-5.53-6.24.24-3.16,3.53-6.53,6.77-6.44,3,.09,6.22,4,5.81,7-.48,3.5-4.62,4.47-7.55,5-1.65.28-1.69,3.13,0,3.37,5.19.75,11-3,11.29-8.54.23-5.26-4.42-11.36-10-10.92-5.15.4-10,5.47-10.29,10.57-.3,4.71,4.48,12.12,9.85,8.74a1.39,1.39,0,0,0-.33-2.5Z"/>
      </g>
      <g>
        <rect x="337.5" y="461.5" width="457" height="63" rx="15.92" style="fill: none;stroke: #000;stroke-miterlimit: 10;stroke-width: 5px;opacity: 0.35"/>
        <path d="M433.94,477.52c-6.27-8.18-19.83-2.6-18.11,7.78.88,5.29,5.19,7,9.65,8.77,3.81,1.54,6.74,4.51,7,8.8.3,6.09-9.26,6.3-11.89,2.16-1.36-2.15-5.17-.82-4.28,1.8,1.92,5.63,7.74,6.38,13,5.5,5.4-.92,8.34-3.67,8.18-9.46A14.8,14.8,0,0,0,430,490.63c-3.09-1.73-9-2.06-9.26-6.52-.42-6.21,6.69-5.71,10.56-4,1.51.69,3.94-.92,2.63-2.63Z"/>
        <path d="M442.31,476.46c-.22,10.15.56,20.63.85,30.8.08,2.55,4.3,3.4,4.68.64,1.43-10.17,1.53-22.06-1.19-32a2.22,2.22,0,0,0-4.34.59Z"/>
        <path d="M449.63,492.11c.81-2.83,3.67-2.54,5.47-.93,1.6,1.43,2,3.92,2.1,5.92.24,3.67-.61,7.34.52,10.89a2.34,2.34,0,0,0,4.57-.61c.47-6.62,1.47-16.62-4.9-21-4.66-3.18-11.46-.89-11.69,5.16-.09,2.29,3.31,2.68,3.93.54Z"/>
        <path d="M480.26,506.52c-9.65-.8-10.88-16.8,0-16.26,3.72.19,6.86,3.26,7.9,6.71,1.34,4.46-1.27,10.88-6.75,8.14-2.41-1.21-5.25,1.92-3,3.92,6.28,5.66,14.48-.46,15.36-7.59.91-7.34-4.29-14.93-11.68-16.22-7.2-1.26-14.86,4.06-15,11.62-.14,6.84,6.14,15.39,13.68,13.19a1.8,1.8,0,0,0-.48-3.51Z"/>
        <path d="M501.57,489c-2.16,6.56-5.05,19.23,4.07,22.11s12.68-7.94,12.34-14.73c-.15-2.87-4.82-3.9-5.34-.72-1.32,8.12,4.73,18.53,14.26,15.7s6.85-16.47,2.93-22.68a2.71,2.71,0,0,0-4.67,2.73c1.75,3.28,3.66,7.69,2.54,11.49-1.25,4.22-4.86,3.94-7.48,1.55a7.77,7.77,0,0,1-2.34-7.34l-5.33-.73c.13,2.41.32,5.2-1,7.34-1.57,2.5-4.87,3.16-6.5.25-2.21-3.91-.83-10-.27-14.09a1.66,1.66,0,0,0-3.19-.88Z"/>
        <path d="M561.84,479.65c.47,4.82,1.12,9.59,1.36,14.44.23,4.42.09,8.85,1,13.2.41,2.06,3.62,2,4.09,0,2.06-8.74,0-19.67-2.59-28.16-.61-2-4-1.75-3.82.52Z"/>
        <path d="M560.08,481c4.48-.63,9.65-1.64,14.09-.14,5.4,1.83,6.41,6.47,6.21,11.61-.38,9.74-9.17,16-18.43,11.87-3.16-1.4-6,3.12-2.77,4.74a18.31,18.31,0,0,0,26.74-15.05c.48-6.07-.42-12.69-5.78-16.38-6.48-4.48-14.19-2.92-21.15-.59-2.55.86-1.46,4.29,1.09,3.94Z"/>
        <path d="M598.68,498.6c4.43.54,9,.9,13.42,1.11a2.56,2.56,0,0,0,2.52-2.52,10.63,10.63,0,0,0-9-11.31c-5.74-.78-10.66,3.22-12.18,8.61-3.3,11.73,9.3,21,19.73,15.43,2.9-1.54.32-5.94-2.58-4.4-5.79,3.07-12.91-.61-12.79-7.45.06-3.13,1.8-6.47,5.09-7.14,4-.82,6.8,2.51,6.64,6.26l2.52-2.52c-4.44,0-9,.13-13.42.45a1.74,1.74,0,0,0,0,3.48Z"/>
        <path d="M624.79,475.92a107.11,107.11,0,0,0-.14,19.37c.25,4-.35,10.54,2.19,13.95a5.85,5.85,0,0,0,7.48,1.35c3.38-1.76,4.37-5.85,3.65-9.3-.44-2.1-3.42-1.84-4,0-.22.69-.31,2.41-.71,2.94-3.22,4.27-3-.76-3.15-2.18-.3-2.89-.52-5.79-.68-8.69-.33-5.81-.22-11.63-.55-17.44a2.05,2.05,0,0,0-4.1,0Z"/>
        <path d="M622,489.1a51,51,0,0,1,5.66-.32c1.92.05,3.79.79,5.7.63,2.65-.24,3.4-4,.64-4.78-2.07-.62-4.23-.09-6.34.12a34.06,34.06,0,0,0-6.11,1c-1.77.5-1.51,3.46.45,3.32Z"/>
        <path d="M644.49,488.43c3.43.91,10-1.64,11.59,2.43,1.31,3.44-.21,8.55.33,12.24.34,2.36,1,5.55,3.11,7a3.37,3.37,0,0,0,5.08-1c1.42-2.32-1.88-4.88-3.77-2.91l-.41.42,2.4-.63c-2.65-.43-1.38-11.48-1.48-13.38-.11-2.25-.42-4.6-1.83-6.44-3.1-4.06-11.74-3.2-15.38-.46a1.51,1.51,0,0,0,.36,2.73Z"/>
        <path d="M660,496.12c-3-2.48-6.94-3.89-10.83-2.67a9.13,9.13,0,0,0-6.38,7.79c-.52,8.67,11.28,10.73,16.31,5.25,1.78-1.93-.48-5.13-2.86-3.71-1.78,1.06-3.41,2.45-5.65,2.13a3.39,3.39,0,0,1-3.05-4.1c1.3-4.77,7.68-3.24,10.92-2.05,1.45.54,2.75-1.65,1.54-2.64Z"/>
        <path d="M671.39,487.51c-2.57,4.24-1.47,11.07-1.42,15.85,0,2.81.08,7.33,4.22,6.23a2.53,2.53,0,0,0,1.77-2.34l0-.34c.26-2-2.72-3.08-4-1.64l-.23.27,2.36-.62-.41-.14,1.87,2.46c.1-3.29,0-6.61-.07-9.9s.24-7-1.53-9.83a1.56,1.56,0,0,0-2.66,0Z"/>
        <path d="M674.68,480.23l0,.32-1.9,1.45a2.27,2.27,0,0,0,1.55-.63,1.6,1.6,0,0,0,.42-.51l-.23.29c.16-.15.09-.1-.22.16s-.47.19-.25.11.13,0-.31,0a1.08,1.08,0,0,1-.81-.27c-.39-.28-.5-.33-.32-.15.83.71.69.44-.43-.81a1.91,1.91,0,0,1,.84-2.16c-.27.14-.37.09.27-.08l-.15,0a2.13,2.13,0,0,1,2,.53,2.48,2.48,0,0,0-3.89,3,3.08,3.08,0,0,0,1.78,1.32,2.94,2.94,0,0,0,2.52-.6,2.74,2.74,0,0,0,.77-.85s.43-1,.17-.4.09-.18.07-.14a2.73,2.73,0,0,0-.09-2.46,3.21,3.21,0,0,0-.5-.65l-.48-.37.33.25c-.18-.14-.37-.3-.56-.42a3.12,3.12,0,0,0-2.28-.29,3.16,3.16,0,0,0-1.57.93,2.82,2.82,0,0,0-.74,2.55,2.15,2.15,0,0,0,1.52,1.51h0L671,481a4.29,4.29,0,0,0,.4.55,1.87,1.87,0,0,0,2.07.39,2,2,0,0,0,1.17-1.73Z"/>
        <path d="M685.27,476c-1.91,4.76-2.39,10.07-2.63,15.16-.22,4.57-.64,9.77.4,14.26,1.16,5,8.2,9.08,11.16,3,1.4-2.86-2.87-5.39-4.3-2.51-1,2-2.21-4.94-2.22-5.55-.07-2.77,0-5.55.17-8.32.3-5.19,1.2-10.39,1.09-15.59-.05-2.22-2.91-2.38-3.67-.49Z"/>
        <path d="M713.76,485.6c-5.36-2.75-14,.15-12.16,7.48.75,3.11,3.44,4.31,6.3,4.89,3.2.65,6.51,2,5.68,5.93-1.1,5.29-7.31,3.57-8.51-.54-.91-3.08-5.36-1.78-4.77,1.32,1.74,9,14.28,10.27,17.73,1.71a9.38,9.38,0,0,0-2.8-10.52,10.44,10.44,0,0,0-4.92-2.11c-1.73-.34-2.64-.06-3.62-1.67-2.16-3.55,3.64-3.51,5.65-3.14s3.39-2.34,1.42-3.35Z"/>
        <path d="M339.92,500.3c1.14-5.88.75-11.66.58-17.6-.19-6.78.46-14.37,7.71-17.24,6.79-2.68,15.29-1.46,22.41-1.37,8.63.12,17.25.17,25.88.22q51.78.31,103.55.58,103.05.62,206.1,1.61l51.78.47c8.43.07,16.86.11,25.3.21,4.28.05,7.73.29,8.83,5.14.77,3.38.33,7.14.23,10.57-.25,8.11-.6,16.24-1.25,24.34s-4,13.18-12.28,14.67c-7.36,1.31-15.21.55-22.65.5l-25.83-.16-205.65-1c-34.27-.17-68.54-.32-102.8-.64q-25.68-.24-51.36-.64c-8.08-.13-16.54.42-24.58-.5-9.3-1.08-7-11.9-6.53-18.68q.78-12.56,1.59-25.11c.27-4.13-6.12-4.09-6.43,0-.68,9-1.4,18-2.1,27-.49,6.37-1.51,13.91,3,19.18s12,4.67,18.31,4.79q13.81.27,27.65.46c37.19.54,74.39.76,111.59,1q112.21.58,224.44,1.12c18.13.09,36.34.65,54.47.18,6.28-.16,13.07-.93,18.3-4.7s7-9.67,7.63-15.89c.85-8.58,1.12-17.27,1.39-25.89.19-6,1-13.66-3.42-18.56-4.71-5.28-13-4-19.29-4.09L749,460q-112.51-1-225-1.61c-37.5-.22-75-.44-112.51-.44-18.14,0-36.39-.48-54.52.25-6.31.25-12.91,1.47-17.37,6.34-3.8,4.16-4.81,9.91-4.82,15.37,0,6.6,1.27,13.17.6,19.77-.26,2.6,4.08,3.19,4.59.62Z"/>
      </g>
      <g>
        <path d="M1059.79,508.55c-16.08-4.46-8.14-35.37,8.91-26.82,6.14,3.07,8.54,10.26,6.71,16.68-1.89,6.58-10.05,13.79-16.17,7.2-2.32-2.51-6,1.19-3.73,3.73,7.59,8.66,19.77,3.05,24.1-5.9,4.69-9.69,1.45-22.28-8.67-26.92a17.57,17.57,0,0,0-23.84,10c-3.46,9.21.53,25,12.23,25.38a1.73,1.73,0,0,0,.46-3.39Z"/>
        <path d="M1087.11,477.81c-.52,10.07.42,20.34.86,30.4a2.25,2.25,0,0,0,4.49,0c.86-10.19,1-20.91-1.3-30.94-.55-2.35-3.93-1.7-4.05.54Z"/>
        <path d="M1091.39,496.07c4.15-.42,7.88-3.38,10.95-6s7.07-6.57,8.12-10.7c.66-2.62-2.64-4.69-4.6-2.68-2.68,2.73-4.29,6.4-7,9.22s-6.16,4.64-8.63,7.47c-.81.93-.36,2.87,1.13,2.72Z"/>
        <path d="M1093.49,493.65c1,1.37,2.06,1.49,3.55,2.25a19.19,19.19,0,0,1,4.66,3.39,16.75,16.75,0,0,1,5.28,10,2.93,2.93,0,1,0,5.79-.78,21.08,21.08,0,0,0-6.9-12.77c-2.57-2.22-8.51-6-11.91-3.92a1.31,1.31,0,0,0-.47,1.79Z"/>
        <path d="M988.38,521.72c-8.76,3.57-14.52-5-16-12.51-1.6-8.29-1.45-17.3-1-25.7.47-8.62,3-15.74,12-18.18,7.24-2,15.14-1.32,22.55-1.29q55.95.24,111.89.34,27.72.08,55.44.1c4,0,8.5-.52,12.26,1.06s5.87,5.15,7.15,8.91c2.55,7.47,2.64,16,2.38,23.84-.25,7.07,0,18.55-8.17,21.34s-17.78,3-26.32,3.64c-18.34,1.28-36.75.73-55.11.49-41.79-.55-83.59-1.37-125.39-1.61-4.08,0-4.07,6.23,0,6.33,43.75,1,87.52,1.26,131.28,1.81,21.2.27,42.49.75,63.56-2,7.3-1,16.53-1.29,21.42-7.65s5-16.39,5.18-24.16c.24-13.84-.92-35.74-18.48-38.06-9.92-1.31-20.54-.3-30.55-.31q-16.33,0-32.67,0l-65.35,0c-20.89,0-42.09-.94-63,.25-7.79.44-16.22,2.14-21.23,8.68-5.54,7.21-5,18-4.82,26.56.16,9.08.12,20.16,5.81,27.78,4.35,5.82,12.46,8.68,18.68,4.15,1.74-1.27.77-4.8-1.61-3.82Z"/>
      </g>
      <g>
        <path d="M1307.37,476.34c-1,4.59-.26,9.45,0,14.12.23,5.18.08,10.49.74,15.64.48,3.78,5.76,4,6,0,.38-5.47-.34-11.17-.89-16.62-.45-4.56-.67-9.36-2.56-13.57-.63-1.4-3-1-3.27.43Z"/>
        <path d="M1308.63,478.53c3.25,1.09,12.94-1.81,14.39,2.37,2,5.63-6.38,7.49-10.08,7.88s-3.69,6.14,0,5.76c7.57-.79,17.76-4.54,16.18-14.13a8.61,8.61,0,0,0-7.37-7.17c-3.91-.67-10.11-.14-13.58,1.72a2,2,0,0,0,.46,3.57Z"/>
        <path d="M1317.55,493a42.28,42.28,0,0,1,9.33,16.35c1.35,4.1,7.45,1.66,5.51-2.33a64.42,64.42,0,0,0-12.25-16.62c-1.68-1.67-4.2.87-2.59,2.6Z"/>
        <path d="M1340.8,496c5.08,1.05,18.74,4.94,18.18-4-.38-6-9.92-12-15.26-8.53-2.9,1.9-4.12,6.72-4.77,9.9-.77,3.75-.71,7.66,1.37,11,4.22,6.77,13.3,6.82,18.64,1.52,2.45-2.43-1.54-6.33-3.76-3.76-3.13,3.63-8.78,3.9-11.27-.62-2-3.57-.48-8.2,1-11.69.92-2.21,2-2.74,4.24-2.09,1.73.5,6.64,3,4,5.34-.72.64-3.66.28-4.48.27a45.1,45.1,0,0,1-7-.7c-2.16-.36-3.12,2.88-.92,3.34Z"/>
        <path d="M1378,506.31c-6.66-2.21-10.84-15.38-2.22-18,8.2-2.49,11.9,16.62,3.26,17.52-2.35.25-3.27,3.82-.6,4.44,15.29,3.53,14.23-28.35-1.29-27.61-15.23.74-13.9,24.87.48,26.38,1.63.17,1.78-2.26.37-2.72Z"/>
        <path d="M1396.88,485.35c-.6,4.6.37,9.51.73,14.12s.65,9.46,1.08,14.18c.4,4.43,7,3.54,6-.82l-.23-1.53a2.74,2.74,0,0,0-5.47,0l-.21,1.53,6,.82c-.33-5-1-10-1.67-14.93-.68-4.76-1.06-9.82-3-14.26-.79-1.81-3.08-.58-3.27.89Z"/>
        <path d="M1399.49,490.18l-.23.07.71,2.57c2.8-1.15,4.23-4,7-5.36,4.36-2.07,7.43,1.74,7.83,5.83.7,6.95-6,10.34-11.3,6.31-2.6-2-4.83,2-3.19,4.13,3.11,4,9.48,4.34,13.72,2.08,4.82-2.56,7-8.23,6.25-13.46s-4.31-10.07-9.77-10.38c-5.19-.29-11.53,4.29-12.2,9.57-.14,1,1.21,1.59,2,1.15l.21-.12a1.31,1.31,0,0,0-1-2.39Z"/>
        <path d="M1430.09,496.92a62,62,0,0,0,15.81-.62,2.64,2.64,0,0,0,1.81-3.2c-.86-4.54-2.41-9.85-7.65-10.86-4.88-.94-8.89,2.77-10.9,6.82-2.19,4.44-3.16,10.14.33,14.19,4.15,4.83,10.83,4.77,16.64,4.06,3.19-.39,3.26-5.45,0-5.08-5.91.66-16,1-13.67-8.09.66-2.57,2.44-6.57,5.47-7,3.62-.54,4.45,4.07,4.67,6.69l2.61-2.61c-5.21.69-10.33,1.85-15.55,2.57-1.88.25-1.27,3.05.43,3.16Z"/>
        <path d="M1461.29,506.65c-.23-6.38-2.87-16.89,5.23-19.35,5.17-1.57,5.49,2.45,6.22,6.59a53,53,0,0,1,.45,12.2c-.19,3.4,4.83,3.26,5.19,0,1-8.75.48-26.93-12.57-23.81-11.27,2.69-12,16.29-7.72,25.24.75,1.54,3.26.78,3.2-.87Z"/>
        <path d="M1419.5,522.55c-31.68-1.67-63.54-1.16-95.26-1.26-17.52,0-35,0-52.56-.08h-11.55c-6.67,0-14.6-.62-19.25-6.09-5.75-6.77-4.46-19.31-4.23-27.54.26-9.27.67-19.26,11.19-22.09,8.14-2.19,17.32-1.13,25.64-1.07q29.85.19,59.68.39,60.18.33,120.36.58,29.84.15,59.68.25c4.35,0,8.69,0,13,.08,4.64.07,11.59-.83,15.29,2.45,2.82,2.51,3.7,6.9,4.51,10.39a132.08,132.08,0,0,1,2.53,14.66c.89,7.9,1.93,17.71-5,23.33-5.44,4.42-13.23,5.21-20,5.45-19.36.7-38.88-.17-58.26-.2-66.29-.09-132.57-.66-198.86-.47-4.34,0-8.68,0-13,0-4.14-.1-4.14,6.33,0,6.42,25.06.56,50.16-.13,75.22.11,41.9.39,83.78.75,125.69.76,21.5,0,43,.21,64.52.25,12.84,0,29.37-1.62,35-15.26,3.24-7.8,1.93-16.83.78-24.93-1.11-7.77-2-17.62-7.27-23.93-5.56-6.71-15.17-5.74-23-5.86-10.38-.16-20.75-.15-31.12-.21q-64.66-.36-129.31-.63-32.32-.17-64.65-.25l-32.83-.1c-7.87,0-16.29-.55-23.72,2.55-6.88,2.87-10.68,8.72-11.85,15.93a106.61,106.61,0,0,0-.23,29.1c.9,7.57,3.76,14.46,10.63,18.42,5.66,3.26,12.38,3.85,18.78,3.79,12.93-.12,25.85-.12,38.77-.11,22.24,0,44.48-.13,66.72-.11,16.49,0,33,.28,49.51-.55l4.37-.23a2,2,0,0,0,0-3.9Z"/>
      </g>
    </g>
</svg>
