<svg xmlns="http://www.w3.org/2000/svg" viewBox="0 0 1610 1610">
  <g>
    <rect x="5" y="5" width="1600" height="1600" style="fill: none;stroke: #000;stroke-miterlimit: 10;stroke-width: 10px"/>
    <g>
      <path d="M381.38,152.24c-.63,5.57,2.18,11.74,3.9,17q2.94,8.88,6.2,17.65c4.27,11.47,8.3,23.26,13.53,34.34,2.35,5,10.29,2.43,10.17-2.75l-.12-5.14c-.16-6.95-10.84-7-10.82,0l0,5.14L415,217c-4.07-11.76-9.33-23.25-14-34.78q-3.24-7.91-6.59-15.76c-2.27-5.32-4.2-12.07-8.51-16.06a2.66,2.66,0,0,0-4.47,1.85Z"/>
      <path d="M383.71,154.85c3.22,0,3.22-5,0-5s-3.22,5,0,5Z"/>
      <path d="M384.3,152.36c-.5.15-1,.29-1.51.41l3.51,1.42-.12-.16-1.32,5.05c9.88-4.34,32.18-17.26,38-.67,3.8,10.8-7.25,24.79-17.29,27.57-6.77,1.89-3.87,12.52,2.91,10.55,16.58-4.83,31.61-27.12,23.14-44-4.87-9.68-15.24-13.38-25.48-11.8a57.17,57.17,0,0,0-16.45,5.55c-3.86,1.9-10.77,4.44-10.42,9.59.26,3.91,6.41,5.32,7.26,1l.34,0c2.15-1.73-.18-5.17-2.6-4.47Z"/>
      <path d="M507,114.16c-9.6-6.84-23.33,4.64-28.16,12.42-7.06,11.36-7,26.23-5,39,1.83,11.8,7.87,22.79,20.17,26,13.61,3.52,26.4-3.17,37.78-9.89,5.93-3.5.53-12.79-5.4-9.24-8.2,4.9-17.37,10.65-27.36,9.48-10.14-1.2-14-9.92-15.51-19-1.55-9.53-1.92-20.76,2.43-29.63a23.41,23.41,0,0,1,9.34-10.09c3.73-2.11,7.92-2.3,11.73-4,2.2-1,1.59-3.93,0-5.06Z"/>
      <path d="M480.73,162.61c10.09-1.38,20.5-4.69,30.11-8,6.67-2.31,4-12.73-2.95-10.7-10.13,3-20.89,6.44-30.26,11.36-4.4,2.31-1.05,7.92,3.1,7.35Z"/>
      <path d="M548.22,108.17c.86,5.44,3.49,10.79,5.25,16,1.9,5.65,3.9,11.27,5.76,16.93,3.64,11,6.64,22.26,9.62,33.5,1.79,6.76,11.93,3.9,10.43-2.87A306.14,306.14,0,0,0,569,136.48c-1.92-5.47-4-10.86-6.34-16.15s-4.55-11.15-8.19-15.77c-2.57-3.27-6.71.45-6.2,3.61Z"/>
      <path d="M551.85,107.71c3.07,1.13,5.79,0,8.92-.57a93.76,93.76,0,0,1,11.44-1.51c4.82-.34,13.14-1.16,15.55,4.32,2.25,5.09-2,11.52-5.31,15-4.53,4.7-9.8,7.08-15.77,9.4a5.46,5.46,0,0,0,2.9,10.51c15.84-2.62,35.22-21.4,28.57-38.64-3.27-8.47-12-11.68-20.52-11.53a59.93,59.93,0,0,0-14.87,2.36c-4.34,1.19-10.19,2.49-12.55,6.64a2.78,2.78,0,0,0,1.64,4Z"/>
      <path d="M584.52,141.48c3.75-1.56,7.85-1.39,11,1.42,3.42,3.07,4,8.5,5.59,12.59,3.28,8.26,10.88,13.8,20,13,7-.57,7.13-11.45,0-11-11.85.72-10.54-13.73-17.24-20.15-5.81-5.56-15.14-6.11-21.84-2-3.05,1.89-1.06,7.58,2.55,6.07Z"/>
      <path d="M704.75,90.8c-5.12-4.78-10.11-7.38-17.24-7.66a34.49,34.49,0,0,0-18.32,4.92c-12.53,7.36-18.58,21.47-16.91,35.68,1.7,14.6,10.62,28.12,24.2,34.19,12.1,5.41,30.21,5.81,39.29-5.56,4.66-5.84-2.33-12.87-8.18-8.18-17.53,14.07-41-1-44-21.21-1.43-9.75,2.09-19.69,10.58-25.08,7.37-4.68,18.85-6.31,26.94-2.43,2.88,1.37,6.22-2.22,3.6-4.67Z"/>
      <path d="M784.08,79.13c-10.65-3-22.12,1.43-29.28,9.61-8.46,9.65-10.54,22.91-8.31,35.24,2.07,11.51,8.35,22.55,17.84,29.49s24.43,9.28,34.73,2.38c6.14-4.12.87-12.67-5.7-9.75-17.71,7.87-32.56-7.74-36-24.24-3.64-17.44,6.83-35.33,25.73-35.41,4.21,0,5.06-6.17,1-7.32Z"/>
      <path d="M753,124.43c5.74-.93,11.48-2.29,17.29-2.7s11.23,1.53,16.9,1.2c6.62-.37,8.78-10.54,1.64-12.12-6.33-1.4-13.44.55-19.81,1.52a57.15,57.15,0,0,0-18.7,5.74c-3.73,2-1,7,2.68,6.36Z"/>
      <path d="M836.06,80.57c-2.8,4.68-1.82,11.32-1.94,16.62C834,103.46,834,109.74,834,116c0,12.35-1,25.38.53,37.65.92,7.42,11.1,7.67,11.76,0,1.07-12.32-.45-25.3-.87-37.65-.21-6-.45-11.9-.79-17.84-.31-5.51.52-12.87-2.55-17.61a3.52,3.52,0,0,0-6,0Z"/>
      <path d="M842.39,87.89c6.82-2.71,12.46-4.1,19.55-1.55,5.12,1.85,9.41,6,10.23,11.56,2.07,14-18.59,16.77-28.16,15.76-6.47-.69-7.75,9.81-1.53,11.28,18,4.24,45.19-7.65,41-29.52A24.63,24.63,0,0,0,867,76.59c-8.95-2.74-20.44.47-27.62,6.18-2.35,1.86.19,6.23,3,5.12Z"/>
      <path d="M910.31,93.7c10.79.72,21.42.55,32.15,2.31,5,.82,10,1.64,15,2.85,5.18,1.27,10,3.82,15.36,4.19,5.81.41,8.41-8.69,3-11.21-4.81-2.25-10.18-2.29-15.39-3-5.58-.73-11.12-1.65-16.73-2.08-10.92-.84-22.51-1.73-33.4-.28-4.49.6-4.74,6.87,0,7.19Z"/>
      <path d="M934,92.42c-.94,1.84-2.41,2.8-3,5a64.32,64.32,0,0,0-1.2,8.3c-.73,5.88-1.17,11.79-1.67,17.69-1,11.6-3.08,23.75-2.73,35.38.2,6.63,10.77,8.74,12.08,1.64,2.11-11.38,2-23.5,2.77-35,.39-5.57.84-11.14,1.09-16.71.13-2.93.28-5.91.17-8.85s-1.29-4.09-2.15-6.68c-.74-2.25-4.17-3.09-5.39-.7Z"/>
      <path d="M1012,96.5a73.24,73.24,0,0,0-9.83,48.23c1.84,13.08,8.25,27.8,21.83,32.22,15.22,5,29.31-6.5,37.09-18.53,8.68-13.44,12.28-30.8,8.86-46.48-1.43-6.52-12.67-5.22-11.86,1.61,1.42,12,.53,23.66-5.21,34.47-4.52,8.53-14.83,21.67-26.11,16.95-9.45-3.95-12.64-16.93-13.49-26a77.84,77.84,0,0,1,6-38.16c2.16-4.87-4.47-9.08-7.32-4.27Z"/>
      <path d="M1097,193c9.91-7.61,17.3-19.06,25-28.78,7.19-9.07,14-19.42,23.79-25.88l-9-5.18q-.42,20-.83,40-.2,9.76-.41,19.52c-.14,6.76-.82,13.78-.21,20.5.72,7.87,11.1,7.65,12.07,0,.82-6.39.41-13.07.5-19.52q.15-10.25.29-20.5.29-20,.59-40c.06-4.37-5.22-7.72-9-5.18-10.27,6.84-17.4,16.73-24.85,26.36-3.91,5-7.78,10.11-11.67,15.17-4.25,5.53-9.1,11.36-11.9,17.8-1.42,3.25,2,8.56,5.69,5.69Z"/>
      <path d="M1108.48,177.09c2.72,4.12,8,4.83,12.51,6,5.34,1.42,10.87,3.27,16.43,3.34,7.4.09,8-9.92,1.66-12.28-4.85-1.8-10.48-1.94-15.59-2.52-4.41-.5-9.94-2-13.79.78a3.45,3.45,0,0,0-1.22,4.65Z"/>
      <path d="M1213.33,157.62c-5.93,8.95-11.15,18.74-16.25,28.19-2.5,4.63-4.76,9.41-7,14.15s-5.3,9.68-7,14.75c-3.33,10.16,6.5,15.12,14.07,18.88a114.92,114.92,0,0,0,28.14,9.7c8.09,1.66,11.53-10.79,3.42-12.39a102.78,102.78,0,0,1-23.59-7.46c-2.53-1.17-7.68-2.71-9.35-4.95-1.33-.61-1.51-.83-.54-.65l1.7-3.58,2.53-5.37c7.45-15.73,14.87-32,20.12-48.64,1.22-3.83-4.18-5.75-6.24-2.63Z"/>
    </g>
    <g>
      <path d="M400.25,406.39c10.68-7.22,20.82-15.22,31.1-23s20.79-15.06,30.65-23.21l-10.37-4.29q-1.67,37.83.09,75.68c.31,6.73,10.64,8.83,12.23,1.66.23-1,.46-2,.68-3.05,1.36-6.16-7.84-10.93-10.78-4.54-.43.93-.86,1.86-1.28,2.79l11.61,3.14q-2-37.81-.4-75.68c.19-4.38-5.39-7.88-9.14-5.25-10.46,7.36-20.22,15.83-30.05,24s-19.88,16.57-29,25.72c-3,3,1,8.55,4.66,6Z"/>
      <path d="M418.43,389.59c6.17,2.9,12.78,4.86,19,7.72s12,6.7,18.2,9.77c7,3.51,13.22-6.81,6.21-10.62-6.55-3.56-13.66-5.69-20.69-8-6.78-2.22-13.86-4.57-21-5.25-3.33-.32-4.74,5-1.73,6.37Z"/>
      <path d="M508.35,455c13-22,21.69-47,29.19-71.27L525.1,382c1.4,13.39,3.42,26.88,6,40.09,1.11,5.68,1.47,13.75,5.3,18.35s9.27,3.1,13.45,0c17.28-12.88,25.79-33.75,42.42-47.26l-10-5.8q-9.57,36.87-16.86,74.27c-1.51,7.83,10.53,11.15,12,3.31q6.95-37.49,16.38-74.41c1.58-6.15-5.53-9.43-10-5.81-13.54,11.07-21.48,26.94-33.44,39.44-1.37,1.43-2.78,2.81-4.27,4.13-.74.65-1.49,1.29-2.27,1.89-.58.47-1.18.91-1.79,1.32l3.32.76c.53-.62-1.49-6.6-1.7-7.59q-.91-4.29-1.72-8.59a293.92,293.92,0,0,1-4.2-34.08c-.48-7.07-10.19-8.68-12.44-1.69-7.7,24-17.33,47.29-24.93,71.28-1.51,4.76,5.48,7.56,8,3.36Z"/>
      <path d="M633.5,399.67c-8.07,7.93-8.55,20.3-9.7,31l-2.08,19.29c-.72,6.66-2,13.56-1.84,20.26.17,6.3,9.9,8.12,11.36,1.54,2.58-11.66,2.45-24.37,3.44-36.27.92-11,1.56-21.61,5-32.17,1.19-3.62-3.65-6.12-6.2-3.61Z"/>
      <path d="M637.24,404.54a19.5,19.5,0,0,1,24.22,7c7.22,10.72-5.94,14.85-14.11,16.71-6.48,1.47-5.22,12.38,1.59,11.77,13.12-1.16,22.94,11.86,16.9,24s-21.6,12.56-30.91,3.86c-5.36-5-12.84,2.58-8,8,14.08,15.82,40.85,12.21,49.79-7.13s-6-42.52-27.77-40.72l1.59,11.78c7.14-1.61,14.91-4.1,20.05-9.59,6.13-6.56,6.07-16,1.58-23.45-7.67-12.78-26.38-16.77-38.94-9.13-4.46,2.72-.57,9,4,6.88Z"/>
      <path d="M709.89,409.15c.09,12.31.92,24.67,1.6,37,.68,12.1.06,24.84,2.06,36.78,1.33,7.94,13.8,4.66,12.2-3.36l-.3-1.63c-.93-7.42-10.7-7.47-11.6,0l-.3,1.63L726,481.21c.55-6.06-.29-12.46-.66-18.53s-.85-12.36-1.41-18.52A324.55,324.55,0,0,0,719,407.92c-1.06-5.2-9.16-3.94-9.13,1.23Z"/>
      <path d="M701.68,411.88c9.12,2.1,18.77.52,28,2.05,10.14,1.68,10.2-13.82,0-12.13-9.2,1.52-18.85-.05-28,2.05-4,.92-4,7.11,0,8Z"/>
      <path d="M706.68,488.05l17.85.51c5.85.16,11.63,1.32,17.43.18,5.59-1.1,5.59-10.2,0-11.3-5.8-1.14-11.58,0-17.43.19l-17.85.5c-6.39.18-6.4,9.74,0,9.92Z"/>
      <path d="M828,410.92c-11.25-8.35-26.94-7.52-38.65-.23-12,7.5-19.8,20.74-22.75,34.4s-1.83,30,10,39.44c11.17,8.93,28.44,11,41.92,7,15.79-4.69,27.17-19.14,24.88-35.89-.92-6.78-12.69-5.25-12,1.63,2.77,29.51-50.24,32.84-53.8,4.78-3.32-26.18,20-55.08,47.68-44.47,4.13,1.58,5.79-4.37,2.79-6.61Z"/>
      <path d="M806.84,456.11c5.35,2.1,12.22,1.15,17.88,1.1,6.07-.06,12.42.37,18.39-.76,6.87-1.29,4.49-10.77-1.53-11.35s-12.73.61-18.84,1.11c-5.53.44-11.81.31-16.83,2.83-3.27,1.64-1.89,6,.93,7.07Z"/>
      <path d="M859.18,408c.37,12.57,4.15,25.56,6.65,37.86s4,26.19,9,37.78c2.38,5.49,11.66,2.71,11.24-3-.46-6.33-2.55-12.71-4.16-18.84-1.65-6.32-3.45-12.61-5.14-18.92-3.25-12.13-5.53-25.22-10.54-36.75-1.53-3.53-7.17-1.64-7.06,1.91Z"/>
      <path d="M864.09,412.28c10-6.37,25.82-2.9,32,7.17,3.66,6,3.62,11.78-1.58,16.7a24.87,24.87,0,0,1-7.82,5c-3.17,1.27-6.64,1.34-9.77,2.62-4.92,2-5.79,9.23,0,10.92,9.39,2.74,21.52-3.88,27.79-10.58,7.8-8.33,8.48-19.2,3.28-29.15a32.26,32.26,0,0,0-21.2-16.38,28.6,28.6,0,0,0-14.94.72c-4.85,1.64-8,4.55-11.69,7.89-2.73,2.45.83,7.06,3.93,5.09Z"/>
      <path d="M897.41,445.57l.05-.45a3,3,0,0,0-1.5-2.61,4.6,4.6,0,0,0-1.92-.7c-2.07-.37-4.43.53-5,2.81a5,5,0,0,0,1.8,5.44c2.3,1.87,4.6.65,7.07,1.64,4.89,1.95,5.74,11.69,7.78,15.82,4.47,9.05,19.17,16.61,27.84,8.7,4-3.62.44-9-4-9.53-3.69-.46-6.73,1-10.2-1.16-4.09-2.52-4.86-7.85-6.59-12a20.58,20.58,0,0,0-7.38-9.42,14.48,14.48,0,0,0-4.82-2.09c-2-.43-4.66.75-6.44.12l2.54,1.95.06.2-.91,3.43-.64.29-3.83-2.92,0,.45c-.18,3.95,5.57,3.75,6,0Z"/>
      <path d="M966.23,475c2.73-13.48,3.95-27.42,5.64-41.07,1.73-14,3-28,4.39-42l-9.35,5.37c5.29,3.27,9,8.34,12.84,13.15q6.48,8.16,12.92,16.37t12.91,16.39q3.07,3.9,6.17,7.78l3.71,4.66,1.24,1.55q2.59,4.51,2.42-3.43l6.47-1.71-.54-.21c-7-2.72-11.78,8.76-5.1,12.1l.52.26a6.89,6.89,0,0,0,8.06-1c6.61-6.27-.71-13.61-4.76-18.63q-8.43-10.41-16.9-20.76c-5.65-6.91-11.32-13.8-16.94-20.73-5-6.18-9.85-12.3-16.75-16.49-4.31-2.62-9,.86-9.34,5.36-1.19,13.68-2.4,27.35-3.19,41.05s-2.09,27.43-1.83,41c.08,4.1,6.53,5.31,7.41,1Z"/>
      <path d="M970,449.93a150.34,150.34,0,0,1,16.67-5.47c5.71-1.44,11.73-1.69,17.29-3.71,6-2.21,5.74-12.57-1.63-12.05-6.65.47-12.37,3.18-18.43,5.71a164.82,164.82,0,0,0-17,8.13c-3.89,2.18-1.25,9.06,3.12,7.39Z"/>
      <path d="M1041.79,372.66c-3.06,4.82,1.75,11.58,3.7,16.18,2.68,6.31,5,12.74,7.27,19.22s4.12,12.85,5.8,19.39c1.51,5.88,1.72,14.12,6.23,18.47,3.43,3.32,8.17,1.43,9.79-2.58,2.34-5.83-1.6-14.58-3.33-20.34q-3-10.15-6.92-20c-2.44-6.2-5.16-12.29-8.1-18.27-2.41-4.9-5.16-13.44-11.49-13.72a3.45,3.45,0,0,0-3,1.69Z"/>
      <path d="M1044.06,377.41c3.2,5.4,7.69,10.14,11.71,14.95,4.4,5.26,8.79,10.53,13.23,15.76q6.35,7.45,12.82,14.8c3.86,4.39,8,10.35,14.71,8.88,5.3-1.16,7.1-6.32,7.84-11,1-6.45,1.91-12.92,2.9-19.38q1.57-10.15,3.14-20.32c1-6.65,2.59-13.45,2.86-20.17l-8.25,6.28c3.63.78,4.14,9.11,4.81,12.05a172.07,172.07,0,0,0,5.62,19.44c4.15,11.71,9.13,25.5,18,34.51,3.6,3.65,10.46,0,8.81-5.13-2.3-7.13-6.34-13.68-9.42-20.5a167.25,167.25,0,0,1-7.75-20.66c-3.48-11.54-3.52-27.37-16.62-32.28-3.3-1.23-7.16,1.39-8,4.55-2.8,10.23-3.54,21.38-5.17,31.87q-1.29,8.22-2.6,16.43l-1.24,7.73c-.18,1.12-.76,2.75-.62,3.86l-.23,1.12q7.89.12,4.85-2.62c-.83-2-3.74-4.23-5.2-5.84-1.75-1.94-3.51-3.86-5.27-5.79q-5.58-6.15-11.26-12.21c-7.32-7.8-14.31-16.64-22.8-23.17-4.15-3.2-9.25,2.85-6.87,6.86Z"/>
      <path d="M1182.48,327.44c-12.92-3.52-29.54.73-32.93,15.43-3.54,15.39,10.07,24.4,23.89,24.19,7-.11,16.63-3.33,23,.72,4.35,2.74,6.11,8.58,5.28,13.49-2.27,13.42-22,19.9-31.46,10.22-4-4.06-11.71,1.44-8.13,6.28,8.91,12.06,27.56,11.9,39.82,5,12.86-7.2,17.16-23.91,10.15-36.68a23.43,23.43,0,0,0-16.65-11.79c-8.19-1.48-16.1,1-24.28.88-7.42-.12-14.16-3.89-11.34-12.33s12.86-10,20.66-8.32c4.62,1,6.57-5.86,2-7.12Z"/>
    </g>
    <g>
      <g>
        <path d="M679.2,240.67c-8.76-11.28-24.16-13.41-35.43-4.25-10.63,8.65-12.77,26.88,3.48,30.13,8.15,1.63,16.48-1.52,23.89,3.47,6.49,4.37,10.11,12.4,8,20.09-4.65,17.09-26.63,18.23-34.95,3.56-2.14-3.76-7.69-.44-5.77,3.37,6.06,12,21.74,17.47,33.84,11.31,11.56-5.89,17.27-20.44,12-32.41a26.46,26.46,0,0,0-13.46-13.46c-7.66-3.37-15.58-.26-23.27-2.45-12.32-3.49-3.49-17.33,3.72-21.19,8.22-4.42,19-2.24,25.49,4.29,1.62,1.64,3.79-.75,2.45-2.46Z"/>
        <path d="M711.58,236.67c-1,11.05.38,22.66.94,33.73.56,11.24.89,22.52,1.74,33.74.32,4.26,6.84,4.37,6.72,0-.32-11.58-1.17-23.16-1.78-34.73-.58-11-.49-22.59-2.56-33.43-.58-3-4.83-2-5.06.69Z"/>
        <path d="M717.49,272.47c2.77,1.69,5.43,1.14,8.6,1,3.9-.15,7.79-.4,11.68-.67,7.79-.55,15.6-1,23.37-1.78,4.29-.42,4.43-7.1,0-6.82-8.12.52-16.24,1.33-24.34,2.07-3.9.36-7.8.76-11.68,1.25-3.14.4-5.52.33-8,2.41a1.62,1.62,0,0,0,.32,2.52Z"/>
        <path d="M758,232.51c-2.21,7.4-1.35,16.09-1.22,23.74q.21,12.6.94,25.17.33,5.81.75,11.6c.28,3.92,0,8.71,1,12.53s5.4,7.32,8.68,3.62c3-3.37-1.87-8.32-5-5l-.49.52,3.44-.91c-.41-.08-1.08-15.9-1.19-17.55-.43-6.12-.76-12.25-1.08-18.38-.29-5.81-.51-11.62-.74-17.43s.11-12.23-1.58-17.93a1.87,1.87,0,0,0-3.57,0Z"/>
        <path d="M791.54,238.2c8.39,3.24,18.66,2.88,27.51,3.11l-3.21-4.21-.83,1.41c-1.36,1.55-.63,5,1.94,4.66,2.88-.37,4.33-1.53,5.31-4.3.66-1.86-1.12-4.48-3.21-4.22-9.22,1.2-17.78-.59-26.94-.67-2.56,0-2.73,3.39-.57,4.22Z"/>
        <path d="M804,237.93c-1.51,11.46-1.66,23.18-1.76,34.72-.1,10.9-.44,22.85,1.77,33.56.76,3.71,6.22,2.66,6.37-.86.47-11.08-1.17-22.59-1.59-33.69-.42-11.25,0-22.48-.32-33.73-.07-3-4.1-2.77-4.47,0Z"/>
        <path d="M793.59,305.32c2,3.5,6.89,3,10.48,3.28a82.87,82.87,0,0,0,16.74-.05c4-.5,4.32-6.56,0-6.52-5.27,0-10.53.4-15.81.27-3.7-.08-8.41-1.66-11.19,1.3a1.45,1.45,0,0,0-.22,1.72Z"/>
        <path d="M847.28,237.92c-1.16,11.3-1.45,22.71-1.59,34.06-.07,5.51-.05,11,0,16.55s-.35,11.08.71,16.42c.59,3,5.71,3.13,6.17,0,.75-5.07.24-10.33.17-15.45-.07-5.84-.08-11.68-.09-17.52,0-11.35.21-22.71-.11-34.06-.09-3.44-4.91-3.31-5.25,0Z"/>
        <path d="M850.65,239.68l14.46.25,6.75.11c1.63,0,4.84-.52,6.25.31l-1.64-2.13.2.76.36-2.72,1.11-.76c-3.73.84-3,7.19.92,6.79,5.82-.59,5.75-7.7.3-9.07-4-1-9.2,0-13.28.1l-15.43.37c-3.85.09-3.86,5.92,0,6Z"/>
        <path d="M852.3,271.56c2.54,2.74,6.51,1.37,9.91,1.21,4.79-.22,9.59-.25,14.38-.5,4.2-.21,4.24-6.43,0-6.56a98.75,98.75,0,0,0-15.27.9c-3.36.42-7.46,0-9.23,3.29a1.42,1.42,0,0,0,.21,1.66Z"/>
        <path d="M907.74,233.51c2.3,3.7,7.63,3.64,11.6,4.2a155.06,155.06,0,0,0,16,1.42c10.79.42,22.37.39,33-2,3.72-.85,3-7-.91-6.73-10.42.7-20.59,2.11-31.1,1.86-5-.12-10.06-.46-15.08-1-4-.4-9.49-2.34-12.89.22a1.51,1.51,0,0,0-.53,2Z"/>
        <path d="M935.23,238.43c-2.29,11-2.41,22.64-2.39,33.83,0,5.52.13,11,.41,16.56s-.1,12.12,1.82,17.37c1,2.66,5.63,3.43,6.2,0,.83-5-.2-10.35-.48-15.43q-.48-8.75-.58-17.53c-.11-11.33.84-22.75.41-34.07-.11-3-4.73-3.88-5.39-.73Z"/>
      </g>
      <g>
        <path d="M692.2,253.67c-8.76-11.28-24.16-13.41-35.43-4.25-10.63,8.65-12.77,26.88,3.48,30.13,8.15,1.63,16.48-1.52,23.89,3.47,6.49,4.37,10.11,12.4,8,20.09-4.65,17.09-26.63,18.23-34.95,3.56-2.14-3.76-7.69-.44-5.77,3.37,6.06,12,21.74,17.47,33.84,11.31,11.56-5.89,17.27-20.44,12-32.41a26.46,26.46,0,0,0-13.46-13.46c-7.66-3.37-15.58-.26-23.27-2.45-12.32-3.49-3.49-17.33,3.72-21.19,8.22-4.42,19-2.24,25.49,4.29,1.62,1.64,3.79-.75,2.45-2.46Z"/>
        <path d="M724.58,249.67c-1,11.05.38,22.66.94,33.73.56,11.24.89,22.52,1.74,33.74.32,4.26,6.84,4.37,6.72,0-.32-11.58-1.17-23.16-1.78-34.73-.58-11-.49-22.59-2.56-33.43-.58-3-4.83-2-5.06.69Z"/>
        <path d="M730.49,285.47c2.77,1.69,5.43,1.14,8.6,1,3.9-.15,7.79-.4,11.68-.67,7.79-.55,15.6-1,23.37-1.78,4.29-.42,4.43-7.1,0-6.82-8.12.52-16.24,1.33-24.34,2.07-3.9.36-7.8.76-11.68,1.25-3.14.4-5.52.33-8,2.41a1.62,1.62,0,0,0,.32,2.52Z"/>
        <path d="M771,245.51c-2.21,7.4-1.35,16.09-1.22,23.74q.21,12.6.94,25.17.33,5.81.75,11.6c.28,3.92,0,8.71,1,12.53s5.4,7.32,8.68,3.62c3-3.37-1.87-8.32-5-5l-.49.52,3.44-.91c-.41-.08-1.08-15.9-1.19-17.55-.43-6.12-.76-12.25-1.08-18.38-.29-5.81-.51-11.62-.74-17.43s.11-12.23-1.58-17.93a1.87,1.87,0,0,0-3.57,0Z"/>
        <path d="M804.54,251.2c8.39,3.24,18.66,2.88,27.51,3.11l-3.21-4.21-.83,1.41c-1.36,1.55-.63,5,1.94,4.66,2.88-.37,4.33-1.53,5.31-4.3.66-1.86-1.12-4.48-3.21-4.22-9.22,1.2-17.78-.59-26.94-.67-2.56,0-2.73,3.39-.57,4.22Z"/>
        <path d="M817,250.93c-1.51,11.46-1.66,23.18-1.76,34.72-.1,10.9-.44,22.85,1.77,33.56.76,3.71,6.22,2.66,6.37-.86.47-11.08-1.17-22.59-1.59-33.69-.42-11.25,0-22.48-.32-33.73-.07-3-4.1-2.77-4.47,0Z"/>
        <path d="M806.59,318.32c2,3.5,6.89,3,10.48,3.28a82.87,82.87,0,0,0,16.74-.05c4-.5,4.32-6.56,0-6.52-5.27,0-10.53.4-15.81.27-3.7-.08-8.41-1.66-11.19,1.3a1.45,1.45,0,0,0-.22,1.72Z"/>
        <path d="M860.28,250.92c-1.16,11.3-1.45,22.71-1.59,34.06-.07,5.51-.05,11,0,16.55s-.35,11.08.71,16.42c.59,3,5.71,3.13,6.17,0,.75-5.07.24-10.33.17-15.45-.07-5.84-.08-11.68-.09-17.52,0-11.35.21-22.71-.11-34.06-.09-3.44-4.91-3.31-5.25,0Z"/>
        <path d="M863.65,252.68l14.46.25,6.75.11c1.63,0,4.84-.52,6.25.31l-1.64-2.13.2.76.36-2.72,1.11-.76c-3.73.84-3,7.19.92,6.79,5.82-.59,5.75-7.7.3-9.07-4-1-9.2,0-13.28.1l-15.43.37c-3.85.09-3.86,5.92,0,6Z"/>
        <path d="M865.3,284.56c2.54,2.74,6.51,1.37,9.91,1.21,4.79-.22,9.59-.25,14.38-.5,4.2-.21,4.24-6.43,0-6.56a98.75,98.75,0,0,0-15.27.9c-3.36.42-7.46,0-9.23,3.29a1.42,1.42,0,0,0,.21,1.66Z"/>
        <path d="M920.74,246.51c2.3,3.7,7.63,3.64,11.6,4.2a155.06,155.06,0,0,0,16,1.42c10.79.42,22.37.39,33-2,3.72-.85,3-7-.91-6.73-10.42.7-20.59,2.11-31.1,1.86-5-.12-10.06-.46-15.08-1-4-.4-9.49-2.34-12.89.22a1.51,1.51,0,0,0-.53,2Z"/>
        <path d="M948.23,251.43c-2.29,11-2.41,22.64-2.39,33.83,0,5.52.13,11,.41,16.56s-.1,12.12,1.82,17.37c1,2.66,5.63,3.43,6.2,0,.83-5-.2-10.35-.48-15.43q-.48-8.75-.58-17.53c-.11-11.33.84-22.75.41-34.07-.11-3-4.73-3.88-5.39-.73Z"/>
      </g>
      <g>
        <path d="M559.88,274.49c3.25,4.2,7.07,7.92,10.64,11.84,2.14,2.34,4.69,6.65,8.39,6.57,3.11-.06,5.93-3.77,8-5.6l11.55-10.2a3,3,0,0,0,0-4.22C592.09,266.6,586,260.09,580,253.42a3.13,3.13,0,0,0-4.39,0c-5.07,5.79-10.83,11.39-15.18,17.75-1.9,2.78,2.16,5.5,4.46,3.44,5.54-4.95,10.2-11.23,15.11-16.81h-4.39c5.94,6.69,12.18,13.09,18.62,19.3v-4.22l-8.57,7.76c-1.23,1.11-6,6.43-7.15,6.29-.2,0-2.38-2.47-2.86-2.94-1.43-1.38-2.84-2.78-4.25-4.18-2.82-2.81-5.55-5.7-8.61-8.25a2.07,2.07,0,0,0-2.93,2.93Z"/>
        <path d="M1005.62,277.65c.27,7.73,11.11,15,17.22,18.24a3.09,3.09,0,0,0,3.58-.46,112.4,112.4,0,0,0,16.38-16.62,3.08,3.08,0,0,0,0-4.26,107.13,107.13,0,0,1-15.4-17.34,3.1,3.1,0,0,0-4.78-.61c-5.77,5.48-11.68,10.86-17.24,16.56-2.69,2.75,1.36,6.72,4.2,4.19,5.95-5.28,11.6-10.94,17.34-16.45l-4.78-.61a114.58,114.58,0,0,0,16.4,18.52v-4.26a118,118,0,0,1-16.29,16.71l3.57-.46a45.55,45.55,0,0,1-10.38-7.12c-2.51-2.35-4.42-5.82-7.51-7.36a1.56,1.56,0,0,0-2.31,1.33Z"/>
      </g>
    </g>
    <g>
      <path d="M311.85,227.69l-.4.68a2.94,2.94,0,0,0,0,2.95c2.44,4.1,7.08,5.71,11.2,7.69q8.48,4.06,17,8.09c11.62,5.52,23.19,11.24,35,16.44,4.15,1.83,7.84-4.14,3.63-6.21-11.56-5.68-23.38-10.86-35.09-16.22q-8.56-3.93-17.14-7.82c-2.53-1.14-5.44-2-7.77-3.57-1.54-1-2.39-2.3-4.13-2.94a2,2,0,0,0-2.24.91Z"/>
      <path d="M295.21,218.14a3.06,3.06,0,0,0-1.64,5.11l-.25-.32a3.17,3.17,0,0,0,.46.58c.19.15.38.3.58.44s.14,0-.29-.26a2.62,2.62,0,0,0,4.43-2.2,2.6,2.6,0,0,0-4.83-1l0,.06,1.51-1.16-.1,0h1.32c-.72-.15-.3.29,1.25,1.32a2.06,2.06,0,0,1-.91,2.18l-1.27.34c.27,0,.13,0-.43-.14s-.67-.23-.44-.08c1.6,1.11,3.77-.22,4-2a2.64,2.64,0,0,0-.75-2.26,2.83,2.83,0,0,0-2.62-.7Z"/>
      <path d="M279.8,287.39c5.48,2.29,13.22,1.29,19.1,1.42q10.29.22,20.57.6,20.56.78,41.07,2.66c4.7.43,4.67-6.92,0-7.34q-21-1.91-42.05-2.48c-6.85-.18-13.72-.23-20.57-.11-5.85.11-13.18-.58-18.55,1.95-1.58.75-.83,2.77.43,3.3Z"/>
      <path d="M260.91,284a.62.62,0,0,0-.24-.08l1.12.86-.15-.22a3,3,0,0,0-2.12-1.39,3,3,0,0,0-2.45.81,4.1,4.1,0,0,0-1.37,3.13l4.39-2.52.42.34c.31.46.41.58.29.38s.26.78.17.35l.11.78a1.15,1.15,0,0,1,0-.32l-.11.77a1.6,1.6,0,0,1,.05-.21,1.49,1.49,0,0,1-.38.71,1.57,1.57,0,0,1-.59.52c-.52.18-.64.24-.36.17l-.76.11h.24l-.76-.1c.27.07.16,0-.34-.16a1.39,1.39,0,0,1-.53-.49c-.16-.23-.19-.26-.08-.09-.18-.5-.25-.62-.19-.33l-.11-.77a.7.7,0,0,1,0,.25,2.86,2.86,0,0,0,5.6.76c.89-3.11-2.82-6.09-5.63-4.34a3.94,3.94,0,0,0,0,6.71,2.93,2.93,0,0,0,4.39-2.52,2.18,2.18,0,0,1,0-.25l-.1.78c.09-.43-.34.56-.15.29s-.55.57-.2.24a3.28,3.28,0,0,0,1-2.45l-1.87,1.88-.26,0a1.86,1.86,0,1,0,1-3.58Z"/>
      <path d="M313.79,356.79c4.85.61,10.62-3.2,14.91-5.25q8.74-4.19,17.27-8.82c11.06-6,21.89-12.55,32.31-19.65,3.91-2.66.08-9.09-3.7-6.33l-1,.71c-3,2.17-1.37,7.57,2.67,6.33l1.11-.34-2.82-6.7c-10.43,7.12-21,13.94-32,20.19q-8,4.56-16.2,8.82c-4.54,2.35-11.07,4.27-14,8.63a1.62,1.62,0,0,0,1.38,2.41Z"/>
      <path d="M293.07,370.18a2.77,2.77,0,0,0,.54-2.48c-.08-.23-.2-.46-.29-.69l.1.75v-.17l-.85,2a3.44,3.44,0,0,0,.69-4.28,3.43,3.43,0,1,0-5.92,3.46,3.57,3.57,0,0,0,1.64,1.41,3.76,3.76,0,0,0,2.32.15l-2.8-.74c-.23-.35-.27-.39-.13-.12l.17.34a2.81,2.81,0,0,0,2.39,1.37,2.31,2.31,0,0,0,2.13-1Z"/>
    </g>
    <g>
      <path d="M1263.55,273.42a232,232,0,0,0,24.72-9.56c8.2-3.7,17-7.5,24.38-12.72a3.46,3.46,0,0,0-3.49-6c-7.7,3.7-14.91,8.37-22.66,12-8,3.8-16.28,7.12-24.61,10.2-3.72,1.37-2.22,7.27,1.66,6Z"/>
      <path d="M1333.46,238.84c0-.18.11-.36.15-.54a4.47,4.47,0,0,0,0-2.15,3.67,3.67,0,0,0-3.51-2.66,3.72,3.72,0,0,0-3.5,2.66,4.35,4.35,0,0,0,0,2.15c0,.18.1.36.15.54a3.54,3.54,0,0,0,3.39,2.59,3.6,3.6,0,0,0,3.4-2.59Z"/>
      <path d="M1271.88,307.25c5.32,2.45,12.82,1,18.58.84,7.29-.15,14.57-.51,21.84-.83,14.43-.63,29-1.64,43.18,1.56,4.55,1,6.48-6,1.93-7-14.25-3.07-28.69-2.35-43.12-1.43-7.28.46-14.57.88-21.84,1.48-4,.32-8,.68-11.91,1.05-3.15.3-6,.24-8.66,1.87a1.43,1.43,0,0,0,0,2.45Z"/>
      <path d="M1387.5,306.69c-.26-.09-.27-.07,0,0a2.17,2.17,0,0,0-.77-.28l1.46,1.12-.12-.17a2.78,2.78,0,0,0-2.42-1.39c-.72.09-1.46.15-2.17.29a2.61,2.61,0,0,0-1.91,2.5,2.65,2.65,0,0,0,1.91,2.51c.71.14,1.45.2,2.17.29a2.8,2.8,0,0,0,2.42-1.39l.12-.17-1.46,1.12a2.17,2.17,0,0,0,.77-.28c-.26.1-.25.12,0,0a2.2,2.2,0,0,0,0-4.21Z"/>
      <path d="M1259.84,340.34c12.15,6.15,24.59,11.74,37,17.45,11.87,5.48,24.4,11.46,37,14.9,3.77,1,6.49-4.75,2.74-6.52-11.66-5.48-24.31-9.47-36.37-14-12.85-4.85-25.35-10.46-37.88-16.06-2.85-1.28-5.38,2.81-2.49,4.26Z"/>
      <path d="M1352.94,384.73l.13,0-.76-.32a1.88,1.88,0,0,1,.36.21l-.64-.5a2.06,2.06,0,0,1,.3.29l-.49-.64a3,3,0,0,1,.22.35l-.32-.76c.19.46.33.93.54,1.39l-.31-.74,0,.12a3.06,3.06,0,0,0,2.54,2.19,3,3,0,0,0,3-1.46,4,4,0,0,0,.42-2.8,4.61,4.61,0,0,0-.57-1.33,5.08,5.08,0,0,0-2.84-2.14,3.19,3.19,0,0,0-3.88,2.21,3.24,3.24,0,0,0,2.21,3.88Z"/>
    </g>
    <g>
      <path d="M125.19,657.22a81.67,81.67,0,0,0,2.94,27.16,2.44,2.44,0,0,0,4.05,1.07,42.65,42.65,0,0,0,8.21-14.09l-4.39.57c2.11,3.4,7.5,16.47,13.53,11.74,2.62-2,2.89-7.25,3.35-10.25a59.52,59.52,0,0,0,.42-15.66c-.34-3.07-5.14-3.18-4.9,0a65,65,0,0,1-.6,17.17c-.61,3.23-1.8,4.07-3.65,1.08l-4-6.5a2.44,2.44,0,0,0-4.39.57,35.93,35.93,0,0,1-7,11.95l4.05,1.07a103.62,103.62,0,0,1-4.05-25.88,1.78,1.78,0,0,0-3.56,0Z"/>
      <path d="M170.09,679.52c-3.93-2.5-8.85-9.13-2.72-12.45,8.35-4.52,6.3,12.08,3.2,11.12-3.41-1.07-4.87,4.28-1.47,5.35,11.73,3.68,14.27-22.56.49-22.62a10.68,10.68,0,0,0-10.28,9.23c-.68,5.92,3.66,11.45,9.3,12.88a1.93,1.93,0,0,0,1.48-3.51Z"/>
      <path d="M190.24,681.72a64.45,64.45,0,0,1-2.11-7.85,11.33,11.33,0,0,1-.16-4.34c.16-.75,2.16-4.64,3-2.31,1.38,3.67,7.24,2.2,6-1.66-1.85-5.68-9-6.26-12.43-1.58-4,5.48-.92,14.08,2.52,19.07,1.06,1.54,3.74.65,3.16-1.33Z"/>
      <path d="M218.71,669.28c-2.71-9.39-16.11-5.9-17.15,2.77a9.85,9.85,0,0,0,5,9.8c3.6,1.89,8.74,1.17,11.34-2.06,2-2.5-1.11-5.79-3.58-3.57-2.91,2.61-7.48,1.51-7.75-2.79a4.89,4.89,0,0,1,2.51-4.48c1.87-1.14,5.77-1.5,6.79,1.12.68,1.74,3.41,1.09,2.86-.79Z"/>
      <path d="M214.24,654.11c-1.52,7.52-.74,16.85.51,24.39.51,3.08,5.22,2.21,5.29-.72.19-7.39-.36-16.66-2.84-23.67-.46-1.31-2.63-1.6-3,0Z"/>
      <path d="M242.19,656.61c1.73,7.83,4.05,15.74,6.22,23.47.83,3,5.3,1.72,4.6-1.26a117.13,117.13,0,0,0-7.95-23.42c-.8-1.67-3.24-.46-2.87,1.21Z"/>
      <path d="M248.93,654.37c2.17,6.35,4,12.61,5.61,19.14.42,1.71.7,3.57,1.27,5.24a11.19,11.19,0,0,0,.73,1.79c.17.31,2.12,1.75.61.44l2.8-2.8-.13-.14c-1.42-1.56-3.48.15-3.21,1.88l0,.19c.23,1.5,2.36,1.87,3.31.87l-.26.19a2.61,2.61,0,0,0,1.12-2.75c-.49-3.2-1.78-6.42-2.69-9.52-1.58-5.42-3.09-11.07-6.5-15.67-.91-1.23-3.28-.58-2.69,1.14Z"/>
      <path d="M241.38,666.32c6-1.32,12.52-3.94,18.71-3.14,3.8.49,3.21-6.63-.72-5.27-6.37,2.21-13,2.51-19.09,5.8-1.47.79-.44,2.94,1.1,2.61Z"/>
      <path d="M243.74,673.58c2.94.36,6-1.28,8.82-2a52.62,52.62,0,0,1,10.75-1.34c3.53-.09,3.44-5.75,0-5.43a68.12,68.12,0,0,0-12,2.12c-3.18.9-6.73,1.72-8.8,4.41-.76,1,.32,2.09,1.26,2.2Z"/>
      <path d="M270.6,660.15c2.64-1,4.36-3.18,7.06-4.25l-3.26-2.48a155.85,155.85,0,0,0,1,26.54c.46,3.44,5.4,3.68,5.55,0a159,159,0,0,0-1.53-27.22c-.24-1.77-2.48-2.19-3.78-1.54-3.23,1.6-6.5,3.76-7,7.51a1.49,1.49,0,0,0,1.89,1.44Z"/>
      <path d="M273.29,683.36a100.78,100.78,0,0,1,11.13.13c3.24.16,4-5.11.78-5.73a24.26,24.26,0,0,0-12.52,1.09c-2.29.82-2.14,4.68.61,4.51Z"/>
    </g>
    <g>
      <path d="M863.85,657.4a84.28,84.28,0,0,0-.44,16.27c.24,2.93.21,7.22,2.74,9.28,5.35,4.37,11.68-6,13.6-9.72l-4.19.54c3,2.7,11.41,11.58,15.56,6.82,1.92-2.19,1.69-6.38,1.91-9a79.55,79.55,0,0,0,0-15c-.38-3.4-5.56-3.58-5.45,0a142.37,142.37,0,0,1,0,15c-.1,1.25-.22,2.5-.37,3.74-.28.84-.82.67-1.63-.53-2.26-1.06-4.29-3.14-6.16-4.77-1.21-1-3.39-1.1-4.2.54-1,2.05-2.19,4.63-4,6.06-3,2.37-2.47-.91-2.8-3.87-.56-5.09-.45-10.21-.7-15.32a1.88,1.88,0,0,0-3.75,0Z"/>
      <path d="M906.68,679.63c-6.19-.31-5-13.55.23-12.58s6.69,12.25.21,12.21c-3.51,0-3.51,5.44,0,5.45,13.8,0,11.83-22.88-.73-23.11-13.3-.25-10.91,26.15.76,21.52a1.79,1.79,0,0,0-.47-3.49Z"/>
      <path d="M925.63,680.43a44.27,44.27,0,0,1-1.51-9.28c0-1.66-.12-3.35,1.34-4.5,1.13-.89,3.95-1.68,4.28.33.63,3.7,6.4,2.16,5.67-1.56-1.28-6.61-9.94-6.5-14.07-2.64-5.21,4.87-1.7,13.82,1.38,18.88a1.6,1.6,0,0,0,2.91-1.23Z"/>
      <path d="M954.22,666.49c-1.14-3.57-5.11-5-8.58-4-4.14,1.12-6.26,5.43-6.58,9.43-.33,4.21,1.15,8.34,5.27,10,3.61,1.47,8.69,1.9,10.44-2.27.89-2.11-2.37-3.84-3.8-2.21-1.11,1.26-3.7.6-5.05-.08-2-1-2.31-3.38-2.08-5.45.43-3.8,4.21-7.41,7.36-3.64,1.17,1.4,3.55-.09,3-1.75Z"/>
      <path d="M950.78,654.47c-1,8.22-2,17.47.46,25.52a2.15,2.15,0,0,0,4.2-.57c.35-8.25-1.39-16.67-1.54-24.95,0-2.07-2.89-2-3.12,0Z"/>
      <path d="M981.67,653.32q-1.75,12.84-4.54,25.46c-.69,3.08,4.2,4.29,4.65,1.29q2-13.11,2.94-26.33c.13-1.72-2.81-2.16-3.05-.42Z"/>
      <path d="M989.52,653.26a157,157,0,0,0-4.41,26.12c-.23,2.33,3.72,2.89,4.12.56,1.47-8.68,3.06-17.42,4.09-26.17.26-2.2-3.24-2.56-3.8-.51Z"/>
      <path d="M974.63,665.1c6.61.39,13.2.86,19.82.93,3.08,0,3.09-4.82,0-4.79-6.63.07-13.21.54-19.82.93a1.47,1.47,0,0,0,0,2.93Z"/>
      <path d="M974.29,675c6,.58,12.31-.1,18.32-.43,3.35-.18,3.34-5.46,0-5.21-6.2.46-12.76.6-18.82,2-2.17.5-1.47,3.46.5,3.65Z"/>
      <path d="M1004.36,660.13q2.34-3.87,6.21-1.07a11.09,11.09,0,0,1,.19,3.4,20.58,20.58,0,0,1-1.13,5.36,21.48,21.48,0,0,1-3.18,5.93,13.21,13.21,0,0,1-1.76,2.12q-3.16,2.29,2.69,1.59c2.57,1.42,3.49,3.58,6.78,4.19a11,11,0,0,0,7.33-1.4c2.89-1.55.29-6-2.57-4.4-6.06,3.43-8.09-3.43-13.47-3.55-2.71-.06-5.76,1.85-6.46,4.56a3.58,3.58,0,0,0,3,4.65c3.39.51,6.18-3,7.95-5.44,3.44-4.7,8.53-16.4,3-21.37-4.47-4-14.38.35-11.67,6.76.79,1.86,3.6.5,3.16-1.33Z"/>
    </g>
    <g>
      <path d="M133.45,954.67c-.45-6-1.48-12-1.36-18,0-2,0-3.08,1.31-4.67,2.43-3,6.74-1.37,6.93,2.43.21,4-4.07,8.45-7.9,8.26-3.1-.15-3,4.44,0,4.75,11.16,1.16,19.16-18,6.77-22.08a9.5,9.5,0,0,0-12,6.63c-1.76,6.77.45,16.61,2.24,23.22.59,2.17,4.21,1.82,4-.54Z"/>
      <path d="M136.46,946.55c1.41.31,2.52.46,3.46,1.66a10.07,10.07,0,0,1,1.61,4.12c.73,3,2.58,6.38,6.18,6a2.66,2.66,0,0,0,.7-5.2c-1.52-.57-1.58-3-2.09-4.26a10.24,10.24,0,0,0-2.41-3.74c-2-1.94-5.23-3.44-7.89-1.92a1.85,1.85,0,0,0,.44,3.34Z"/>
      <path d="M156,946.4a14.84,14.84,0,0,0,8.07.19,5.32,5.32,0,0,0,3.91-4.33c.55-5.89-7.83-6.69-11.68-4.83-4.7,2.28-4.66,9.73-2.58,13.8,2.52,4.93,9.87,6,12.91,1,1.27-2.12-1.52-3.92-3.24-2.5-3,2.46-6.39,1.8-6.71-2.48-.18-2.41-.37-5.51,2.35-6.39.66-.21,2.55-.63,3.23-.3q2.34,2.07.38,2.23a6.49,6.49,0,0,1-1.76.08c-2,0-4.07-.56-5.51,1.2a1.45,1.45,0,0,0,.63,2.37Z"/>
      <path d="M185.25,936.84c-2.49-.9-5.41-1.26-7.38.93a4.41,4.41,0,0,0-.37,5.63c1.63,2.1,4.13,1.34,6.15,2.56,4.45,2.69-1.79,8.73-4.82,3.56-1.63-2.76-6-.24-4.31,2.52,3.34,5.59,11.93,5.91,14.39-.71a7.34,7.34,0,0,0-1.57-7.6,8,8,0,0,0-3.57-2c-.49-.14-1.58-.12-1.91-.46-1.23-1.28,2.25-1.32,3-1.33a1.58,1.58,0,0,0,.42-3.08Z"/>
      <path d="M198.18,938.3c-2.82,5.47-3.82,17.85,5.62,16.43,7.93-1.2,8.93-10,6.21-16.08-.73-1.63-3.57-.45-2.91,1.23.85,2.16,1.58,4.51,1.07,6.84-.41,1.9-1.91,4.4-4.17,4.29-5.43-.27-4.09-8.37-3.39-11.68.29-1.4-1.7-2.44-2.43-1Z"/>
      <path d="M219.07,926.56a61,61,0,0,0-1,9.64c-.25,3.28-1.09,6.66-.95,9.94.18,4,2.23,7.88,6.62,7.81,2.09,0,3.1-3.06,1.11-4.1-5.66-3-2-17.55-2.68-22.88-.2-1.62-2.64-2.29-3.09-.41Z"/>
      <path d="M233.77,926.23c-1.27,3.81-.83,8-.85,12,0,3.66-.49,7.6.11,11.2.74,4.46,3.9,8.1,8.69,6.76,2.53-.71,1.46-4.67-1.09-4-5.06,1.42-3.64-11.5-3.63-14,0-4,.51-8.18-.73-12a1.31,1.31,0,0,0-2.5,0Z"/>
      <path d="M230.05,938.51a33.28,33.28,0,0,1,10.57.86c3.15.85,4-4.11.61-4.53a27.57,27.57,0,0,0-11.57.83c-1.49.48-1.31,2.92.39,2.84Z"/>
    </g>
    <g>
      <path d="M125.9,699.59c-2.44,44.55-1.49,89.31-1.49,133.94,0,4.61,7.17,4.62,7.17,0,0-44.63.95-89.39-1.48-133.94a2.1,2.1,0,0,0-4.2,0Z"/>
      <path d="M126.58,705.18c80,.58,159.94-.08,239.91-.53q119.42-.67,238.81-1.36c44.1-.23,87.94.44,131.73,6.14,4,.52,5-6.46,1-7.11-38.25-6.23-77.38-6.61-116-6.54-39.83.07-79.67.42-119.49.65q-120,.68-239.92,1.36c-45.32.31-90.64.74-135.95,1.57-3.74.07-3.75,5.8,0,5.82Z"/>
      <path d="M735.81,704c-3.38,2.31-2.46,6.38-2.49,10.1-.05,5.6,0,11.2-.1,16.79q-.18,17.3-.82,34.58c-.85,22.74-2.76,45.37-4.16,68.06-.29,4.67,6.68,4.5,7.17,0,2.44-22.56,3.28-45.39,4-68.06q.5-16.79.57-33.59c0-5.6,0-11.2-.06-16.8-.07-3.87,1-8.73-2.67-11.08a1.38,1.38,0,0,0-1.4,0Z"/>
      <path d="M129.41,837.72c19.53,1.33,39.24,1,58.81,1.27s39.2.47,58.8.64q58.82.52,117.62.66,117.14.44,234.25,0,66.29-.27,132.57-.83c4.79,0,4.8-7.48,0-7.44q-117.62,1-235.24,1.07-117.12.08-234.24-.75-32.9-.22-65.79-.42c-22.22-.11-44.59-1-66.78,0a2.92,2.92,0,0,0,0,5.84Z"/>
    </g>
    <g>
      <path d="M862.14,698.2c-2,22.4-1.6,45.22-1.51,67.69s-.44,45.31,1.49,67.68c.39,4.59,7.21,4.75,7.26,0,.26-22.52-1.28-45.14-1.44-67.68s.77-45.18-.09-67.69c-.15-3.71-5.38-3.61-5.71,0Z"/>
      <path d="M864.32,701.93c18.34,5.26,37.26,4.28,56.11,3.4q29.85-1.41,59.71-2.25c40.16-1.14,80.33-1.54,120.5-1.48,80.37.11,160.73,2,241.08,3.54l135.5,2.65c4.78.1,4.78-7.32,0-7.42q-119.55-2.34-239.11-4.67c-79.67-1.44-159.38-2.37-239-.56-22.57.51-45.13,1.22-67.68,2.25-21.7,1-44,3.3-65.34-1.74-4.06-.95-5.76,5.12-1.72,6.28Z"/>
      <path d="M1478.89,700.75l-.28,0c-1.43.19-3.17,1-3.43,2.62a374.61,374.61,0,0,0-4.34,64.27q.21,16.13,1.68,32.2c1,10.92,2.86,21.71,2.16,32.71-.3,4.81,6.78,4.57,7.35,0,1.31-10.52-1-21.27-2-31.74q-1.53-16.05-1.77-32.19c-.34-21.56,1.33-42.92,3.88-64.31a3.43,3.43,0,0,0-1.76-3.07,3.82,3.82,0,0,0-1.52-.52Z"/>
      <path d="M866.8,837.55c40,.38,80,1.29,120,1.59,39.66.29,79.32.09,119,.06q119-.09,238-.23l135-.14c4.8,0,4.81-7.47,0-7.46l-239,.24c-79.32.08-158.64-.05-238,.35-45,.22-90,1.43-135,1.94a1.83,1.83,0,0,0,0,3.65Z"/>
    </g>
    <g>
      <path d="M769,772c8.17,1.14,16.69,1.09,24.93,1.29,8.78.21,17.56.61,26.35.5,4.73-.06,4.73-7.28,0-7.34-8.79-.11-17.57.3-26.35.51-8.25.19-16.75.14-24.93,1.28-1.86.26-1.86,3.51,0,3.76Z"/>
      <path d="M788.26,746.11c.82,15.53,1.89,31,2.6,46.54.22,4.7,7.44,4.75,7.35,0A251.77,251.77,0,0,0,793,745.47c-.57-2.66-4.9-2.09-4.76.64Z"/>
    </g>
    <g>
      <path d="M124.63,973c2.84,33.78-.36,67.78-2.36,101.51q-3.06,51.58-3.71,103.27c-1,68.93.66,137.87,3.27,206.75,1.48,39.09,3.27,78.17,5.06,117.25.22,4.68,7.52,4.7,7.31,0C131,1432.85,127.88,1364,126.38,1295s-1.33-137.84,2.13-206.66c1.94-38.45,6.33-77,1.4-115.4-.42-3.27-5.56-3.44-5.28,0Z"/>
      <path d="M129.67,974c87.41.49,174.87-1.81,262.28-2.6s174.87-1.28,262.3-1.45q261-.51,521.92,2.73,147.19,1.82,294.38,4.82c4.8.1,4.8-7.36,0-7.46q-262.24-5.34-524.55-6.94-261-1.58-521.93.57c-98.09.81-196.37.6-294.4,4.34-3.84.14-3.87,6,0,6Z"/>
      <path d="M1471.51,973.76c-3,16.82-2.55,34.57-3.26,51.61q-1.08,26-2,51.89-1.89,52.89-3.13,105.81-2.46,104.82-2.36,209.68c0,37.17-2.44,76.07,7.84,112.21,1.3,4.58,8.46,2.64,7.16-2-9.1-32.09-7.47-66.22-7.55-99.24q-.14-51.93.35-103.86,1-103.85,4.47-207.65,1-29.45,2.18-58.88.58-14.46,1.21-28.93c.41-9.95,1.32-20,.49-29.93-.24-2.85-4.81-4-5.39-.73Z"/>
      <path d="M129.69,1505.06c88,1.29,176.06.86,264.08,1.14s176.05.5,264.08.7q262.74.58,525.47.77,148.22.09,296.42.06c4.8,0,4.81-7.46,0-7.46q-264.08.06-528.16-.3-262.74-.36-525.47-1.13c-98.8-.28-197.63-1.45-296.42-.76-4.49,0-4.49,6.91,0,7Z"/>
    </g>
    <g>
      <path d="M101.86,390.56c2.6.95,4-.33,6.26-1.77,3-1.93,6-3.91,9-5.78A198.38,198.38,0,0,1,136,372.76c12.79-6.05,26.51-11.17,40.81-11.42,25.51-.45,49.53,12.74,66,31.64l.75-5.85-4.48,2.75c-4.08,2.51-.33,9,3.77,6.44l4.47-2.75a3.79,3.79,0,0,0,.76-5.86c-17.54-20.1-43.44-34-70.51-33.79-14.74.13-28.66,5.14-41.9,11.24a175.75,175.75,0,0,0-20.43,11.06q-5.31,3.34-10.29,7.15c-2.17,1.65-4.28,2.93-4.07,5.9a1.4,1.4,0,0,0,1,1.29Z"/>
      <path d="M103.28,386.92c4.57,11.27,16.54,17.38,27.53,20.81,13.48,4.21,28.06,6.22,42.15,6.83a136.9,136.9,0,0,0,43.26-4.62,105.17,105.17,0,0,0,19-7.44c4.49-2.29,12.26-5.09,10.91-11.37a3.75,3.75,0,0,0-3.56-2.71l-.56-.05c-4.07-.32-5.05,6.49-1,7.2l.55.09-2.7-3.55c0,.1-6.08,3.25-6.72,3.58a92.14,92.14,0,0,1-8.7,4,105.79,105.79,0,0,1-17.1,5,136.65,136.65,0,0,1-35.88,2.3,178.1,178.1,0,0,1-34.95-5.46c-11-2.9-20.36-7.42-27.21-16.73-1.67-2.28-6.31-1-5,2.12Z"/>
      <path d="M148.63,362.15c-9.59,3.08-9.3,19-6.28,26.38,4.27,10.48,15.18,17,26.2,17.83,12.31.95,24.87-5.08,33-14.13,7.36-8.18,12.54-22.74,4.15-32.08-2-2.26-6.47.12-5.31,3.09,1.78,4.54,3.32,8.41,2.24,13.39a25.6,25.6,0,0,1-6.91,12c-6.62,6.85-16,11.59-25.7,11.31-8.71-.26-17.62-4.91-21.57-12.91a21.14,21.14,0,0,1-1.71-12.83c.62-3.7,3-6.64,3.73-10.2a1.52,1.52,0,0,0-1.86-1.86Z"/>
      <path d="M171.65,382c-2.89-.45-3.16-4-3-6.45a6.73,6.73,0,0,1,4.77-5.88c2.91-1.06,4.15,0,4.94,2.75.25.89.79,2.73.34,3.67-.34.7-4.66,3.56-5.67,2.48l.13-1.89c-.9.25-.77.1.39-.44,1.53-.6,1.25-.91-.82-.94l.08,1.25-.09,1c-.46,1-.47,1.2,0,.63-.14-.24-.29-3.52.36-4.18,2.34-2.35,3,3.14,2.51,4.51a4,4,0,0,1-5.66,2l-1.87,6.92c6.91.29,14.21-1,16.57-8.44l-7.29-1c-.22,1.74-4,2.48-5.35,2.79-3,.68-4.71-.05-5.33-3.17-1.06-5.3.36-9,5.87-10.32,11.57-2.71,7.7,21.24-4.45,13.78-3.83-2.35-7.27,3.61-3.51,6,9.11,5.81,20.61-.22,22.3-10.55a15.91,15.91,0,0,0-4-13.55c-3.87-3.95-9.15-4-14.13-2.32-4.76,1.62-8.37,4.63-9.46,9.7-1,4.52-.41,10.87,2.49,14.62,3.32,4.3,8.63,4,13.38,2.62,5.14-1.48,8.88-4.05,9.59-9.61.55-4.31-6.08-4.79-7.29-1s-6.43,3.11-9.41,3c-3.65-.16-5.09,5.2-1.87,6.91a11.56,11.56,0,0,0,16.64-13.34c-1.1-4-4.72-8.56-9.28-8.21-5.43.41-8.54,6.39-8.32,11.31.21,4.54,3.69,9.76,8.84,8.89,4.48-.76,6.25-5.49,6.13-9.56-.13-4.42-3.58-9.18-8.51-7.41-4.11,1.47-5.37,6.77-3.71,10.46s6.83,6.06,10.08,2.71c3-3.12,2.39-9.13-1.07-11.69-10.28-7.58-16.48,15.2-4.27,14.14a6.57,6.57,0,0,0,5.17-9.64,6.89,6.89,0,0,0-11.2-1,7.54,7.54,0,0,0,2.48,11.33c4.46,2.37,11.06.43,14.46-3,3.83-3.89,2.93-11.09.27-15.42-2.93-4.78-8.86-5.28-13.62-3.15a13.65,13.65,0,0,0-8.51,13.46c.19,5.37,2.62,11.8,9.08,11.17,3.09-.31,4.45-5.38.8-6Z"/>
    </g>
    <g>
      <path d="M151.6,99.62c6.89-4.84,14-9.28,21.32-13.42s14.83-7.56,23.54-7.76c8.49-.18,16.68,2.09,24.32,5.65,7.19,3.34,13.36,8.09,20.2,12a2.83,2.83,0,0,0,3.42-4.43c-12-12.17-30.79-20.6-47.94-20.17-18.41.47-34.76,12.65-46.62,25.86-1,1.17.34,3.29,1.76,2.29Z"/>
      <path d="M152.21,97.57c8.16,14.66,28.58,21.23,44.36,22a47,47,0,0,0,24.6-5.24c7.17-3.85,15.6-10.3,19.88-17.28a2.32,2.32,0,0,0-3.15-3.15c-6.36,4-11,10.37-17.47,14.36a41,41,0,0,1-23,5.76c-15.29-.48-32.2-7.26-43-18.15a1.4,1.4,0,0,0-2.19,1.69Z"/>
      <path d="M176.3,81.62c-5.8,1.23-7.36,10.44-7.24,15.32.16,7.16,5,13.39,10.25,17.85,2.61,2.22,6.39-1.44,3.81-3.82-3.36-3.1-7-6.69-8.28-11.21-1.18-4.13-.31-12.39,2.94-15.61a1.53,1.53,0,0,0-1.48-2.53Z"/>
      <path d="M218.44,82.57c3.31,3.88,3.95,9.48,3,14.31-.67,3.48-2.29,10.33-5.74,12.11-3,1.56-.76,5.57,2.15,5.1,6.18-1,8.76-11.28,9.49-16.41,1-6.92-1-13.18-6.36-17.67a1.81,1.81,0,0,0-2.56,2.56Z"/>
      <path d="M197,99.47c-2.42-.93-5.31-1.54-5.27-4.78,0-2.6,2.45-4.32,4.89-4.42,4.54-.2,9.85,4.67,5.94,8.92-2.61,2.86-10.93,1.87-10.48-3.1.23-2.42,3.94-3.41,5.95-2.59,4.83,2-1.32,6.49-2.69,3.76,2,4.06,8.16.49,6.11-3.57-3.52-7-13.92-.88-9.87,5.65,4.18,6.74,15,.16,9.72-6.43-4.86-6.08-14.06-.09-11.3,6.88,2.82,7.15,13.33,5.78,15.8-.89,2.76-7.43-4.26-12.79-11.11-11.89-7.56,1-11.9,8.52-7.14,15.13,4,5.59,12.71,7.09,18.25,2.9a11.15,11.15,0,0,0,1.15-17c-5.72-5.45-16.08-5.59-20.13,1.9-3.4,6.29,3.21,17.44,10.58,12.6a1.72,1.72,0,0,0-.4-3.1Z"/>
    </g>
    <g>
      <path d="M391.41,547.68C408.3,534.76,425,521.14,447.48,522c22.19.83,41.3,13.91,55.62,30,3,3.35,7.85-1.57,4.92-4.92-15.31-17.48-36-30.62-59.67-31.8C424.87,514.1,403.76,527,388.55,544c-1.67,1.86.62,5.41,2.86,3.69Z"/>
      <path d="M393,545.67l-.28-.48a2.64,2.64,0,0,0-2.94-1.2l-.68.24a3.07,3.07,0,0,0-2.07,3.65c.66,3.75,5.24,6.74,8,8.92a68.76,68.76,0,0,0,14.55,8.71c10.81,4.74,22.37,6.34,34.1,6.35,22.54,0,46.11-4.15,65.2-16.72,3.7-2.44.31-8.38-3.5-6-17.18,10.76-36.93,15.09-57,15.74-10.71.35-21.46-.26-31.65-3.8a64.94,64.94,0,0,1-13-6.31,66.4,66.4,0,0,1-5.92-4.18c-1.07-.84-2.1-1.7-3.13-2.59s-1.33-2-1.7-.82L391.13,549l.54-.14a2.2,2.2,0,0,0,1.3-3.2Z"/>
      <path d="M431.27,520.13c-10.75,3.79-17.23,15.1-15.94,26.33s10.57,21.3,21.77,23c3.73.57,5.45-4.83,1.6-5.81-8.66-2.19-15.94-8.39-17.29-17.62s3.95-17.67,11.21-22.72c1.51-1.06.64-3.9-1.35-3.2Z"/>
      <path d="M468.41,526c3.29,6.29,8.1,11.74,9.65,18.85,1.45,6.66-.44,13.37-6.08,17.4-3.13,2.22-.44,7.06,3,5.21,17.75-9.44,8-34.54-4.3-43.77-1.45-1.09-3,1-2.31,2.31Z"/>
      <path d="M451.8,546.16a1.54,1.54,0,0,1-1.53-.3l.75,1.82c.13,1.09.67-1.15.48-.76-.25-.54-.18-.84.19-.89s.45,0,.59.36c-.17.27.05.63-.22.84s-1.75,0-2.13,0c-1.25-.11-3.08-.34-2.87-1.88a4.13,4.13,0,0,1,2.43-2.59c2.11-.85,4.9,1,3.4,3.31-1.17,1.8-5.47,1.57-5.44-1,0-1.93,3.8-4.11,5.56-3.74,2.79.58,1.53,4-.06,5.15-2.54,1.77-4.15-.11-5.22-2.45-.83-1.79-.83-2.49,1.12-3.18.79-.29,2.85-.89,3.25.27,1.45,4.14,8.1,2.32,6.6-1.81s-5.4-6.12-9.72-5.44-8.66,3.4-8.66,8.16a14.09,14.09,0,0,0,5.52,10.44c3.6,2.63,8.27,1.83,11.62-.86,6.76-5.42,4.17-17.69-5.48-17-8.29.56-15.87,10.94-8,17.33,6.81,5.51,18.15-.3,15.82-9.38-2.38-9.24-14.93-8-18.58-.52a7.68,7.68,0,0,0,3.41,10.49c3.13,1.63,8.75,2.11,11.56-.45a7.06,7.06,0,0,0-.24-10.37,6.32,6.32,0,0,0-9.21,1.24c-2.29,3.56-.26,8.54,4.12,8.92,4.09.36,7.86-4.26,4.79-7.83-2.6-3-8.63-2.51-9.94,1.54a3.92,3.92,0,0,0,2,4.73c1.91.88,3.75-.16,5.18-1.43a1.57,1.57,0,0,0-1.1-2.65Z"/>
    </g>
    <g>
      <path d="M918.93,552.83c21.42-19.38,49.12-32.27,78.28-32.77a101.67,101.67,0,0,1,44.44,9c13.16,6.11,23.58,15,33.39,25.53,2.31,2.47,6.81-.83,4.77-3.68-18.11-25.31-51.37-38-81.7-37.38-30.86.63-61,13.73-81.34,37.1a1.53,1.53,0,0,0,2.16,2.16Z"/>
      <path d="M916.65,553.87c8.79,10.65,21.16,17,34,21.36a160.79,160.79,0,0,0,43.86,8.87c29.82,1.47,60-8.93,83.91-26.55,3-2.23.18-7.33-3-5.13-23.29,16.18-50.67,25.81-79.24,24.82-13.73-.48-27.58-3.56-40.79-7.22s-25.93-9.38-36.26-18.66a1.78,1.78,0,0,0-2.51,2.51Z"/>
      <path d="M963.5,526.21a1.44,1.44,0,0,0,0-2.87,1.44,1.44,0,0,0,0,2.87Z"/>
      <path d="M978.44,516.8c-14.34,2.74-19.49,20.55-16.92,33,1.37,6.56,4.76,13.75,10.16,17.89,6.17,4.73,14.91,5.34,22.39,5.52,14.46.35,30.18-4.84,36.33-19,5.65-13,5.77-32.56-9.92-38.27-4-1.46-5.72,4.92-1.75,6.37,12.36,4.5,9.78,23.4,4.29,32.28-6.41,10.35-19.5,12.84-30.77,12.38-6-.24-13.46-.57-18.1-4.86-3.95-3.65-6.28-9.39-7.24-14.58-2.23-12.2,4-20.94,13.06-28,1.37-1.06-.17-2.88-1.53-2.62Z"/>
      <path d="M996.94,541.22c0,.59.35.64.9.14,1-.19,1-.39,0-.61-.61-.52-1.15-.4-1.63.37l1.77-.43c.14,2.58-.57,3.45-2.15,2.6a3.48,3.48,0,0,1-2.59-1.75c-.39-1.41,1.34-2.51,2.3-2.89,5-1.95,8.22,5.23,1.68,7-3.11.82-7-.32-6.61-4.22.85-7.67,15.61-6.15,13.21,2.12-1.08,3.72-8.24,7.52-12.06,4.91-2.28-1.56-4.54-5.73-3.91-8.43,1.68-7.2,10.41-8.08,15.49-4.36,2.61,1.91,5.58,5.31,4.64,8.84-.74,2.75-4.1,4.66-6.39,5.88-2.94,1.57-6.39,2.61-9.71,1.68s-7.54-4.07-7.38-7.71,8.93-15.82,12.94-9.48c2.3,3.63,8.12.26,5.79-3.38-9.72-15.15-33.55,8-22.72,21,5.9,7.06,15,8.56,23.17,4.74,7.79-3.62,14.31-10.65,10.06-19.65-3.31-7-12.41-12.94-20.27-10.89-7.21,1.88-14.2,9.49-12.26,17.35,2.1,8.49,9.75,13.71,18.15,11.18s15.06-9.87,10.32-18.68c-3.74-7-12.94-8.85-19.63-5s-8.83,13.31-2.72,18.66c5.37,4.69,16.26,2.9,19.4-3.56,3.8-7.81-1-15.34-9.59-15-6.73.31-13.77,5.39-10,12.73,3.19,6.19,13,8.29,17.51,2.35,4.86-6.41-1.49-13.93-8.73-12.44-6.46,1.33-9.59,9.88-2.76,13.25,7.21,3.57,14.94-8,8-12.3-6-3.74-15,6-8.93,11.19,6.29,5.42,14.58-5,7.63-9.8-6.36-4.41-12.24,5.49-5.69,9.63a2.54,2.54,0,0,0,2.53,0,7.87,7.87,0,0,0,2.6-2c1.63-1.66-.42-4-2.38-3.09Z"/>
    </g>
    <g>
      <path d="M1338.09,585.39c12.77-10.35,24.83-21.71,39.37-29.62,13.92-7.56,29.37-11.76,45.26-10.34,27.84,2.47,54.09,17.08,69.83,40.31,2.15,3.18,7,.41,5.18-3-14.16-26.5-44.13-41.14-73.18-44-35-3.46-67.67,17.9-89.56,43.58a2.19,2.19,0,0,0,3.1,3.1Z"/>
      <path d="M1334.76,586.9c22.78,16.67,53.5,20.86,80.92,22.89,14,1,28.23-1.81,41.76-5.32A164.09,164.09,0,0,0,1497,588.79c3.38-1.91.41-6.81-3-5.16a207.49,207.49,0,0,1-38.35,14.12c-13.3,3.46-27,6.13-40.83,5s-27.54-2.73-40.88-6.09c-13-3.27-25.08-8.73-37.47-13.65-2.41-1-3.42,2.58-1.64,3.89Z"/>
      <path d="M1437.58,545.87c4.39,2.71,8.71,8.39,11.31,12.75a30.73,30.73,0,0,1,4.35,16.25c-.2,11.91-7.63,24.91-20.18,26.52-2.76.35-3.91,4.46-.72,5.25,15,3.7,25.49-15.85,27-27.91a36.08,36.08,0,0,0-4-21.31,33.76,33.76,0,0,0-6.67-8.8c-2.92-2.74-6-3.73-9.48-5.48a1.58,1.58,0,0,0-1.59,2.73Z"/>
      <path d="M1393.86,543.38c-12.17,6.46-18.14,21.61-16.42,34.83,1.7,13,12.11,30.12,26.92,30.13,4,0,3.71-5.53,0-6-12.35-1.5-20.63-15.84-21.33-27.25-.7-11.58,5.17-21,13-28.94a1.79,1.79,0,0,0-2.16-2.79Z"/>
      <path d="M1416.66,575.72q4.59-4-1.3-2.09l-.29-1.63q3.59,3.9,1.1,1.55-2.42-1.65,1.45-.71c1.66.3,3,1.33,4.52,1.77q1.86,1.65,1-.06c-.24-1.43-.8-1.16-1.7.81-1.18,1-6.48,3.24-6.66-.09-.12-2.06,3.82-4.84,5.83-4,2.46,1,1.17,3.6-.13,4.59a8.79,8.79,0,0,1-5.07,1.46c-6,.15-5.28-5.87-1.71-8.62,3.32-2.54,7.38-2.26,10.12,1,7.31,8.8-11.51,14.06-15.27,6.6-4.37-8.65,7.9-12.62,14-10.32,3.39,1.27,6.73,4.86,6.24,8.89-.45,3.71-5.44,5.52-8.52,6.24a27.79,27.79,0,0,1-10,.52c-4.58-.7-5.86-5.43-5.51-9.52s2.64-8,7.17-7.94c3.12,0,6.33,1.63,7.38,4.72l4.32-4.32c-.18-.05-1.32-2.9-1.53-3.22a9.53,9.53,0,0,0-2.61-2.57,10.15,10.15,0,0,0-8.13-1.36c-4.11.81-2.36,7.05,1.73,6.27,3.63-.7,9.78-1.41,10.27,3.85.39,4.29,7.19,4.25,6.7,0-1.18-10.23-10.08-11.45-18.7-10.12l1.73,6.27c3.39-.55,3.52,3.09,4.84,5a6,6,0,0,0,3.83,2.6,3.54,3.54,0,0,0,4.32-4.32c-2.92-8.81-15.33-13.39-22.91-7.19-8.06,6.6-8,23.64,2.35,28,8.68,3.7,24.25.82,29.14-7.93,2.57-4.58,1-10.88-1.86-15-3.28-4.75-9.7-7.05-15.3-7-10.18.05-19.54,9.52-16,19.93,3.6,10.74,19.13,11.53,27,5,9-7.54,1.85-21.72-8.69-22.92-9.52-1.08-19.78,9.51-14.8,18.91,4.51,8.52,20.71,6.91,23.61-2.19,1.22-3.81,1-9-2.73-11.33s-10.5-1-14,1.41c-9.63,6.6-1,19.81,9.16,16.79,3.65-1.08,8.47-4.79,8.85-8.9.46-4.92-5.75-7.25-9.63-8.31-4.37-1.19-9.75-.61-12.24,3.71-2.39,4.14-.15,9.3,4.1,11,8.85,3.62,19-9.12,9.57-15-9-5.63-18.48,7.58-10.73,14.32,7.45,6.48,16.94-5.79,8.91-11.26-3.49-2.39-9-1.05-10.58,3-1.76,4.5,2.59,7.49,6.66,7.67,4.37.2,9.16-3.36,8.28-8.15s-6.94-5.52-10.4-2.83c-3.29,2.55-3,7.86,1,9.55a5.38,5.38,0,0,0,7.33-5.58,5.55,5.55,0,0,0-8.85-3.57c-3.48,2.76-2.29,8.07,1.52,9.76,2.16,1,4-1.92,1.89-3.24Z"/>
    </g>
    <g>
      <path d="M1344.42,130.47c16.25-14.35,37.17-20.25,58.65-17.75a99.59,99.59,0,0,1,30.37,8.6,69.28,69.28,0,0,1,12.33,7.31,52,52,0,0,1,5.52,4.75c.71.7,5.28,4.89,5,5.57l4.08-2.32-.49-.1c-4.13-.85-5.9,5.25-1.76,6.37l.48.13a3.43,3.43,0,0,0,4.08-2.32c1.78-4.3-3.51-8.77-6.22-11.46A65.28,65.28,0,0,0,1442.9,119c-10.53-6-22.49-9.54-34.44-11.27-23.55-3.42-50.73.64-66.61,20.14a1.82,1.82,0,0,0,2.57,2.57Z"/>
      <path d="M1346.34,126.59c2.33,4.49,4.31,8.25,7.87,12a58.53,58.53,0,0,0,11.33,9.1c9.15,5.73,19.53,8.42,30.15,9.83,22.76,3,46.83.85,64.91-14.62,2.73-2.34-1.22-6.24-3.94-3.94-16.82,14.27-40.11,15.11-61,12.17-18.74-2.63-35.11-11.44-47-26.33-1.08-1.35-3,.37-2.3,1.78Z"/>
      <path d="M1385.15,108.78c-9.5,2.49-13.47,14.17-11.42,23,2.47,10.63,12.08,17.94,22.57,19.49s22-2.31,28.77-10.75c5-6.28,9.86-21.23,1.59-27-3-2.07-5.8,2.8-2.84,4.86,2.66,1.84,1.3,9.09.55,11.59a21.08,21.08,0,0,1-6.69,10.07,26.63,26.63,0,0,1-21.78,5.38c-7.46-1.48-14-6.39-16.47-13.74-2.78-8.32,1.23-15,7.07-20.57a1.4,1.4,0,0,0-1.35-2.32Z"/>
      <path d="M1400.13,125.56c.41,2.48,1.07,2.95,2,1.39-.56-.49-.55-.5,0,0a.53.53,0,0,1,.1-.61c.28-.1.26-.24-.08-.44a.7.7,0,0,1,0-.81c1-1.23,2.92,1.57.62,2.1-.63.14-2.12-.64-1.89-1.42s2.71-1.12,3.2-.79c1.89,1.26-.43,3.56-1.73,4-.94.31-3.26.63-4.13-.06-.29-.23-.23-2.38.14-3.14,1.22-2.61,4.8-1.59,5.51.86.58,2-1.19,4.58-3.4,3.27-1.43-.85-2.34-5.8.46-3.8,3,2.15,5.93-2.36,3.75-4.86-3.13-3.59-9.18-2.46-11.35,1.61-2.45,4.59.32,11.61,5.07,13.45a9.17,9.17,0,0,0,11.82-5.07,10.33,10.33,0,0,0-4.37-12.37c-4.36-2.51-10.29-1.5-13,2.91-2.59,4.17-2.29,11.23,2.76,13.35,4.38,1.84,10.29.93,13.53-2.65,3-3.3,3.07-9-.14-12.15-3.59-3.56-10.78-2.52-13.57,1.6-3,4.39,0,10,4.74,11.43a7.81,7.81,0,0,0,10-6.76,7.33,7.33,0,0,0-8.69-7.85c-4.84.87-7.51,7-4.19,10.88s9.85,2.54,10.72-2.63-5.21-8.58-9.31-5.4c-3.86,3-3.15,10.25,2.26,10.89,6.26.75,9.53-8.57,3.2-10.9-5.93-2.2-8.83,7.55-2.88,8.65a3.78,3.78,0,0,0,4.29-4.45,4.25,4.25,0,0,0-5.45-3c-2.25.68-3.86,3.41-2.38,5.53a3,3,0,0,0,5-.15,1.92,1.92,0,0,0-2.61-2.61Z"/>
    </g>
    <g>
      <path d="M43.49,834c9,11.61,21.66,21.67,34,29.57a110.25,110.25,0,0,0,42.79,16.59,236.73,236.73,0,0,0,51,2.44c15.44-1,30-5.63,43.67-12.8,15.31-8,29-18.67,42.52-29.34,3.13-2.48-1.1-8-4.31-5.59-22.93,17.49-47.47,36.62-77.11,39.9-15.84,1.75-32.53.7-48.34-1.05a106.65,106.65,0,0,1-43-14.33,193.51,193.51,0,0,1-19.83-13.69c-6.31-4.89-12.32-10.38-18.94-14.86-2.06-1.39-3.72,1.52-2.44,3.16Z"/>
      <path d="M95.5,791.14c-9.84,7.56-12.08,21.27-12.39,32.93A44.37,44.37,0,0,0,97,858.1c19.29,18.45,50.36,22.2,74.63,12.32,13.48-5.49,25.16-16.73,26-32,.26-4.54-6.5-4.36-7,0-1.73,16-16.23,24.76-30.56,28.29a67.5,67.5,0,0,1-41.56-2.81c-12.07-5-23.57-14.42-27.37-27.34-2.1-7.13-1.75-14.87-.92-22.18.87-7.66,2.22-14.68,7.2-20.8,1-1.25-.37-3.65-1.9-2.47Z"/>
      <path d="M125,803.8c-7.08,3.19-9.66,10.1-10.5,17.41-.9,7.78-1.44,16.16,4.21,22.33,10.92,11.92,30,10.62,40.62-.75,2.37-2.54.05-6.94-3.46-5.94a72.6,72.6,0,0,1-18,2.77c-4.51.12-4.53,7,0,7,2.12,0,4.25,0,6.37,0l-.93-6.82a49,49,0,0,1-8.81.49l.89,6.61a32.62,32.62,0,0,1,10.05-2.51l-.88-6.5a20,20,0,0,1-9.08-.27V844l3.47-.59c3.74-.65,2.75-6.47-.88-6.49a45,45,0,0,1-7-.53l-.88,6.52,5.39.24-.89-6.57a16.1,16.1,0,0,1-7.69.82l-.9,6.64a22.94,22.94,0,0,0,5.76-1.38c2.89-1.14,3.53-5.65,0-6.54a7.69,7.69,0,0,1-6.15-8c.05-3.71-6.07-4.76-6.67-.9a11.63,11.63,0,0,0,.32,5.83c1.16,3.56,6.66,3,6.66-.9v-8.59l-6.64.9.73,3.29c.82,3.7,6.77,2.9,6.63-.9-.21-5.81-.39-11.62-.59-17.44-.14-4.34-6.7-4.37-6.76,0q-.12,7.17.07,14.33c.11,4.37,6.92,4.38,6.8,0q-.21-7.17-.11-14.33h-6.76q.3,8.73.6,17.44l6.63-.9-.72-3.29c-.82-3.77-6.62-2.86-6.64.9l0,8.59,6.66-.9-.31-2.22-6.67-.91a14.51,14.51,0,0,0,11.14,14.54v-6.54a20,20,0,0,1-4.86,1.28c-3.23.44-3.23,6.08,0,6.52A23.55,23.55,0,0,0,136.5,843a3.36,3.36,0,0,0-.89-6.57l-5.39-.19c-3.66-.13-4.64,6-.89,6.52a60.73,60.73,0,0,0,8.73.74l-.88-6.49-3.47.59c-3.28.56-3,5.63,0,6.37a28.07,28.07,0,0,0,12.6.28c3.63-.7,2.85-6.77-.88-6.5a38.53,38.53,0,0,0-11.84,2.64c-3.41,1.36-3.12,6.46.9,6.61a59.82,59.82,0,0,0,9.74-.4c4.3-.54,4.6-6.88,0-6.94-2.12,0-4.25,0-6.37,0v7a80.12,80.12,0,0,0,19.89-2.94l-3.45-5.94c-7.7,8.16-20.85,10-29.5,2-4.7-4.34-4.17-10.15-3.9-16s1.24-12.37,6.4-16a2.29,2.29,0,0,0-2.31-4Z"/>
      <path d="M246.26,837.71a92.19,92.19,0,0,0-9.32,7.16c-3,2.51-6.61,5-8.6,8.34-1.79,3.06,2.1,5.41,4.56,3.51,2.88-2.23,4.9-5.81,7.42-8.46s5.37-5.2,8.09-7.77c1.44-1.37-.44-3.88-2.15-2.78Z"/>
      <path d="M125,781.31c-8.24-1.45-18.08,3.12-25.62,6.06a232.84,232.84,0,0,0-23.44,10.77c-13.22,6.92-27.36,16.09-33.27,30.45-1.47,3.57,4.3,5.83,6.14,2.59,7.46-13.13,18.72-21.06,31.93-27.92,7.19-3.74,14.54-7.23,22.07-10.24,3.93-1.58,7.94-3,12-4.28,3.6-1.15,7.5-1.94,10.65-4.07,1.18-.8,1.24-3.06-.43-3.36Z"/>
      <path d="M121.41,810.39c-6.73-1.41-9.7,7.56-10.21,12.85a25.82,25.82,0,0,0,7,20.36c3,3.13,7.57-1.52,4.75-4.75A20.54,20.54,0,0,1,117.6,826c-.12-2.95.4-11.7,3.81-12.79,1.31-.42,1.51-2.55,0-2.86Z"/>
    </g>
    <g>
      <path d="M1338.36,896.94c12.72-17.08,32.73-23.55,53.53-22,17.92,1.3,38.2,7.5,47.61,24.06,2.18,3.85,8.1.4,5.94-3.47-10.57-18.89-33.15-26.1-53.55-27.46-21.36-1.42-47.22,5.76-56.46,27.2a1.7,1.7,0,0,0,2.93,1.71Z"/>
      <path d="M1336.17,896.39c15.24,14.25,38.16,20.46,58.56,20.79a101.64,101.64,0,0,0,31.42-4.37c4.54-1.39,23.78-6.35,18.37-14.17-2.43-3.53-8.14-.33-5.82,3.4l.44.7-.34-2.61c-.27.91-3.64,1.91-4.48,2.28-2.31,1-4.69,1.92-7.08,2.73a96.69,96.69,0,0,1-11.93,3.19,99.34,99.34,0,0,1-26.77,1.63c-18.29-1.31-34-8.08-49.89-16.78-2-1.08-4.22,1.58-2.48,3.21Z"/>
      <path d="M1380.14,872.05l-.06-.21a1.61,1.61,0,0,0-1.15-1.15c-3.39-.51-7.52,3.33-9.77,5.53a22.54,22.54,0,0,0-6.69,12.65,24.08,24.08,0,0,0,10.12,23.36c3,2.15,6-2.88,2.92-5a17.75,17.75,0,0,1-4.07-25.46,31.63,31.63,0,0,1,3.53-4c.63-.62,4.4-3.09,2.89-3.93a1.57,1.57,0,0,0,2.28-1.76Z"/>
      <path d="M1410.59,877.38c4.83,9.36,11.73,20.49,3.48,30.28-2.55,3,1.81,7.41,4.36,4.36,9.29-11.08,6.09-28.08-4.91-36.9a1.87,1.87,0,0,0-2.93,2.26Z"/>
      <path d="M1394.38,894.63l1.49-.33.67,1.62c-.45.44-.22.67.7.67l-1.91-1.91c-.2-.49.32-2.11,1.09-2,.44.06.82,1.34.31,1.63-1.53.89-2.09-5.25.61-2.35,1.7,1.83-1.66,5.59-3.69,3.93-2.58-2.1-3.22-6.72.91-7.32,5.61-.82,4.58,11.62-2.68,9.33a4.81,4.81,0,0,1-3.07-5.65c.45-1.58,3.86-4.7,5.69-3,3.07,2.79,7-1.33,4.46-4.46-3.06-3.84-9.27-2.68-12.71-.07a11,11,0,0,0-3.87,12.05c3.1,9.85,17.23,10.91,21.56,1.43a12.28,12.28,0,0,0-2.75-14c-4.09-3.72-9.85-2.76-13.66.86-4.34,4.13-2.9,9.8.31,14.12s8.31,5.17,12.61,1.69c3.61-2.91,5.24-8.31,2.51-12.36a8.37,8.37,0,0,0-11-2.52c-4.11,2.56-4,8.37-1.2,11.85,3.13,3.81,9.06,4,11.62-.56a7.66,7.66,0,0,0-3.1-10.34c-4.19-2-9.38,1.16-10.08,5.6s3.8,8.7,8.29,7.36c4-1.2,5.22-6.57,2.35-9.55-3.65-3.78-10.22.21-8.77,5.22,1.33,4.58,8.73,5.13,9.82.14,1.17-5.39-7.37-6.36-9-1.86s5.21,6.5,5.82,1.7c.26-2-2.42-2.13-3.33-.9Z"/>
    </g>
    <g>
      <path d="M171.89,754.72c-.18,1.62,2.4-.48,3.27-.84,1.28-.52,2.56-1,3.86-1.52a32.75,32.75,0,0,1,7.53-1.9c6.06-.66,12.36,1.32,14.63,7.48,1.74,4.72,1.46,10.11,1.6,15.06.19,6.49.34,13,.56,19.48.16,4.55,7.22,4.58,7.09,0-.24-8.8-.34-17.66-.92-26.44-.43-6.57-1.8-13.31-7.08-17.76-4.89-4.12-11.76-5-17.88-3.83-5,1-14.08,3.87-17.07,8.33a2.45,2.45,0,0,0,0,2.43l.31.62c1.08,2.16,3.88.84,4.1-1.11Z"/>
      <path d="M203,766.81c-8.2-2.74-18-4-26,.25-6.59,3.49-11,10.93-9.38,18.44s9.59,12,16.76,13.25a28.13,28.13,0,0,0,22.24-5.61c3.14-2.46-1-7.82-4.28-5.55-4.49,3.07-9.31,4.85-14.82,4.46-5.07-.35-12.24-2.92-13.16-8.62-1-6,4.3-10.32,9.44-12,6.12-1.94,12.39-.87,18.64-.56,2.44.13,2.7-3.38.55-4.1Z"/>
      <path d="M227.2,737c-2.53,12.91-2.16,27.66-.69,40.69C227.58,787.2,234,797,245,793.43c4.38-1.44,2.6-7.8-1.89-6.88-10.91,2.24-9.89-13.74-10.39-20.55-.69-9.45-.5-19.08-1.51-28.47-.22-2.11-3.56-3-4-.55Z"/>
      <path d="M263.05,757.47c-1.67,4.6-.61,10.41-.55,15.25.07,5.58-.39,11.17-.27,16.74.08,3.81,6.32,5,7,.94a86.34,86.34,0,0,0,.52-17.68c-.26-5-.26-11.49-3.09-15.72a2,2,0,0,0-3.57.47Z"/>
      <path d="M262.62,739.79c0,.13-.08.24-.11.37s0,.1,0,0a.87.87,0,0,1,.5-.56h2.29a2.5,2.5,0,0,0-1.89-.26,1.6,1.6,0,0,0-.74.28c-.25.13-.18.11.19-.06l2,.26a4.06,4.06,0,0,0-1.62-.47c-.72,0,0-.12.76.3l1.52,2.64c0-.32,0-.2-.06.37-.24.49-.27.6-.12.33-.32.38-.4.5-.22.33s.06-.07-.32.25-.61.23-.31.14c-.55,0-.69.06-.44.06s.1,0-.45-.06a2,2,0,0,1-.88-.53c.37.36-.39-.64-.16-.21-.2-.54-.26-.66-.17-.36s.05.17-.05-.42c0,.5.2-.8,0-.3.25-.52.3-.64.15-.38.36-.43.44-.54.21-.32a3.11,3.11,0,0,0,0,4.35,3.14,3.14,0,0,0,4.35,0,4.58,4.58,0,1,0-7.71-3.25,3.12,3.12,0,0,0,3.89,3,3.45,3.45,0,0,0,2.81-2.45l-.68,1.17a2.8,2.8,0,0,0,.33-4l.67,1.61,0,.29a3.11,3.11,0,0,0,.07-.44,2.88,2.88,0,0,0,0-.59,3.06,3.06,0,0,0-.43-1.44,1.92,1.92,0,0,0-3.48.45Z"/>
      <path d="M284.71,757.71c4.91,11.91,12.1,22.78,19.75,33.07,1.62,2.18,4.63,2.43,6.21,0a106.17,106.17,0,0,0,8.46-16.16c2.35-5.49,5.09-11.33,6.33-17.17.75-3.54-4.26-6.1-6.11-2.58-2.74,5.23-4.28,11.12-6.61,16.55a108.08,108.08,0,0,1-8.28,15.72h6.21C303,777,296.3,766.24,288.88,756c-1.37-1.91-5.24-.82-4.17,1.76Z"/>
      <path d="M341.79,772.45c8.23.67,16.57,1,24.82,1.25a3.47,3.47,0,0,0,3.31-2.52,14.34,14.34,0,0,0-12.24-17.47c-9.3-1.14-17.21,5.91-18.87,14.8-3.69,19.66,20.85,33.85,35.79,20.22,2.9-2.64-.91-7.7-4.24-5.49-4.39,2.93-9.18,4.73-14.47,3.17A15.14,15.14,0,0,1,345.63,775c-1-5.08,1-11.09,5.86-13.51,5.6-2.8,13.16,1,11.81,7.85l3.31-2.52c-8.26.34-16.59.7-24.82,1.43a2.09,2.09,0,0,0,0,4.18Z"/>
    </g>
    <g>
      <path d="M946.66,732.8c-1.48,10.4.88,22.05,2,32.44,1.17,10.9,2.42,22,5.17,32.6,1.19,4.61,8,2.63,7.06-2-2.11-10.82-3.88-21.62-5.15-32.58-1.13-9.79-1.08-21.21-4.48-30.51-.71-1.94-4.23-2.57-4.6,0Z"/>
      <path d="M955,769.56C943.15,756,918.89,764,917.82,782.35c-1,17,28,22.06,38.07,12.31,2.82-2.72-1-8-4.29-5.57-4.66,3.44-10,3.4-15.54,2.37-5.11-1-11.63-3-11-9.4,1.4-13.49,18.19-15.45,27.46-9.28,2,1.36,4-1.55,2.49-3.22Z"/>
      <path d="M976,780.36c8.29.3,16.45,1.69,24.79,1.73,4.58,0,11.08.58,11.17-5.75.08-5.15-5-9.85-9.26-12a19.48,19.48,0,0,0-15.42-1c-9.65,3.49-17.73,15.92-12.25,25.9,6.11,11.11,23.35,12.72,34.35,10.68,4.71-.87,2.71-8-2-7.17-7.59,1.4-16.66.53-23.13-4.07-7.68-5.46-1.63-15.8,5.41-18.43a12,12,0,0,1,10.59,1.07A16.78,16.78,0,0,1,1004,775l1.74-.23-4,.14c-8.53.27-17.3,1.5-25.79,1.32-2.63,0-2.62,4,0,4.09Z"/>
      <path d="M1024.51,766.05l-.21.21,2.59.33-.18-.24-1,2.44c4.24-.61,7.87-2.19,12.32-2.19,4.82,0,9.14.82,12.79,4.16,7.07,6.46,7.33,16.71,6.51,25.56l7.31-1c-.23-1.12-.47-2.23-.72-3.35-.82-3.78-7-3-6.8.92,0,1.15.13,2.28.21,3.42a3.72,3.72,0,0,0,7.44,0c1.15-13-1.5-29-15.16-34.62-5.67-2.33-12.7-2-18.56-.49-2.38.62-9.95,3.8-6.76,7.38a1.66,1.66,0,0,0,2.33,0l.19-.23c1.33-1.59-.79-3.81-2.31-2.31Z"/>
      <path d="M1053.06,779.09a23,23,0,0,0-20-1.82c-5.38,2-11.29,6.62-10.31,13s7.54,8.55,13,9.42a40,40,0,0,0,22.78-3.35c4.37-1.94.59-8.37-3.75-6.43a32,32,0,0,1-13,2.87c-3.24,0-9.3.14-11.22-2.9-2.51-4,5.43-7,8.59-7.7a24.53,24.53,0,0,1,12.17.78c2.32.71,3.68-2.66,1.63-3.87Z"/>
      <path d="M1112.89,764.65c-14-10.51-37,4.63-33.57,21.62,1.69,8.45,10.45,10.92,18,11.89,8.14,1.05,16.26-1.67,19.13-9.91,1.43-4.11-4.79-5.59-6.38-1.76-2.23,5.35-9.17,5.25-13.87,4.39-5.46-1-11.07-2.77-9.87-9.51a17.2,17.2,0,0,1,8.52-11.53c5.21-2.93,10.83-2.29,16.43-1.26a2.16,2.16,0,0,0,1.66-3.93Z"/>
      <path d="M1112.29,732c-2.29,5.19-.83,12.28-.8,17.87,0,7.09-.51,14.13-.68,21.21-.13,5.76.25,11.66,2.41,17.05,1.61,4,4.32,9.38,9.21,9.43a3.58,3.58,0,0,0,3.49-3.49l.06-.57c.28-2.62-2.81-3.55-4.72-2.7l-.59.26,2.69-.35c-1.83-.34-3.4-5-3.87-6.43a31.31,31.31,0,0,1-1.42-7.91c-.33-5,.18-10.09.29-15.12s.06-10.13-.3-15.17c-.31-4.41-.18-10.38-2.85-14.08-.66-.91-2.36-1.28-2.92,0Z"/>
    </g>
    <g>
      <path d="M304.34,1103.34c21,5.67,42.78,9.68,62.77,18.64s37.12,22.19,49.09,40.83c26.41,41.13,27.59,93.13,32.51,140.25,3.13,30,5.52,60.28,9.58,90.2,1.11,8.15,15,6.28,14.42-2-2-27.49-5.61-55-8.47-82.36-2.79-26.78-4.89-53.76-9.34-80.33-4-24-10.81-48-23.32-69.12a121.34,121.34,0,0,0-49.8-46.8c-23-11.6-48.8-17.73-74.16-21.26-7.61-1.06-11.19,9.77-3.28,11.9Z"/>
      <path d="M447.44,1220.13c-30.18-7-61.87-5.1-91.57,3.43-25.92,7.45-51.35,20.5-62.09,46.72-9.82,24-5.71,52.11,8.34,73.54,14.46,22.06,37.16,37.09,61.75,45.76,16.23,5.71,33.33,8.6,50.42,10.26s35.14,3.05,52.16-.06c8-1.46,6.2-14.73-1.92-14.2-48.92,3.2-108.87-1.46-143.33-41.07-14.45-16.61-21.56-39.42-16.11-61.09,6.09-24.24,27-36.73,49.42-43.89,29.54-9.43,60.63-10.79,91.3-7.35,6.89.77,8.3-10.51,1.63-12Z"/>
      <path d="M534.89,1378.5c21.3-14.49,41.17-29.71,59.13-48.26a413.14,413.14,0,0,0,47.08-58.58,400,400,0,0,0,35.46-66.33c11-26.1,20.23-53.6,22.88-81.94,1.2-12.77,1.78-27.49-6.85-38-9.4-11.46-23-10.82-34.64-3.16-21.74,14.34-35.43,37.7-42.92,62.17-4.4,14.39-6.78,29.27-8.74,44.16-1.86,14.09-3.47,28.23-4.16,42.43-1.37,28.52,1.26,58.2,14.12,84.11,12.77,25.73,38.78,46.22,68.81,41.55,26.15-4.07,45.42-29.48,50.88-54.06,2-8.86-10.54-12.22-13.52-3.72-6.3,18-17.15,37.35-37,42.49-22.14,5.75-42.72-10-53.3-28.16-12.42-21.31-15.65-46.85-15.43-71.12a392.82,392.82,0,0,1,8.52-77.42c4.85-22.78,13.44-45.58,30.56-62,6-5.77,17.89-17.14,25.42-7.92,7,8.54,4.09,24.33,2.74,34.27-3.29,24.37-11.58,48.35-21.12,70.93a407.37,407.37,0,0,1-31,58.94,401.44,401.44,0,0,1-46.15,59.66c-8.55,9.14-17.66,17.66-26.73,26.26-9.3,8.82-18.75,17.53-29,25.23-4.94,3.71-.36,12.13,5,8.5Z"/>
      <path d="M839.85,1180.76a5.5,5.5,0,0,1-1.37,1.26h2.37l.19.19,2.78,4.84c0-.89-.25-1.77-.29-2.64,0,.22.05-2.11.19-1.94.31.39-.88.13-1.45,0-.14,0-.23-.24-.3-.26,0-.57,0-.46,0,.36l0-.34c-.35,1.15.15.07-.44,1,.46-.74-.85.83,0,0,.13-.12-1,0-.06.09s-.39-.18-.32-.12-.72-.65-.6-.63c-.25-.41-.27-.46-.07-.14a.69.69,0,0,1,0,.47c.12.11.28-1-.06-.11a1.62,1.62,0,0,1,.51-.44c.12-.07.61-.2.55-.2-.3,0,1.59,0,2,0a6.64,6.64,0,0,0,3.32-12.26c-4.52-3-10.52-1.53-14.54,1.6a14,14,0,0,0-5.3,13.9c2.19,10.32,15.09,15.09,23.06,7.92,7.07-6.36,6.55-19.77-3.5-22.91-11.73-3.66-20.13,12-12.3,20.58,2.88,3.15,8.31,1.47,9.38-2.47a4.25,4.25,0,0,1,.35-1l-1.15,2a18.39,18.39,0,0,0,3.11-4c2-3.79-2.9-8-6.08-4.69Z"/>
      <path d="M880.2,1170.8c17.54-1.81,34.83-6.15,52.61-4.26a54.85,54.85,0,0,1,38.05,21.25c19.66,25.86,19,60.36,17.64,91.13-1,22.33-1.91,44.69,2.85,66.69,1.44,6.65,10.32,6.81,13.64,1.78a612.79,612.79,0,0,1,60-76.85c6.48-7.06-4-17.65-10.55-10.55a637.08,637.08,0,0,0-62.33,79.87l13.63,1.79c-8.5-39.29,3-79.74-4.64-119.17-6.3-32.33-26-63.46-60.64-69.39-20.89-3.57-43.46.69-62.32,10.1-3.51,1.75-2,8,2.06,7.61Z"/>
      <path d="M887,1334.87c-9.29-5.11-13.11-15.4-16.4-24.91-4.08-11.81-7.87-23.82-9.77-36.2-1.93-12.56-1.66-25.86,3-37.82,3.16-8.18,10-18.22,19.93-17.72,10.5.52,22,8.56,30.15,14.72a103.35,103.35,0,0,1,21.28,21.77c12.59,17.51,23.56,42.94,16.14,64.53-3.81,11.11-13,19-24.83,19.68-14.73.81-29.94-3-43.61-8.17-9-3.42-12.87,11-4,14.39,14.39,5.48,30.36,9.06,45.84,8.75,14.48-.29,26.73-6.63,35-18.56,16.64-24,7.1-57.67-6.78-80.66-13.27-22-35.41-42.31-60.48-49.67-14.22-4.18-27.18,1.91-35.75,13.41C848,1230.07,845,1245.49,845,1259.78c.09,17.69,4.83,35.34,11.08,51.77,5,13,11.85,26.89,25.3,32.87,6.35,2.82,12-6,5.58-9.55Z"/>
      <path d="M1155.05,1343.14c-23-15.23-32.5-42.89-25.64-69.32,7-27.11,26.25-49.75,50.79-62.8,22.35-11.89,47.49-17.22,70.54-27.51,23.59-10.52,43.09-27.28,52.15-52a83.64,83.64,0,0,0,4.48-38.31c-1.51-12.55-5.35-26.55-14.73-35.62-10.43-10.09-24.79-9.13-35.34.14s-16.51,23.89-21.26,36.7c-10.7,28.79-13.47,60.43-13.27,90.94a379.06,379.06,0,0,0,12.59,94.35c6.36,24,14.38,59.68,43.67,64.42,28.19,4.56,50.43-16.74,57.84-42.33a78.22,78.22,0,0,0,3-20.63c.15-9.29-13-8.72-14.07,0-2.76,22.29-13.8,49.56-40.56,48.69-11.46-.37-18.82-8.4-23.55-18.13-6-12.33-9.49-26.37-12.86-39.61a362.17,362.17,0,0,1-11.12-86.76c-.19-28.46,2.31-57.51,11.84-84.5,3.89-11,9-24.9,18.32-32.59,10.36-8.56,18.26,2.92,21.49,12.27,7.49,21.73,3.35,47.23-11.1,65.22-14.25,17.72-36.29,26.17-57.1,33.41-22.79,7.93-46.13,15.28-65.41,30.32-23.46,18.3-40.41,46.15-42.06,76.22-1.46,26.4,11.73,55.88,38.79,63.58,3.78,1.07,5.7-4.09,2.59-6.14Z"/>
    </g>
  </g>
</svg>
